%TF.GenerationSoftware,Altium Limited,Altium Designer,24.9.1 (31)*%
G04 Layer_Color=8421504*
%FSLAX45Y45*%
%MOMM*%
%TF.SameCoordinates,30E74C37-C7CC-4F87-9207-2BD30A255DAA*%
%TF.FilePolarity,Positive*%
%TF.FileFunction,Paste,Top*%
%TF.Part,Single*%
G01*
G75*
%TA.AperFunction,SMDPad,CuDef*%
G04:AMPARAMS|DCode=10|XSize=0.55mm|YSize=0.5mm|CornerRadius=0.0625mm|HoleSize=0mm|Usage=FLASHONLY|Rotation=270.000|XOffset=0mm|YOffset=0mm|HoleType=Round|Shape=RoundedRectangle|*
%AMROUNDEDRECTD10*
21,1,0.55000,0.37500,0,0,270.0*
21,1,0.42500,0.50000,0,0,270.0*
1,1,0.12500,-0.18750,-0.21250*
1,1,0.12500,-0.18750,0.21250*
1,1,0.12500,0.18750,0.21250*
1,1,0.12500,0.18750,-0.21250*
%
%ADD10ROUNDEDRECTD10*%
G04:AMPARAMS|DCode=11|XSize=0.76mm|YSize=0.6604mm|CornerRadius=0.08255mm|HoleSize=0mm|Usage=FLASHONLY|Rotation=180.000|XOffset=0mm|YOffset=0mm|HoleType=Round|Shape=RoundedRectangle|*
%AMROUNDEDRECTD11*
21,1,0.76000,0.49530,0,0,180.0*
21,1,0.59490,0.66040,0,0,180.0*
1,1,0.16510,-0.29745,0.24765*
1,1,0.16510,0.29745,0.24765*
1,1,0.16510,0.29745,-0.24765*
1,1,0.16510,-0.29745,-0.24765*
%
%ADD11ROUNDEDRECTD11*%
%ADD12R,0.90000X0.70000*%
%TA.AperFunction,ConnectorPad*%
%ADD13R,0.40000X1.75000*%
%ADD14R,1.42500X2.50000*%
%TA.AperFunction,SMDPad,CuDef*%
%ADD15R,1.62964X0.57213*%
G04:AMPARAMS|DCode=16|XSize=1.62964mm|YSize=0.57213mm|CornerRadius=0.28606mm|HoleSize=0mm|Usage=FLASHONLY|Rotation=0.000|XOffset=0mm|YOffset=0mm|HoleType=Round|Shape=RoundedRectangle|*
%AMROUNDEDRECTD16*
21,1,1.62964,0.00000,0,0,0.0*
21,1,1.05751,0.57213,0,0,0.0*
1,1,0.57213,0.52875,0.00000*
1,1,0.57213,-0.52875,0.00000*
1,1,0.57213,-0.52875,0.00000*
1,1,0.57213,0.52875,0.00000*
%
%ADD16ROUNDEDRECTD16*%
%ADD19R,2.60000X1.05000*%
%ADD20R,2.05000X2.20000*%
%ADD21R,2.20000X2.05000*%
%TA.AperFunction,ConnectorPad*%
%ADD22R,2.20000X2.05000*%
%TA.AperFunction,SMDPad,CuDef*%
%ADD23R,0.80000X0.80000*%
G04:AMPARAMS|DCode=24|XSize=0.55mm|YSize=0.5mm|CornerRadius=0.0625mm|HoleSize=0mm|Usage=FLASHONLY|Rotation=180.000|XOffset=0mm|YOffset=0mm|HoleType=Round|Shape=RoundedRectangle|*
%AMROUNDEDRECTD24*
21,1,0.55000,0.37500,0,0,180.0*
21,1,0.42500,0.50000,0,0,180.0*
1,1,0.12500,-0.21250,0.18750*
1,1,0.12500,0.21250,0.18750*
1,1,0.12500,0.21250,-0.18750*
1,1,0.12500,-0.21250,-0.18750*
%
%ADD24ROUNDEDRECTD24*%
%TA.AperFunction,ConnectorPad*%
%ADD25R,0.70000X0.90000*%
%TA.AperFunction,SMDPad,CuDef*%
%ADD26R,0.70000X0.90000*%
%ADD28R,1.00000X0.80000*%
%ADD29R,2.80000X1.00000*%
%ADD30R,1.80000X1.20000*%
%ADD31R,1.50000X2.50000*%
%ADD32R,0.50800X2.20980*%
G04:AMPARAMS|DCode=34|XSize=0.2mm|YSize=0.84mm|CornerRadius=0.025mm|HoleSize=0mm|Usage=FLASHONLY|Rotation=45.000|XOffset=0mm|YOffset=0mm|HoleType=Round|Shape=RoundedRectangle|*
%AMROUNDEDRECTD34*
21,1,0.20000,0.79000,0,0,45.0*
21,1,0.15000,0.84000,0,0,45.0*
1,1,0.05000,0.33234,-0.22628*
1,1,0.05000,0.22628,-0.33234*
1,1,0.05000,-0.33234,0.22628*
1,1,0.05000,-0.22628,0.33234*
%
%ADD34ROUNDEDRECTD34*%
G04:AMPARAMS|DCode=35|XSize=0.84mm|YSize=0.2mm|CornerRadius=0.025mm|HoleSize=0mm|Usage=FLASHONLY|Rotation=45.000|XOffset=0mm|YOffset=0mm|HoleType=Round|Shape=RoundedRectangle|*
%AMROUNDEDRECTD35*
21,1,0.84000,0.15000,0,0,45.0*
21,1,0.79000,0.20000,0,0,45.0*
1,1,0.05000,0.33234,0.22628*
1,1,0.05000,-0.22628,-0.33234*
1,1,0.05000,-0.33234,-0.22628*
1,1,0.05000,0.22628,0.33234*
%
%ADD35ROUNDEDRECTD35*%
%ADD37R,1.10000X1.80000*%
G04:AMPARAMS|DCode=38|XSize=0.9mm|YSize=0.7mm|CornerRadius=0mm|HoleSize=0mm|Usage=FLASHONLY|Rotation=135.000|XOffset=0mm|YOffset=0mm|HoleType=Round|Shape=Rectangle|*
%AMROTATEDRECTD38*
4,1,4,0.56569,-0.07071,0.07071,-0.56569,-0.56569,0.07071,-0.07071,0.56569,0.56569,-0.07071,0.0*
%
%ADD38ROTATEDRECTD38*%

%ADD39R,3.50000X1.00000*%
%TA.AperFunction,ConnectorPad*%
%ADD40R,4.20000X1.35000*%
%ADD41R,3.70000X1.27000*%
%TA.AperFunction,SMDPad,CuDef*%
%ADD42R,0.85000X0.35000*%
%ADD43R,2.40000X3.10000*%
%ADD44R,0.80000X0.80000*%
%ADD45R,0.65000X0.65000*%
G04:AMPARAMS|DCode=46|XSize=1.25748mm|YSize=0.70248mm|CornerRadius=0.35124mm|HoleSize=0mm|Usage=FLASHONLY|Rotation=90.000|XOffset=0mm|YOffset=0mm|HoleType=Round|Shape=RoundedRectangle|*
%AMROUNDEDRECTD46*
21,1,1.25748,0.00000,0,0,90.0*
21,1,0.55501,0.70248,0,0,90.0*
1,1,0.70247,0.00000,0.27751*
1,1,0.70247,0.00000,-0.27751*
1,1,0.70247,0.00000,-0.27751*
1,1,0.70247,0.00000,0.27751*
%
%ADD46ROUNDEDRECTD46*%
%ADD47R,0.70248X1.25748*%
%ADD48R,0.95000X1.30000*%
%TA.AperFunction,Conductor*%
%ADD52R,2.00000X1.46000*%
%TA.AperFunction,NonConductor*%
%ADD123R,1.61230X2.25230*%
%TA.AperFunction,SMDPad,CuDef*%
%ADD124P,2.77186X4X90.0*%
G36*
X-2943100Y3678500D02*
X-2939400Y3678000D01*
X-2936300Y3677400D01*
X-2932200Y3676100D01*
X-2928500Y3674300D01*
X-2924900Y3672300D01*
X-2921600Y3669800D01*
X-2918500Y3667100D01*
X-2915900Y3664100D01*
X-2913500Y3660900D01*
X-2911400Y3657400D01*
X-2909500Y3653600D01*
X-2908400Y3650000D01*
X-2907846Y3648187D01*
X-2907400Y3646400D01*
X-2907000Y3642600D01*
X-2906800Y3638700D01*
Y3433700D01*
X-2854301D01*
Y3363700D01*
X-3036800D01*
Y3433701D01*
Y3638700D01*
Y3640900D01*
X-3036700Y3643100D01*
X-3036300Y3645200D01*
X-3035900Y3647200D01*
X-3035500Y3648900D01*
X-3035000Y3650600D01*
X-3033800Y3653800D01*
X-3032200Y3657400D01*
X-3030000Y3660900D01*
X-3027900Y3663900D01*
X-3025300Y3666700D01*
X-3022650Y3669350D01*
X-3019400Y3671800D01*
X-3016300Y3673600D01*
X-3013100Y3675300D01*
X-3009200Y3676800D01*
X-3005250Y3677850D01*
X-3001100Y3678500D01*
X-2996800Y3678700D01*
X-2946800D01*
X-2943100Y3678500D01*
D02*
G37*
G36*
X-3487500Y3678500D02*
X-3483350Y3677850D01*
X-3479400Y3676800D01*
X-3475500Y3675300D01*
X-3472300Y3673600D01*
X-3469200Y3671800D01*
X-3465950Y3669350D01*
X-3463300Y3666700D01*
X-3460700Y3663900D01*
X-3458600Y3660900D01*
X-3456400Y3657400D01*
X-3454800Y3653800D01*
X-3453600Y3650600D01*
X-3453100Y3648900D01*
X-3452700Y3647200D01*
X-3452300Y3645200D01*
X-3451900Y3643100D01*
X-3451800Y3640900D01*
Y3638700D01*
Y3433701D01*
Y3363700D01*
X-3634300D01*
Y3433700D01*
X-3581800D01*
Y3638700D01*
X-3581600Y3642600D01*
X-3581200Y3646400D01*
X-3580755Y3648186D01*
X-3580200Y3650000D01*
X-3579100Y3653600D01*
X-3577200Y3657400D01*
X-3575100Y3660900D01*
X-3572700Y3664100D01*
X-3570100Y3667100D01*
X-3567000Y3669800D01*
X-3563700Y3672300D01*
X-3560100Y3674300D01*
X-3556400Y3676100D01*
X-3552300Y3677400D01*
X-3549200Y3678000D01*
X-3545500Y3678500D01*
X-3541800Y3678700D01*
X-3491800D01*
X-3487500Y3678500D01*
D02*
G37*
G36*
X-3932147Y2544380D02*
X-3976712D01*
X-3990854Y2558522D01*
Y2567527D01*
X-3932147D01*
Y2544380D01*
D02*
G37*
G36*
X-4010854Y2558522D02*
X-4024997Y2544380D01*
X-4055452D01*
X-4069594Y2558522D01*
Y2567527D01*
X-4010854D01*
Y2558522D01*
D02*
G37*
G36*
X-4089594D02*
X-4103737Y2544380D01*
X-4134192D01*
X-4148334Y2558522D01*
Y2567527D01*
X-4089594D01*
Y2558522D01*
D02*
G37*
G36*
X-4168334D02*
X-4182477Y2544380D01*
X-4227041D01*
Y2567527D01*
X-4168334D01*
Y2558522D01*
D02*
G37*
G36*
X-3932147Y2465640D02*
X-3976712D01*
X-3990854Y2479782D01*
Y2510238D01*
X-3976712Y2524380D01*
X-3932147D01*
Y2465640D01*
D02*
G37*
G36*
X-4010854Y2510238D02*
Y2479782D01*
X-4024997Y2465640D01*
X-4055452D01*
X-4069594Y2479782D01*
Y2510238D01*
X-4055452Y2524380D01*
X-4024997D01*
X-4010854Y2510238D01*
D02*
G37*
G36*
X-4089594D02*
Y2479782D01*
X-4103737Y2465640D01*
X-4134192D01*
X-4148334Y2479782D01*
Y2510238D01*
X-4134192Y2524380D01*
X-4103737D01*
X-4089594Y2510238D01*
D02*
G37*
G36*
X-4168334D02*
Y2479782D01*
X-4182477Y2465640D01*
X-4227041D01*
Y2524380D01*
X-4182477D01*
X-4168334Y2510238D01*
D02*
G37*
G36*
X-3932147Y2386900D02*
X-3976712D01*
X-3990854Y2401042D01*
Y2431498D01*
X-3976712Y2445640D01*
X-3932147D01*
Y2386900D01*
D02*
G37*
G36*
X-4010854Y2431498D02*
Y2401042D01*
X-4024997Y2386900D01*
X-4055452D01*
X-4069594Y2401042D01*
Y2431498D01*
X-4055452Y2445640D01*
X-4024997D01*
X-4010854Y2431498D01*
D02*
G37*
G36*
X-4089594D02*
Y2401042D01*
X-4103737Y2386900D01*
X-4134192D01*
X-4148334Y2401042D01*
Y2431498D01*
X-4134192Y2445640D01*
X-4103737D01*
X-4089594Y2431498D01*
D02*
G37*
G36*
X-4168334D02*
Y2401042D01*
X-4182477Y2386900D01*
X-4227041D01*
Y2445640D01*
X-4182477D01*
X-4168334Y2431498D01*
D02*
G37*
G36*
X-3932147Y2343753D02*
X-3990854D01*
Y2352758D01*
X-3976712Y2366900D01*
X-3932147D01*
Y2343753D01*
D02*
G37*
G36*
X-4010854Y2352758D02*
Y2343753D01*
X-4069594D01*
Y2352758D01*
X-4055452Y2366900D01*
X-4024997D01*
X-4010854Y2352758D01*
D02*
G37*
G36*
X-4089594D02*
Y2343753D01*
X-4148334D01*
Y2352758D01*
X-4134192Y2366900D01*
X-4103737D01*
X-4089594Y2352758D01*
D02*
G37*
G36*
X-4168334D02*
Y2343753D01*
X-4227041D01*
Y2366900D01*
X-4182477D01*
X-4168334Y2352758D01*
D02*
G37*
G36*
X-5241159Y-174670D02*
X-5241186Y-174697D01*
X-5342517D01*
X-5350375Y-159498D01*
X-5370231Y-131674D01*
X-5394988Y-108105D01*
X-5423755Y-89641D01*
X-5455493Y-76949D01*
X-5489059Y-70485D01*
X-5523241Y-70483D01*
X-5556807Y-76943D01*
X-5588547Y-89632D01*
X-5617315Y-108093D01*
X-5642076Y-131659D01*
X-5661934Y-159481D01*
X-5669794Y-174679D01*
X-5669802Y-174670D01*
X-5771159D01*
Y25329D01*
X-5241159D01*
Y-174670D01*
D02*
G37*
G36*
X-5669802Y-324645D02*
X-5661944Y-339844D01*
X-5642089Y-367668D01*
X-5617331Y-391236D01*
X-5588564Y-409700D01*
X-5556826Y-422393D01*
X-5523260Y-428856D01*
X-5489078Y-428858D01*
X-5455512Y-422398D01*
X-5423772Y-409709D01*
X-5395004Y-391249D01*
X-5370244Y-367683D01*
X-5350385Y-339861D01*
X-5342525Y-324662D01*
X-5342517Y-324671D01*
X-5241159D01*
Y-524671D01*
X-5771159D01*
Y-324671D01*
X-5771133Y-324644D01*
X-5669802D01*
X-5669802Y-324645D01*
D02*
G37*
D10*
X-4528100Y-438150D02*
D03*
X-4438100D02*
D03*
X-4528100Y-311150D02*
D03*
X-4438100D02*
D03*
X-5747300Y-787400D02*
D03*
X-5657300D02*
D03*
X-6102900Y-342900D02*
D03*
X-6012900D02*
D03*
X-2497440Y982980D02*
D03*
X-2587440D02*
D03*
X-922021Y147319D02*
D03*
X-832021D02*
D03*
D11*
X-5444927Y1547779D02*
D03*
Y1687779D02*
D03*
D12*
X-2324100Y2114700D02*
D03*
Y1974700D02*
D03*
X-3667823Y25329D02*
D03*
Y-114671D02*
D03*
X-3669006Y421698D02*
D03*
Y281698D02*
D03*
X-4447540Y2521100D02*
D03*
Y2381100D02*
D03*
X-1641180Y-489000D02*
D03*
Y-349000D02*
D03*
X-5273040Y1545439D02*
D03*
Y1685439D02*
D03*
X-1534446Y771460D02*
D03*
Y631460D02*
D03*
X-2405980Y708900D02*
D03*
Y568900D02*
D03*
D13*
X-3244300Y3286200D02*
D03*
X-3179300D02*
D03*
X-3114300D02*
D03*
X-3309300D02*
D03*
X-3374300D02*
D03*
D14*
X-3148050Y3593700D02*
D03*
X-3340550D02*
D03*
D15*
X-6461240Y-489000D02*
D03*
D16*
Y-616000D02*
D03*
Y-743000D02*
D03*
Y-870000D02*
D03*
X-5942990D02*
D03*
Y-743000D02*
D03*
Y-616000D02*
D03*
Y-489000D02*
D03*
D19*
X-6498740Y872060D02*
D03*
Y577060D02*
D03*
D20*
X-5998740Y-35440D02*
D03*
X-6448740D02*
D03*
D21*
X-6852728Y-581731D02*
D03*
Y-131731D02*
D03*
D22*
X-7301300Y-581731D02*
D03*
Y-131731D02*
D03*
D23*
X-5067300Y-394900D02*
D03*
Y-544900D02*
D03*
D24*
Y-273600D02*
D03*
Y-183600D02*
D03*
X-6578600Y2463800D02*
D03*
Y2373800D02*
D03*
Y2706200D02*
D03*
Y2616200D02*
D03*
Y2937340D02*
D03*
Y2847340D02*
D03*
X-3831504Y45329D02*
D03*
Y-44670D02*
D03*
Y359959D02*
D03*
Y269959D02*
D03*
D25*
X-5708500Y-1041400D02*
D03*
X-5848500D02*
D03*
X-5987900D02*
D03*
X-6127900D02*
D03*
X-6496200D02*
D03*
X-6356200D02*
D03*
D26*
X-5606900Y-647700D02*
D03*
X-5746900D02*
D03*
X-6445100Y-317500D02*
D03*
X-6585100D02*
D03*
X-5444927Y3644900D02*
D03*
X-5304927D02*
D03*
X-5678020D02*
D03*
X-5818020D02*
D03*
X-1938180Y2276250D02*
D03*
X-2078180D02*
D03*
X-1938180Y2438490D02*
D03*
X-2078180D02*
D03*
X-2557440Y1977990D02*
D03*
X-2697440D02*
D03*
X-1381462Y1259217D02*
D03*
X-1521462D02*
D03*
X-1669900Y2197100D02*
D03*
X-1809900D02*
D03*
D28*
X-5727141Y198272D02*
D03*
Y348272D02*
D03*
D29*
X-7324181Y2484832D02*
D03*
X-6884181D02*
D03*
Y2634832D02*
D03*
X-7324181D02*
D03*
X-6884181Y2784832D02*
D03*
X-7324181D02*
D03*
D30*
X-2182540Y563900D02*
D03*
X-1782540D02*
D03*
Y803900D02*
D03*
X-2182540D02*
D03*
D31*
X-4673041Y3398520D02*
D03*
X-4873041D02*
D03*
X-5073040D02*
D03*
X-5273040D02*
D03*
X-5473040D02*
D03*
X-5673039D02*
D03*
X-5873039D02*
D03*
X-6073038D02*
D03*
Y1898523D02*
D03*
X-5873039D02*
D03*
X-5673039D02*
D03*
X-5473040D02*
D03*
X-5273040D02*
D03*
X-5073040D02*
D03*
X-4873041D02*
D03*
X-4673041D02*
D03*
D32*
X-3889094Y2743140D02*
D03*
X-4016094D02*
D03*
X-4143094D02*
D03*
X-4270094D02*
D03*
Y2168140D02*
D03*
X-4143094D02*
D03*
X-4016094D02*
D03*
X-3889094D02*
D03*
D34*
X-1845077Y1181081D02*
D03*
X-1816792Y1209365D02*
D03*
X-1788508Y1237650D02*
D03*
X-1760224Y1265934D02*
D03*
X-1731939Y1294218D02*
D03*
X-1703655Y1322503D02*
D03*
X-1675371Y1350787D02*
D03*
X-1647087Y1379071D02*
D03*
X-1618802Y1407355D02*
D03*
X-1590518Y1435639D02*
D03*
X-1562234Y1463924D02*
D03*
X-1533950Y1492208D02*
D03*
X-1505665Y1520493D02*
D03*
X-1477381Y1548777D02*
D03*
X-1963163Y2034559D02*
D03*
X-1991447Y2006275D02*
D03*
X-2019732Y1977990D02*
D03*
X-2048016Y1949706D02*
D03*
X-2076300Y1921422D02*
D03*
X-2104585Y1893137D02*
D03*
X-2132869Y1864853D02*
D03*
X-2161153Y1836569D02*
D03*
X-2189437Y1808285D02*
D03*
X-2217722Y1780001D02*
D03*
X-2246006Y1751716D02*
D03*
X-2274290Y1723432D02*
D03*
X-2302575Y1695147D02*
D03*
X-2330859Y1666863D02*
D03*
D35*
Y1548777D02*
D03*
X-2302575Y1520493D02*
D03*
X-2274290Y1492208D02*
D03*
X-2246006Y1463924D02*
D03*
X-2217722Y1435639D02*
D03*
X-2189437Y1407355D02*
D03*
X-2161153Y1379071D02*
D03*
X-2132869Y1350787D02*
D03*
X-2104585Y1322503D02*
D03*
X-2076300Y1294218D02*
D03*
X-2048016Y1265934D02*
D03*
X-2019732Y1237650D02*
D03*
X-1991447Y1209365D02*
D03*
X-1963163Y1181081D02*
D03*
X-1477381Y1666863D02*
D03*
X-1505665Y1695147D02*
D03*
X-1533950Y1723432D02*
D03*
X-1562234Y1751716D02*
D03*
X-1590518Y1780001D02*
D03*
X-1618802Y1808285D02*
D03*
X-1647087Y1836569D02*
D03*
X-1675371Y1864853D02*
D03*
X-1703655Y1893137D02*
D03*
X-1731939Y1921422D02*
D03*
X-1760224Y1949706D02*
D03*
X-1788508Y1977990D02*
D03*
X-1816792Y2006275D02*
D03*
X-1845077Y2034559D02*
D03*
D37*
X-246800Y104260D02*
D03*
Y-515740D02*
D03*
X-616800Y104260D02*
D03*
Y-515740D02*
D03*
X-1460080Y-495420D02*
D03*
Y124580D02*
D03*
X-1090080Y-495420D02*
D03*
Y124580D02*
D03*
D38*
X-2552543Y1442998D02*
D03*
X-2651537Y1344003D02*
D03*
D39*
X-923380Y1607820D02*
D03*
Y1353820D02*
D03*
Y1099820D02*
D03*
Y845820D02*
D03*
Y591820D02*
D03*
X-373380Y1607820D02*
D03*
Y1353820D02*
D03*
Y1099820D02*
D03*
Y845820D02*
D03*
Y591820D02*
D03*
X-378460Y1892300D02*
D03*
Y2146300D02*
D03*
Y2400300D02*
D03*
Y2654300D02*
D03*
Y2908300D02*
D03*
X-928460Y1892300D02*
D03*
Y2146300D02*
D03*
Y2400300D02*
D03*
Y2654300D02*
D03*
Y2908300D02*
D03*
D40*
X-6503740Y1854500D02*
D03*
Y1294500D02*
D03*
D41*
X-6513740Y1574500D02*
D03*
D42*
X-3105840Y1783700D02*
D03*
Y1703700D02*
D03*
Y1623700D02*
D03*
Y1543700D02*
D03*
X-2715840D02*
D03*
Y1623700D02*
D03*
Y1703700D02*
D03*
Y1783700D02*
D03*
D43*
X-2910840Y1663700D02*
D03*
D44*
X-2737980Y982980D02*
D03*
X-2887980D02*
D03*
D45*
X-3465743Y-204671D02*
D03*
Y45329D02*
D03*
Y274959D02*
D03*
Y524959D02*
D03*
D46*
X-835660Y-28003D02*
D03*
D47*
Y-358077D02*
D03*
D48*
X-2083947Y2847340D02*
D03*
X-1898947D02*
D03*
X-2083947Y2636561D02*
D03*
X-1898947D02*
D03*
X-2744037Y2186250D02*
D03*
X-2559038D02*
D03*
X-2707240Y2400300D02*
D03*
X-2522240D02*
D03*
D52*
X-3534303Y3265702D02*
D03*
X-2954302D02*
D03*
D123*
X-6202115Y-679500D02*
D03*
D124*
X-1904120Y1607820D02*
D03*
%TF.MD5,48280e30f31ac2f0b63a3d8ebe534293*%
M02*
