%TF.GenerationSoftware,Altium Limited,Altium Designer,24.9.1 (31)*%
G04 Layer_Physical_Order=4*
G04 Layer_Color=16711680*
%FSLAX45Y45*%
%MOMM*%
%TF.SameCoordinates,30E74C37-C7CC-4F87-9207-2BD30A255DAA*%
%TF.FilePolarity,Positive*%
%TF.FileFunction,Copper,L4,Bot,Signal*%
%TF.Part,Single*%
G01*
G75*
%TA.AperFunction,Conductor*%
%ADD49C,0.25000*%
%ADD50C,1.00000*%
%ADD51C,0.25400*%
%TA.AperFunction,ComponentPad*%
%ADD54O,1.20000X1.70000*%
%ADD55O,1.00000X1.40000*%
%ADD56O,2.00000X1.50000*%
%ADD57R,2.00000X1.50000*%
%ADD58C,1.52400*%
%ADD59R,1.52400X1.52400*%
%ADD60R,1.75000X1.75000*%
%ADD61C,1.75000*%
%TA.AperFunction,ViaPad*%
%ADD62C,3.40000*%
%ADD63C,0.40000*%
%ADD64C,1.27000*%
%ADD65C,0.60000*%
%ADD66C,0.45000*%
%TA.AperFunction,NonConductor*%
%ADD67C,0.01270*%
G36*
X-184913Y2779321D02*
X-197613Y2772532D01*
X-199175Y2773575D01*
X-210880Y2775904D01*
X-222585Y2773575D01*
X-232509Y2766945D01*
X-239139Y2757021D01*
X-241468Y2745316D01*
X-239139Y2733611D01*
X-232509Y2723687D01*
X-222585Y2717057D01*
X-210880Y2714728D01*
X-199175Y2717057D01*
X-197613Y2718100D01*
X-184913Y2711311D01*
Y1739976D01*
X-197614Y1732671D01*
X-205740Y1734288D01*
X-217445Y1731959D01*
X-227369Y1725329D01*
X-233999Y1715405D01*
X-236328Y1703700D01*
X-233999Y1691995D01*
X-227369Y1682071D01*
X-217445Y1675441D01*
X-205740Y1673112D01*
X-197614Y1674729D01*
X-184913Y1667424D01*
Y277576D01*
X-197614Y270271D01*
X-205740Y271888D01*
X-217445Y269559D01*
X-227369Y262929D01*
X-233999Y253005D01*
X-236328Y241300D01*
X-233999Y229595D01*
X-227369Y219671D01*
X-217445Y213041D01*
X-205740Y210712D01*
X-197614Y212329D01*
X-184913Y205024D01*
Y-1212701D01*
X-5294485D01*
X-5300749Y-1200001D01*
X-5295198Y-1192767D01*
X-5287792Y-1174887D01*
X-5285266Y-1155700D01*
X-5287792Y-1136513D01*
X-5295198Y-1118633D01*
X-5306979Y-1103279D01*
X-5322333Y-1091498D01*
X-5340213Y-1084092D01*
X-5359400Y-1081566D01*
X-5378587Y-1084092D01*
X-5396467Y-1091498D01*
X-5411821Y-1103279D01*
X-5423602Y-1118633D01*
X-5431008Y-1136513D01*
X-5433534Y-1155700D01*
X-5431008Y-1174887D01*
X-5423602Y-1192767D01*
X-5418051Y-1200001D01*
X-5424315Y-1212701D01*
X-7603349D01*
Y998051D01*
X-6733740D01*
X-6718133Y1001155D01*
X-6704901Y1009996D01*
X-6696061Y1023227D01*
X-6692956Y1038834D01*
Y1155679D01*
X-6687890Y1158925D01*
X-6680256Y1161192D01*
X-6672336Y1155900D01*
X-6660631Y1153571D01*
X-6648925Y1155900D01*
X-6639002Y1162530D01*
X-6632372Y1172454D01*
X-6630043Y1184159D01*
X-6632372Y1195865D01*
X-6639002Y1205788D01*
X-6648925Y1212418D01*
X-6660631Y1214747D01*
X-6672336Y1212418D01*
X-6680256Y1207127D01*
X-6687890Y1209394D01*
X-6692956Y1212639D01*
Y1942906D01*
X-6680256Y1949254D01*
X-6675445Y1946039D01*
X-6663740Y1943711D01*
X-6652034Y1946039D01*
X-6642111Y1952670D01*
X-6635481Y1962593D01*
X-6633152Y1974299D01*
X-6635481Y1986004D01*
X-6642111Y1995927D01*
X-6652034Y2002558D01*
X-6663740Y2004886D01*
X-6675445Y2002558D01*
X-6680256Y1999343D01*
X-6692956Y2005691D01*
Y2088140D01*
X-6696061Y2103747D01*
X-6704901Y2116978D01*
X-6718133Y2125819D01*
X-6733740Y2128924D01*
X-7603349D01*
Y2336448D01*
X-7590649Y2344509D01*
X-7584133Y2343212D01*
X-7572427Y2345541D01*
X-7562504Y2352171D01*
X-7555873Y2362095D01*
X-7553545Y2373800D01*
X-7555873Y2385506D01*
X-7562504Y2395429D01*
X-7572427Y2402059D01*
X-7584133Y2404388D01*
X-7590649Y2403092D01*
X-7603349Y2411152D01*
Y2434945D01*
X-7596830Y2439857D01*
X-7590649Y2442652D01*
X-7580900Y2440712D01*
X-7569195Y2443041D01*
X-7559271Y2449671D01*
X-7552641Y2459595D01*
X-7550312Y2471300D01*
X-7552641Y2483005D01*
X-7559271Y2492929D01*
X-7569195Y2499559D01*
X-7580900Y2501888D01*
X-7590649Y2499949D01*
X-7596830Y2502743D01*
X-7603349Y2507655D01*
Y2556788D01*
X-7590649Y2564849D01*
X-7584133Y2563552D01*
X-7572427Y2565881D01*
X-7562504Y2572511D01*
X-7555873Y2582435D01*
X-7553545Y2594140D01*
X-7555873Y2605845D01*
X-7562504Y2615769D01*
X-7572427Y2622399D01*
X-7584133Y2624728D01*
X-7590649Y2623432D01*
X-7603349Y2631492D01*
Y2651348D01*
X-7590649Y2659408D01*
X-7584133Y2658112D01*
X-7572427Y2660441D01*
X-7562504Y2667071D01*
X-7555873Y2676995D01*
X-7553545Y2688700D01*
X-7555873Y2700405D01*
X-7562504Y2710329D01*
X-7572427Y2716959D01*
X-7584133Y2719288D01*
X-7590649Y2717992D01*
X-7603349Y2726052D01*
Y2802488D01*
X-7590649Y2810548D01*
X-7584133Y2809252D01*
X-7572427Y2811581D01*
X-7562504Y2818211D01*
X-7555873Y2828135D01*
X-7553545Y2839840D01*
X-7555873Y2851545D01*
X-7562504Y2861469D01*
X-7572427Y2868099D01*
X-7584133Y2870428D01*
X-7590649Y2869131D01*
X-7603349Y2877192D01*
Y2907488D01*
X-7590649Y2915548D01*
X-7584133Y2914252D01*
X-7572427Y2916581D01*
X-7562504Y2923211D01*
X-7555873Y2933135D01*
X-7553545Y2944840D01*
X-7555873Y2956545D01*
X-7562504Y2966469D01*
X-7572427Y2973099D01*
X-7584133Y2975428D01*
X-7590649Y2974131D01*
X-7603349Y2982192D01*
Y3705735D01*
X-184913D01*
Y2779321D01*
D02*
G37*
%LPC*%
G36*
X-4737796Y3605488D02*
X-4749501Y3603159D01*
X-4759425Y3596529D01*
X-4766055Y3586605D01*
X-4768384Y3574900D01*
X-4766055Y3563195D01*
X-4759425Y3553271D01*
X-4749501Y3546641D01*
X-4737796Y3544312D01*
X-4726091Y3546641D01*
X-4716167Y3553271D01*
X-4709537Y3563195D01*
X-4707208Y3574900D01*
X-4709537Y3586605D01*
X-4716167Y3596529D01*
X-4726091Y3603159D01*
X-4737796Y3605488D01*
D02*
G37*
G36*
X-5996941Y3599312D02*
X-6008647Y3596984D01*
X-6018570Y3590353D01*
X-6025201Y3580430D01*
X-6027529Y3568725D01*
X-6025201Y3557019D01*
X-6018570Y3547096D01*
X-6008647Y3540465D01*
X-5996941Y3538137D01*
X-5985236Y3540465D01*
X-5975312Y3547096D01*
X-5968682Y3557019D01*
X-5966354Y3568725D01*
X-5968682Y3580430D01*
X-5975312Y3590353D01*
X-5985236Y3596984D01*
X-5996941Y3599312D01*
D02*
G37*
G36*
X-6133038D02*
X-6144744Y3596984D01*
X-6154667Y3590353D01*
X-6161298Y3580430D01*
X-6163626Y3568725D01*
X-6161298Y3557019D01*
X-6154667Y3547096D01*
X-6144744Y3540465D01*
X-6133038Y3538137D01*
X-6121333Y3540465D01*
X-6111409Y3547096D01*
X-6104779Y3557019D01*
X-6102451Y3568725D01*
X-6104779Y3580430D01*
X-6111409Y3590353D01*
X-6121333Y3596984D01*
X-6133038Y3599312D01*
D02*
G37*
G36*
X-4864556Y3599288D02*
X-4876261Y3596959D01*
X-4886185Y3590329D01*
X-4892815Y3580405D01*
X-4895144Y3568700D01*
X-4892815Y3556995D01*
X-4886185Y3547071D01*
X-4876261Y3540441D01*
X-4864556Y3538112D01*
X-4852851Y3540441D01*
X-4842927Y3547071D01*
X-4836297Y3556995D01*
X-4833968Y3568700D01*
X-4836297Y3580405D01*
X-4842927Y3590329D01*
X-4852851Y3596959D01*
X-4864556Y3599288D01*
D02*
G37*
G36*
X-2971800Y3664304D02*
X-2990074Y3661898D01*
X-3007102Y3654845D01*
X-3021724Y3643624D01*
X-3032945Y3629002D01*
X-3039998Y3611973D01*
X-3042404Y3593700D01*
Y3543700D01*
X-3039998Y3525427D01*
X-3032945Y3508398D01*
X-3021724Y3493776D01*
X-3007102Y3482555D01*
X-2990074Y3475502D01*
X-2971800Y3473096D01*
X-2953526Y3475502D01*
X-2936498Y3482555D01*
X-2921876Y3493776D01*
X-2910655Y3508398D01*
X-2903602Y3525427D01*
X-2901196Y3543700D01*
Y3593700D01*
X-2903602Y3611973D01*
X-2910655Y3629002D01*
X-2921876Y3643624D01*
X-2936498Y3654845D01*
X-2953526Y3661898D01*
X-2971800Y3664304D01*
D02*
G37*
G36*
X-3516800D02*
X-3535074Y3661898D01*
X-3552102Y3654845D01*
X-3566725Y3643624D01*
X-3577945Y3629002D01*
X-3584998Y3611973D01*
X-3587404Y3593700D01*
Y3543700D01*
X-3584998Y3525427D01*
X-3577945Y3508398D01*
X-3566725Y3493776D01*
X-3552102Y3482555D01*
X-3535074Y3475502D01*
X-3516800Y3473096D01*
X-3498527Y3475502D01*
X-3481498Y3482555D01*
X-3466876Y3493776D01*
X-3455656Y3508398D01*
X-3448602Y3525427D01*
X-3446196Y3543700D01*
Y3593700D01*
X-3448602Y3611973D01*
X-3455656Y3629002D01*
X-3466876Y3643624D01*
X-3481498Y3654845D01*
X-3498527Y3661898D01*
X-3516800Y3664304D01*
D02*
G37*
G36*
X-4540046Y3419016D02*
X-4551752Y3416688D01*
X-4561675Y3410057D01*
X-4568306Y3400134D01*
X-4570634Y3388428D01*
X-4568306Y3376723D01*
X-4561675Y3366799D01*
X-4551752Y3360169D01*
X-4540046Y3357841D01*
X-4528341Y3360169D01*
X-4518417Y3366799D01*
X-4511787Y3376723D01*
X-4509459Y3388428D01*
X-4511787Y3400134D01*
X-4518417Y3410057D01*
X-4528341Y3416688D01*
X-4540046Y3419016D01*
D02*
G37*
G36*
X-4517540Y3338089D02*
X-4529245Y3335761D01*
X-4539169Y3329131D01*
X-4545799Y3319207D01*
X-4548128Y3307502D01*
X-4545799Y3295796D01*
X-4539169Y3285873D01*
X-4529245Y3279242D01*
X-4517540Y3276914D01*
X-4505835Y3279242D01*
X-4495911Y3285873D01*
X-4489281Y3295796D01*
X-4486952Y3307502D01*
X-4489281Y3319207D01*
X-4495911Y3329131D01*
X-4505835Y3335761D01*
X-4517540Y3338089D01*
D02*
G37*
G36*
X-7342060Y3627388D02*
X-7377346Y3623912D01*
X-7411276Y3613620D01*
X-7442546Y3596905D01*
X-7469955Y3574412D01*
X-7492449Y3547003D01*
X-7509163Y3515733D01*
X-7519455Y3481803D01*
X-7522931Y3446517D01*
X-7519455Y3411231D01*
X-7509163Y3377301D01*
X-7492449Y3346030D01*
X-7469955Y3318622D01*
X-7442546Y3296128D01*
X-7411276Y3279414D01*
X-7377346Y3269121D01*
X-7342060Y3265646D01*
X-7306774Y3269121D01*
X-7272844Y3279414D01*
X-7241574Y3296128D01*
X-7214165Y3318622D01*
X-7191671Y3346030D01*
X-7174957Y3377301D01*
X-7164665Y3411231D01*
X-7161189Y3446517D01*
X-7164665Y3481803D01*
X-7174957Y3515733D01*
X-7191671Y3547003D01*
X-7214165Y3574412D01*
X-7241574Y3596905D01*
X-7272844Y3613620D01*
X-7306774Y3623912D01*
X-7342060Y3627388D01*
D02*
G37*
G36*
X-434220Y3622848D02*
X-469506Y3619372D01*
X-503436Y3609080D01*
X-534707Y3592365D01*
X-562115Y3569872D01*
X-584609Y3542463D01*
X-601323Y3511193D01*
X-611615Y3477263D01*
X-615091Y3441977D01*
X-611615Y3406691D01*
X-601323Y3372761D01*
X-584609Y3341490D01*
X-562115Y3314082D01*
X-534707Y3291588D01*
X-503436Y3274874D01*
X-469506Y3264581D01*
X-434220Y3261106D01*
X-398934Y3264581D01*
X-365004Y3274874D01*
X-333734Y3291588D01*
X-306325Y3314082D01*
X-283832Y3341490D01*
X-267117Y3372761D01*
X-256825Y3406691D01*
X-253349Y3441977D01*
X-256825Y3477263D01*
X-267117Y3511193D01*
X-283832Y3542463D01*
X-306325Y3569872D01*
X-333734Y3592365D01*
X-365004Y3609080D01*
X-398934Y3619372D01*
X-434220Y3622848D01*
D02*
G37*
G36*
X-3001800Y3346875D02*
X-3025211Y3342219D01*
X-3045058Y3328958D01*
X-3058319Y3309111D01*
X-3062976Y3285700D01*
Y3245700D01*
X-3058319Y3222289D01*
X-3045058Y3202443D01*
X-3025211Y3189181D01*
X-3001800Y3184525D01*
X-2978389Y3189181D01*
X-2958543Y3202443D01*
X-2945281Y3222289D01*
X-2940625Y3245700D01*
Y3285700D01*
X-2945281Y3309111D01*
X-2958543Y3328958D01*
X-2978389Y3342219D01*
X-3001800Y3346875D01*
D02*
G37*
G36*
X-3486800D02*
X-3510211Y3342219D01*
X-3530057Y3328958D01*
X-3543319Y3309111D01*
X-3547975Y3285700D01*
Y3245700D01*
X-3543319Y3222289D01*
X-3530057Y3202443D01*
X-3510211Y3189181D01*
X-3486800Y3184525D01*
X-3463389Y3189181D01*
X-3443543Y3202443D01*
X-3430281Y3222289D01*
X-3425625Y3245700D01*
Y3285700D01*
X-3430281Y3309111D01*
X-3443543Y3328958D01*
X-3463389Y3342219D01*
X-3486800Y3346875D01*
D02*
G37*
G36*
X-6013685Y3245101D02*
X-6025391Y3242773D01*
X-6035314Y3236142D01*
X-6041945Y3226219D01*
X-6044273Y3214514D01*
X-6041945Y3202808D01*
X-6035314Y3192885D01*
X-6025391Y3186254D01*
X-6013685Y3183926D01*
X-6001980Y3186254D01*
X-5992057Y3192885D01*
X-5985426Y3202808D01*
X-5983098Y3214514D01*
X-5985426Y3226219D01*
X-5992057Y3236142D01*
X-6001980Y3242773D01*
X-6013685Y3245101D01*
D02*
G37*
G36*
X-6133038D02*
X-6144744Y3242773D01*
X-6154667Y3236142D01*
X-6161298Y3226219D01*
X-6163626Y3214514D01*
X-6161298Y3202808D01*
X-6154667Y3192885D01*
X-6144744Y3186254D01*
X-6133038Y3183926D01*
X-6121333Y3186254D01*
X-6111409Y3192885D01*
X-6104779Y3202808D01*
X-6102451Y3214514D01*
X-6104779Y3226219D01*
X-6111409Y3236142D01*
X-6121333Y3242773D01*
X-6133038Y3245101D01*
D02*
G37*
G36*
X-5062278Y3196408D02*
X-5073983Y3194080D01*
X-5083907Y3187449D01*
X-5090537Y3177526D01*
X-5092866Y3165820D01*
X-5090537Y3154115D01*
X-5083907Y3144192D01*
X-5073983Y3137561D01*
X-5062278Y3135233D01*
X-5050573Y3137561D01*
X-5040649Y3144192D01*
X-5034019Y3154115D01*
X-5031690Y3165820D01*
X-5034019Y3177526D01*
X-5040649Y3187449D01*
X-5050573Y3194080D01*
X-5062278Y3196408D01*
D02*
G37*
G36*
X-5273040Y3117797D02*
X-5284745Y3115468D01*
X-5294669Y3108838D01*
X-5301299Y3098914D01*
X-5303628Y3087209D01*
X-5301299Y3075504D01*
X-5294669Y3065580D01*
X-5284745Y3058950D01*
X-5273040Y3056621D01*
X-5261335Y3058950D01*
X-5251411Y3065580D01*
X-5244781Y3075504D01*
X-5242452Y3087209D01*
X-5244781Y3098914D01*
X-5251411Y3108838D01*
X-5261335Y3115468D01*
X-5273040Y3117797D01*
D02*
G37*
G36*
X-5473040Y3067199D02*
X-5484745Y3064871D01*
X-5494668Y3058241D01*
X-5501299Y3048317D01*
X-5503627Y3036612D01*
X-5501299Y3024906D01*
X-5494668Y3014983D01*
X-5484745Y3008352D01*
X-5473040Y3006024D01*
X-5461334Y3008352D01*
X-5451411Y3014983D01*
X-5444780Y3024906D01*
X-5442452Y3036612D01*
X-5444780Y3048317D01*
X-5451411Y3058241D01*
X-5461334Y3064871D01*
X-5473040Y3067199D01*
D02*
G37*
G36*
X-5673039Y3014728D02*
X-5684745Y3012399D01*
X-5694668Y3005769D01*
X-5701298Y2995845D01*
X-5703627Y2984140D01*
X-5701298Y2972435D01*
X-5694668Y2962511D01*
X-5684745Y2955881D01*
X-5673039Y2953552D01*
X-5661334Y2955881D01*
X-5651410Y2962511D01*
X-5644780Y2972435D01*
X-5642452Y2984140D01*
X-5644780Y2995845D01*
X-5651410Y3005769D01*
X-5661334Y3012399D01*
X-5673039Y3014728D01*
D02*
G37*
G36*
X-5872522Y2966758D02*
X-5884227Y2964429D01*
X-5894151Y2957799D01*
X-5900781Y2947875D01*
X-5903109Y2936170D01*
X-5900781Y2924465D01*
X-5894151Y2914541D01*
X-5884227Y2907911D01*
X-5872522Y2905582D01*
X-5860816Y2907911D01*
X-5850893Y2914541D01*
X-5844262Y2924465D01*
X-5841934Y2936170D01*
X-5844262Y2947875D01*
X-5850893Y2957799D01*
X-5860816Y2964429D01*
X-5872522Y2966758D01*
D02*
G37*
G36*
X-3816704Y2901468D02*
X-3828410Y2899139D01*
X-3838333Y2892509D01*
X-3844964Y2882585D01*
X-3847292Y2870880D01*
X-3844964Y2859175D01*
X-3838333Y2849251D01*
X-3828410Y2842621D01*
X-3816704Y2840292D01*
X-3804999Y2842621D01*
X-3795075Y2849251D01*
X-3788445Y2859175D01*
X-3786117Y2870880D01*
X-3788445Y2882585D01*
X-3795075Y2892509D01*
X-3804999Y2899139D01*
X-3816704Y2901468D01*
D02*
G37*
G36*
X-1756180Y2877928D02*
X-1767886Y2875599D01*
X-1777809Y2868969D01*
X-1784440Y2859045D01*
X-1786768Y2847340D01*
X-1784440Y2835635D01*
X-1777809Y2825711D01*
X-1767886Y2819081D01*
X-1756180Y2816752D01*
X-1744475Y2819081D01*
X-1734552Y2825711D01*
X-1727921Y2835635D01*
X-1725593Y2847340D01*
X-1727921Y2859045D01*
X-1734552Y2868969D01*
X-1744475Y2875599D01*
X-1756180Y2877928D01*
D02*
G37*
G36*
X-6401240D02*
X-6412945Y2875599D01*
X-6422869Y2868969D01*
X-6429499Y2859045D01*
X-6431828Y2847340D01*
X-6429499Y2835635D01*
X-6422869Y2825711D01*
X-6412945Y2819081D01*
X-6401240Y2816752D01*
X-6389535Y2819081D01*
X-6379611Y2825711D01*
X-6372981Y2835635D01*
X-6370652Y2847340D01*
X-6372981Y2859045D01*
X-6379611Y2868969D01*
X-6389535Y2875599D01*
X-6401240Y2877928D01*
D02*
G37*
G36*
X-2217722Y3278593D02*
X-2229427Y3276264D01*
X-2239351Y3269634D01*
X-2245981Y3259711D01*
X-2248309Y3248005D01*
X-2245981Y3236300D01*
X-2239351Y3226376D01*
X-2229427Y3219746D01*
X-2220398Y3217950D01*
X-2113625Y3111177D01*
Y2726139D01*
X-2116419Y2724132D01*
X-2126325Y2721350D01*
X-2215951Y2810976D01*
X-2217747Y2820005D01*
X-2224377Y2829929D01*
X-2234301Y2836559D01*
X-2246006Y2838888D01*
X-2257711Y2836559D01*
X-2267635Y2829929D01*
X-2274265Y2820005D01*
X-2276594Y2808300D01*
X-2274265Y2796595D01*
X-2267635Y2786671D01*
X-2257711Y2780041D01*
X-2248682Y2778245D01*
X-2163313Y2692876D01*
Y1511568D01*
X-2168428Y1503913D01*
X-2170756Y1492208D01*
X-2168428Y1480503D01*
X-2161797Y1470579D01*
X-2151874Y1463949D01*
X-2140168Y1461620D01*
X-2128463Y1463949D01*
X-2126325Y1465378D01*
X-2113625Y1458589D01*
Y1368369D01*
X-2141605Y1340389D01*
X-2146623Y1332880D01*
X-2148384Y1324023D01*
Y1166147D01*
X-2153499Y1158492D01*
X-2155827Y1146786D01*
X-2153499Y1135081D01*
X-2146868Y1125158D01*
X-2136945Y1118527D01*
X-2125240Y1116199D01*
X-2113534Y1118527D01*
X-2103611Y1125158D01*
X-2096980Y1135081D01*
X-2094652Y1146786D01*
X-2096980Y1158492D01*
X-2102095Y1166147D01*
Y1314436D01*
X-2074114Y1342417D01*
X-2069097Y1349925D01*
X-2067335Y1358783D01*
Y1572872D01*
X-2054635Y1579661D01*
X-2054485Y1579561D01*
X-2042780Y1577232D01*
X-2031075Y1579561D01*
X-2021725Y1585808D01*
X-2018444Y1585139D01*
X-2009025Y1581480D01*
Y1435022D01*
X-2007263Y1426165D01*
X-2002246Y1418656D01*
X-1952673Y1369084D01*
X-1956854Y1355303D01*
X-1957030Y1355268D01*
X-1966954Y1348638D01*
X-1973584Y1338714D01*
X-1975380Y1329685D01*
X-2007207Y1297859D01*
X-2012224Y1290350D01*
X-2013986Y1281493D01*
Y1140628D01*
X-2026686Y1133839D01*
X-2026835Y1133939D01*
X-2038541Y1136268D01*
X-2050246Y1133939D01*
X-2060170Y1127309D01*
X-2066800Y1117385D01*
X-2069128Y1105680D01*
X-2066800Y1093975D01*
X-2060170Y1084051D01*
X-2050246Y1077421D01*
X-2038541Y1075092D01*
X-2026835Y1077421D01*
X-2026686Y1077521D01*
X-2013986Y1070732D01*
Y270715D01*
X-2124882Y159818D01*
X-2126390Y160118D01*
X-2138095Y157789D01*
X-2148019Y151159D01*
X-2154649Y141235D01*
X-2156977Y129530D01*
X-2154649Y117825D01*
X-2148019Y107901D01*
X-2138095Y101271D01*
X-2126390Y98942D01*
X-2114684Y101271D01*
X-2104761Y107901D01*
X-2098130Y117825D01*
X-2097315Y121922D01*
X-1974475Y244762D01*
X-1969458Y252271D01*
X-1967696Y261128D01*
Y1271906D01*
X-1942649Y1296953D01*
X-1933620Y1298749D01*
X-1923696Y1305380D01*
X-1917066Y1315303D01*
X-1917031Y1315480D01*
X-1903250Y1319661D01*
X-1885935Y1302346D01*
X-1884139Y1293316D01*
X-1877509Y1283393D01*
X-1867585Y1276762D01*
X-1855880Y1274434D01*
X-1844175Y1276762D01*
X-1834251Y1283393D01*
X-1827621Y1293316D01*
X-1825292Y1305022D01*
X-1826798Y1312590D01*
X-1819749Y1321777D01*
X-1817011Y1323534D01*
X-1812489Y1322634D01*
X-1800784Y1324963D01*
X-1790860Y1331593D01*
X-1784230Y1341516D01*
X-1781901Y1353222D01*
X-1784230Y1364927D01*
X-1789344Y1372582D01*
Y2078622D01*
X-1791106Y2087479D01*
X-1796123Y2094988D01*
X-1827955Y2126820D01*
Y2992505D01*
X-1826982Y2993478D01*
X-1821965Y3000987D01*
X-1820203Y3009844D01*
Y3034715D01*
X-1804881Y3050037D01*
X-1800784Y3050852D01*
X-1790860Y3057483D01*
X-1784230Y3067406D01*
X-1781901Y3079112D01*
X-1784230Y3090817D01*
X-1790860Y3100741D01*
X-1800784Y3107371D01*
X-1812489Y3109699D01*
X-1824194Y3107371D01*
X-1834118Y3100741D01*
X-1840748Y3090817D01*
X-1843077Y3079112D01*
X-1842777Y3077605D01*
X-1859714Y3060668D01*
X-1864731Y3053159D01*
X-1866493Y3044302D01*
Y3019431D01*
X-1867466Y3018458D01*
X-1872483Y3010949D01*
X-1874245Y3002092D01*
Y2117233D01*
X-1872483Y2108376D01*
X-1867466Y2100867D01*
X-1835634Y2069035D01*
Y1372582D01*
X-1840748Y1364927D01*
X-1843077Y1353222D01*
X-1853200Y1341938D01*
X-1859462Y1341336D01*
X-1916519Y1398392D01*
X-1910262Y1410096D01*
X-1904120Y1408874D01*
X-1892415Y1411203D01*
X-1882491Y1417833D01*
X-1875861Y1427757D01*
X-1873532Y1439462D01*
X-1875861Y1451168D01*
X-1882491Y1461091D01*
X-1892415Y1467721D01*
X-1904120Y1470050D01*
X-1915825Y1467721D01*
X-1925749Y1461091D01*
X-1932379Y1451168D01*
X-1934708Y1439462D01*
X-1933486Y1433320D01*
X-1945190Y1427063D01*
X-1962735Y1444608D01*
Y2735729D01*
X-1958156Y2740308D01*
X-1953139Y2747817D01*
X-1951377Y2756674D01*
Y3067849D01*
X-1946263Y3075504D01*
X-1943934Y3087209D01*
X-1946263Y3098914D01*
X-1952893Y3108838D01*
X-1962816Y3115468D01*
X-1974522Y3117797D01*
X-1986227Y3115468D01*
X-1996151Y3108838D01*
X-2002781Y3098914D01*
X-2005110Y3087209D01*
X-2002781Y3075504D01*
X-1997667Y3067849D01*
Y2766261D01*
X-2002246Y2761682D01*
X-2007263Y2754173D01*
X-2009025Y2745316D01*
Y1634160D01*
X-2018444Y1630501D01*
X-2021725Y1629832D01*
X-2031075Y1636079D01*
X-2042780Y1638408D01*
X-2054485Y1636079D01*
X-2054635Y1635979D01*
X-2067335Y1642768D01*
Y3120763D01*
X-2069097Y3129621D01*
X-2074114Y3137129D01*
X-2187666Y3250681D01*
X-2189462Y3259711D01*
X-2196093Y3269634D01*
X-2206016Y3276264D01*
X-2217722Y3278593D01*
D02*
G37*
G36*
X-520067Y2775904D02*
X-531772Y2773575D01*
X-541696Y2766945D01*
X-548326Y2757021D01*
X-550654Y2745316D01*
X-548326Y2733611D01*
X-541696Y2723687D01*
X-531772Y2717057D01*
X-520067Y2714728D01*
X-508361Y2717057D01*
X-498438Y2723687D01*
X-491808Y2733611D01*
X-489479Y2745316D01*
X-491808Y2757021D01*
X-498438Y2766945D01*
X-508361Y2773575D01*
X-520067Y2775904D01*
D02*
G37*
G36*
X-3820514Y2732149D02*
X-3832220Y2729820D01*
X-3842143Y2723190D01*
X-3848774Y2713266D01*
X-3851102Y2701561D01*
X-3848774Y2689856D01*
X-3842143Y2679932D01*
X-3832220Y2673302D01*
X-3820514Y2670973D01*
X-3808809Y2673302D01*
X-3798885Y2679932D01*
X-3792255Y2689856D01*
X-3789927Y2701561D01*
X-3792255Y2713266D01*
X-3798885Y2723190D01*
X-3808809Y2729820D01*
X-3820514Y2732149D01*
D02*
G37*
G36*
X-1756180Y2667149D02*
X-1767886Y2664820D01*
X-1777809Y2658190D01*
X-1784440Y2648266D01*
X-1786768Y2636561D01*
X-1784440Y2624856D01*
X-1777809Y2614932D01*
X-1767886Y2608302D01*
X-1756180Y2605973D01*
X-1744475Y2608302D01*
X-1734552Y2614932D01*
X-1727921Y2624856D01*
X-1725593Y2636561D01*
X-1727921Y2648266D01*
X-1734552Y2658190D01*
X-1744475Y2664820D01*
X-1756180Y2667149D01*
D02*
G37*
G36*
X-4447540Y2646788D02*
X-4459245Y2644459D01*
X-4469169Y2637829D01*
X-4475799Y2627905D01*
X-4478128Y2616200D01*
X-4475799Y2604495D01*
X-4469169Y2594571D01*
X-4459245Y2587941D01*
X-4447540Y2585612D01*
X-4435835Y2587941D01*
X-4425911Y2594571D01*
X-4419281Y2604495D01*
X-4416952Y2616200D01*
X-4419281Y2627905D01*
X-4425911Y2637829D01*
X-4435835Y2644459D01*
X-4447540Y2646788D01*
D02*
G37*
G36*
X-2570220Y2520888D02*
X-2581925Y2518559D01*
X-2591849Y2511929D01*
X-2598479Y2502005D01*
X-2600808Y2490300D01*
X-2598479Y2478595D01*
X-2591849Y2468671D01*
X-2581925Y2462041D01*
X-2570220Y2459712D01*
X-2558515Y2462041D01*
X-2548591Y2468671D01*
X-2541961Y2478595D01*
X-2539632Y2490300D01*
X-2541961Y2502005D01*
X-2548591Y2511929D01*
X-2558515Y2518559D01*
X-2570220Y2520888D01*
D02*
G37*
G36*
X-2487240Y2501054D02*
X-2498945Y2498726D01*
X-2508869Y2492096D01*
X-2515499Y2482172D01*
X-2517828Y2470467D01*
X-2515499Y2458761D01*
X-2508869Y2448838D01*
X-2498945Y2442207D01*
X-2487240Y2439879D01*
X-2475535Y2442207D01*
X-2465611Y2448838D01*
X-2458981Y2458761D01*
X-2456652Y2470467D01*
X-2458981Y2482172D01*
X-2465611Y2492096D01*
X-2475535Y2498726D01*
X-2487240Y2501054D01*
D02*
G37*
G36*
X-1760224Y2486228D02*
X-1771929Y2483899D01*
X-1781852Y2477269D01*
X-1788483Y2467345D01*
X-1790811Y2455640D01*
X-1788483Y2443935D01*
X-1781852Y2434011D01*
X-1771929Y2427381D01*
X-1760224Y2425052D01*
X-1748518Y2427381D01*
X-1738595Y2434011D01*
X-1731964Y2443935D01*
X-1729636Y2455640D01*
X-1731964Y2467345D01*
X-1738595Y2477269D01*
X-1748518Y2483899D01*
X-1760224Y2486228D01*
D02*
G37*
G36*
X-2484655Y2340888D02*
X-2496360Y2338559D01*
X-2506284Y2331929D01*
X-2512914Y2322006D01*
X-2515242Y2310300D01*
X-2512914Y2298595D01*
X-2506284Y2288671D01*
X-2496360Y2282041D01*
X-2484655Y2279712D01*
X-2472949Y2282041D01*
X-2463026Y2288671D01*
X-2456395Y2298595D01*
X-2454067Y2310300D01*
X-2456395Y2322006D01*
X-2463026Y2331929D01*
X-2472949Y2338559D01*
X-2484655Y2340888D01*
D02*
G37*
G36*
X-1663700Y2316588D02*
X-1675405Y2314259D01*
X-1685329Y2307629D01*
X-1691959Y2297705D01*
X-1694288Y2286000D01*
X-1691959Y2274295D01*
X-1685329Y2264371D01*
X-1675405Y2257741D01*
X-1663700Y2255412D01*
X-1651995Y2257741D01*
X-1642071Y2264371D01*
X-1635441Y2274295D01*
X-1633112Y2286000D01*
X-1635441Y2297705D01*
X-1642071Y2307629D01*
X-1651995Y2314259D01*
X-1663700Y2316588D01*
D02*
G37*
G36*
X-2562186Y2340888D02*
X-2573891Y2338559D01*
X-2583814Y2331929D01*
X-2590445Y2322006D01*
X-2592773Y2310300D01*
X-2604901Y2306169D01*
X-2613243Y2304510D01*
X-2623166Y2297879D01*
X-2629797Y2287956D01*
X-2632125Y2276250D01*
X-2629797Y2264545D01*
X-2623166Y2254622D01*
X-2613243Y2247991D01*
X-2601537Y2245663D01*
X-2589832Y2247991D01*
X-2579908Y2254622D01*
X-2573278Y2264545D01*
X-2570950Y2276250D01*
X-2558822Y2280382D01*
X-2550480Y2282041D01*
X-2540557Y2288671D01*
X-2533926Y2298595D01*
X-2531598Y2310300D01*
X-2533926Y2322006D01*
X-2540557Y2331929D01*
X-2550480Y2338559D01*
X-2562186Y2340888D01*
D02*
G37*
G36*
X-469071Y2270079D02*
X-480776Y2267751D01*
X-490700Y2261120D01*
X-497330Y2251197D01*
X-499659Y2239491D01*
X-497330Y2227786D01*
X-490700Y2217862D01*
X-480776Y2211232D01*
X-469071Y2208904D01*
X-457366Y2211232D01*
X-447442Y2217862D01*
X-440812Y2227786D01*
X-438483Y2239491D01*
X-440812Y2251197D01*
X-447442Y2261120D01*
X-457366Y2267751D01*
X-469071Y2270079D01*
D02*
G37*
G36*
X-5674360Y2197208D02*
X-5686065Y2194879D01*
X-5695989Y2188249D01*
X-5702619Y2178325D01*
X-5704948Y2166620D01*
X-5702619Y2154915D01*
X-5695989Y2144991D01*
X-5686065Y2138361D01*
X-5674360Y2136032D01*
X-5662655Y2138361D01*
X-5652731Y2144991D01*
X-5646101Y2154915D01*
X-5643772Y2166620D01*
X-5646101Y2178325D01*
X-5652731Y2188249D01*
X-5662655Y2194879D01*
X-5674360Y2197208D01*
D02*
G37*
G36*
X-2510116Y2126838D02*
X-2521821Y2124510D01*
X-2531745Y2117879D01*
X-2537985D01*
X-2547908Y2124510D01*
X-2559614Y2126838D01*
X-2571319Y2124510D01*
X-2581242Y2117879D01*
X-2587873Y2107956D01*
X-2590201Y2096251D01*
X-2589053Y2090479D01*
X-2588879Y2083766D01*
X-2597938Y2076749D01*
X-2600449Y2076249D01*
X-2610373Y2069619D01*
X-2617003Y2059695D01*
X-2619332Y2047990D01*
X-2617003Y2036285D01*
X-2610373Y2026361D01*
X-2600449Y2019731D01*
X-2588744Y2017402D01*
X-2577039Y2019731D01*
X-2567115Y2026361D01*
X-2566791Y2026846D01*
X-2551517D01*
X-2551193Y2026361D01*
X-2541270Y2019731D01*
X-2529564Y2017402D01*
X-2517859Y2019731D01*
X-2507936Y2026361D01*
X-2501305Y2036285D01*
X-2498977Y2047990D01*
X-2501305Y2059695D01*
X-2493684Y2071150D01*
X-2488487Y2074622D01*
X-2481857Y2084545D01*
X-2479528Y2096251D01*
X-2481857Y2107956D01*
X-2488487Y2117879D01*
X-2498411Y2124510D01*
X-2510116Y2126838D01*
D02*
G37*
G36*
X-246800Y2166838D02*
X-258505Y2164510D01*
X-268429Y2157879D01*
X-275059Y2147956D01*
X-277388Y2136250D01*
X-275059Y2124545D01*
X-268429Y2114621D01*
X-258505Y2107991D01*
X-246800Y2105663D01*
X-235095Y2107991D01*
X-225171Y2114621D01*
X-218541Y2124545D01*
X-216212Y2136250D01*
X-218541Y2147956D01*
X-225171Y2157879D01*
X-235095Y2164510D01*
X-246800Y2166838D01*
D02*
G37*
G36*
X-2400300Y2138788D02*
X-2412005Y2136459D01*
X-2421929Y2129829D01*
X-2428559Y2119905D01*
X-2430888Y2108200D01*
X-2428559Y2096495D01*
X-2421929Y2086571D01*
X-2412005Y2079941D01*
X-2400300Y2077612D01*
X-2388595Y2079941D01*
X-2378671Y2086571D01*
X-2372041Y2096495D01*
X-2369712Y2108200D01*
X-2372041Y2119905D01*
X-2378671Y2129829D01*
X-2388595Y2136459D01*
X-2400300Y2138788D01*
D02*
G37*
G36*
X-5473040Y2118728D02*
X-5484745Y2116399D01*
X-5494668Y2109769D01*
X-5501299Y2099845D01*
X-5503627Y2088140D01*
X-5501299Y2076435D01*
X-5494668Y2066511D01*
X-5484745Y2059881D01*
X-5473040Y2057552D01*
X-5461334Y2059881D01*
X-5451411Y2066511D01*
X-5444780Y2076435D01*
X-5442452Y2088140D01*
X-5444780Y2099845D01*
X-5451411Y2109769D01*
X-5461334Y2116399D01*
X-5473040Y2118728D01*
D02*
G37*
G36*
X-5794926Y2083703D02*
X-5806631Y2081375D01*
X-5816555Y2074745D01*
X-5823185Y2064821D01*
X-5825513Y2053116D01*
X-5823185Y2041410D01*
X-5816555Y2031487D01*
X-5806631Y2024857D01*
X-5794926Y2022528D01*
X-5783220Y2024857D01*
X-5773297Y2031487D01*
X-5766666Y2041410D01*
X-5764338Y2053116D01*
X-5766666Y2064821D01*
X-5773297Y2074745D01*
X-5783220Y2081375D01*
X-5794926Y2083703D01*
D02*
G37*
G36*
X-5971154D02*
X-5982859Y2081375D01*
X-5992783Y2074745D01*
X-5999413Y2064821D01*
X-6001742Y2053116D01*
X-5999413Y2041410D01*
X-5992783Y2031487D01*
X-5982859Y2024857D01*
X-5971154Y2022528D01*
X-5959449Y2024857D01*
X-5949525Y2031487D01*
X-5942895Y2041410D01*
X-5940566Y2053116D01*
X-5942895Y2064821D01*
X-5949525Y2074745D01*
X-5959449Y2081375D01*
X-5971154Y2083703D01*
D02*
G37*
G36*
X-1193272Y3000300D02*
X-1204978Y2997971D01*
X-1214901Y2991341D01*
X-1221532Y2981417D01*
X-1223399Y2972028D01*
X-1263205Y2932222D01*
X-1268178Y2924780D01*
X-1269924Y2916001D01*
Y1780039D01*
X-1412016Y1637947D01*
X-1421405Y1636079D01*
X-1431329Y1629449D01*
X-1437959Y1619525D01*
X-1440288Y1607820D01*
X-1437959Y1596115D01*
X-1431329Y1586191D01*
X-1421405Y1579561D01*
X-1409700Y1577232D01*
X-1397995Y1579561D01*
X-1388071Y1586191D01*
X-1381441Y1596115D01*
X-1379573Y1605504D01*
X-1238785Y1746292D01*
X-1226085Y1741032D01*
Y1671120D01*
X-1383778Y1513427D01*
X-1393167Y1511559D01*
X-1403090Y1504929D01*
X-1409721Y1495005D01*
X-1412049Y1483300D01*
X-1409721Y1471595D01*
X-1403090Y1461671D01*
X-1393167Y1455041D01*
X-1381462Y1452712D01*
X-1369756Y1455041D01*
X-1359833Y1461671D01*
X-1353202Y1471595D01*
X-1351335Y1480984D01*
X-1186923Y1645396D01*
X-1181950Y1652838D01*
X-1180204Y1661617D01*
Y1742878D01*
X-1167504Y1750777D01*
X-1160644Y1749413D01*
X-1148939Y1751741D01*
X-1139016Y1758372D01*
X-1132385Y1768295D01*
X-1130057Y1780001D01*
X-1132385Y1791706D01*
X-1137704Y1799666D01*
Y1995097D01*
X-1125004Y2004639D01*
X-1121644Y2003971D01*
X-1109939Y2006300D01*
X-1100016Y2012930D01*
X-1093385Y2022853D01*
X-1091057Y2034559D01*
X-1093385Y2046264D01*
X-1098500Y2053919D01*
Y2497059D01*
X-1078072Y2517487D01*
X-1073975Y2518302D01*
X-1064051Y2524932D01*
X-1057421Y2534856D01*
X-1055092Y2546561D01*
X-1057421Y2558266D01*
X-1064051Y2568190D01*
X-1073975Y2574820D01*
X-1085680Y2577149D01*
X-1097385Y2574820D01*
X-1107309Y2568190D01*
X-1113939Y2558266D01*
X-1116268Y2546561D01*
X-1115968Y2545054D01*
X-1133504Y2527518D01*
X-1146204Y2532779D01*
Y2636859D01*
X-1122989Y2660074D01*
X-1118016Y2667517D01*
X-1116270Y2676296D01*
Y2761634D01*
X-1110951Y2769595D01*
X-1108622Y2781300D01*
X-1110951Y2793005D01*
X-1117581Y2802929D01*
X-1127505Y2809559D01*
X-1139210Y2811888D01*
X-1143147Y2811105D01*
X-1146254Y2812865D01*
X-1152921Y2822109D01*
X-1152152Y2825975D01*
X-1152152Y2825976D01*
Y2864692D01*
X-1146833Y2872652D01*
X-1144505Y2884357D01*
X-1146833Y2896063D01*
X-1153464Y2905986D01*
X-1163387Y2912617D01*
X-1175093Y2914945D01*
X-1186798Y2912617D01*
X-1196722Y2905986D01*
X-1203352Y2896063D01*
X-1205680Y2884357D01*
X-1203352Y2872652D01*
X-1198033Y2864692D01*
Y2835477D01*
X-1211343Y2822167D01*
X-1224043Y2827428D01*
Y2906499D01*
X-1190956Y2939585D01*
X-1181567Y2941453D01*
X-1171644Y2948083D01*
X-1165013Y2958007D01*
X-1162685Y2969712D01*
X-1165013Y2981417D01*
X-1171644Y2991341D01*
X-1181567Y2997971D01*
X-1193272Y3000300D01*
D02*
G37*
G36*
X-6333740Y1991728D02*
X-6345445Y1989399D01*
X-6355369Y1982769D01*
X-6361999Y1972845D01*
X-6364327Y1961140D01*
X-6361999Y1949435D01*
X-6355369Y1939511D01*
X-6345445Y1932881D01*
X-6333740Y1930552D01*
X-6322034Y1932881D01*
X-6312111Y1939511D01*
X-6305480Y1949435D01*
X-6303152Y1961140D01*
X-6305480Y1972845D01*
X-6312111Y1982769D01*
X-6322034Y1989399D01*
X-6333740Y1991728D01*
D02*
G37*
G36*
X-1891997Y1922518D02*
X-1903702Y1920190D01*
X-1913626Y1913560D01*
X-1920256Y1903636D01*
X-1922585Y1891931D01*
X-1920256Y1880225D01*
X-1913626Y1870302D01*
X-1903702Y1863671D01*
X-1891997Y1861343D01*
X-1880292Y1863671D01*
X-1870368Y1870302D01*
X-1863738Y1880225D01*
X-1861409Y1891931D01*
X-1863738Y1903636D01*
X-1870368Y1913560D01*
X-1880292Y1920190D01*
X-1891997Y1922518D01*
D02*
G37*
G36*
X-2812980Y1886573D02*
X-2824685Y1884244D01*
X-2834609Y1877614D01*
X-2841239Y1867690D01*
X-2843568Y1855985D01*
X-2841239Y1844280D01*
X-2834609Y1834356D01*
X-2824685Y1827726D01*
X-2812980Y1825397D01*
X-2801275Y1827726D01*
X-2791351Y1834356D01*
X-2784721Y1844280D01*
X-2782392Y1855985D01*
X-2784721Y1867690D01*
X-2791351Y1877614D01*
X-2801275Y1884244D01*
X-2812980Y1886573D01*
D02*
G37*
G36*
X-3010840D02*
X-3022545Y1884244D01*
X-3032469Y1877614D01*
X-3039099Y1867690D01*
X-3041428Y1855985D01*
X-3039099Y1844280D01*
X-3032469Y1834356D01*
X-3022545Y1827726D01*
X-3010840Y1825397D01*
X-2999135Y1827726D01*
X-2989211Y1834356D01*
X-2982581Y1844280D01*
X-2980252Y1855985D01*
X-2982581Y1867690D01*
X-2989211Y1877614D01*
X-2999135Y1884244D01*
X-3010840Y1886573D01*
D02*
G37*
G36*
X-4016094Y2901468D02*
X-4027800Y2899139D01*
X-4037723Y2892509D01*
X-4044354Y2882585D01*
X-4046150Y2873556D01*
X-4065037Y2854669D01*
X-4070054Y2847160D01*
X-4071816Y2838303D01*
Y1728118D01*
X-4070054Y1719261D01*
X-4065037Y1711753D01*
X-4035434Y1682150D01*
X-4033638Y1673121D01*
X-4027007Y1663197D01*
X-4017084Y1656567D01*
X-4005379Y1654238D01*
X-3993673Y1656567D01*
X-3983750Y1663197D01*
X-3977119Y1673121D01*
X-3974791Y1684826D01*
X-3977119Y1696531D01*
X-3983750Y1706455D01*
X-3993673Y1713085D01*
X-4002702Y1714881D01*
X-4025526Y1737705D01*
Y1788199D01*
X-4012826Y1792051D01*
X-4009222Y1786656D01*
X-3999298Y1780026D01*
X-3987593Y1777697D01*
X-3975887Y1780026D01*
X-3965964Y1786656D01*
X-3959333Y1796580D01*
X-3957005Y1808285D01*
X-3959333Y1819990D01*
X-3965964Y1829914D01*
X-3975887Y1836544D01*
X-3987593Y1838873D01*
X-3999298Y1836544D01*
X-4009222Y1829914D01*
X-4012826Y1824519D01*
X-4025526Y1828371D01*
Y2828716D01*
X-4013418Y2840825D01*
X-4004389Y2842621D01*
X-3994465Y2849251D01*
X-3987835Y2859175D01*
X-3985507Y2870880D01*
X-3987835Y2882585D01*
X-3994465Y2892509D01*
X-4004389Y2899139D01*
X-4016094Y2901468D01*
D02*
G37*
G36*
X-1904306Y1828863D02*
X-1916011Y1826535D01*
X-1925934Y1819904D01*
X-1932565Y1809981D01*
X-1934893Y1798275D01*
X-1932565Y1786570D01*
X-1925934Y1776646D01*
X-1916011Y1770016D01*
X-1904306Y1767688D01*
X-1892600Y1770016D01*
X-1882677Y1776646D01*
X-1876046Y1786570D01*
X-1873718Y1798275D01*
X-1876046Y1809981D01*
X-1882677Y1819904D01*
X-1892600Y1826535D01*
X-1904306Y1828863D01*
D02*
G37*
G36*
X-763036Y1810588D02*
X-774742Y1808260D01*
X-784665Y1801629D01*
X-791296Y1791706D01*
X-793624Y1780001D01*
X-791296Y1768295D01*
X-784665Y1758372D01*
X-774742Y1751741D01*
X-763036Y1749413D01*
X-751331Y1751741D01*
X-741407Y1758372D01*
X-734777Y1768295D01*
X-732449Y1780001D01*
X-734777Y1791706D01*
X-741407Y1801629D01*
X-751331Y1808260D01*
X-763036Y1810588D01*
D02*
G37*
G36*
X-1005080D02*
X-1016785Y1808260D01*
X-1026709Y1801629D01*
X-1033339Y1791706D01*
X-1035668Y1780001D01*
X-1033339Y1768295D01*
X-1026709Y1758372D01*
X-1016785Y1751741D01*
X-1005080Y1749413D01*
X-993375Y1751741D01*
X-983451Y1758372D01*
X-976821Y1768295D01*
X-974492Y1780001D01*
X-976821Y1791706D01*
X-983451Y1801629D01*
X-993375Y1808260D01*
X-1005080Y1810588D01*
D02*
G37*
G36*
X-1711180Y1782304D02*
X-1722886Y1779976D01*
X-1732809Y1773345D01*
X-1739439Y1763422D01*
X-1741768Y1751716D01*
X-1739439Y1740011D01*
X-1732809Y1730087D01*
X-1722886Y1723457D01*
X-1711180Y1721129D01*
X-1699475Y1723457D01*
X-1689551Y1730087D01*
X-1682921Y1740011D01*
X-1680593Y1751716D01*
X-1682921Y1763422D01*
X-1689551Y1773345D01*
X-1699475Y1779976D01*
X-1711180Y1782304D01*
D02*
G37*
G36*
X-5062278Y1776026D02*
X-5073983Y1773698D01*
X-5083907Y1767068D01*
X-5090537Y1757144D01*
X-5092866Y1745439D01*
X-5090537Y1733733D01*
X-5083907Y1723810D01*
X-5073983Y1717179D01*
X-5062278Y1714851D01*
X-5050573Y1717179D01*
X-5040649Y1723810D01*
X-5034019Y1733733D01*
X-5031690Y1745439D01*
X-5034019Y1757144D01*
X-5040649Y1767068D01*
X-5050573Y1773698D01*
X-5062278Y1776026D01*
D02*
G37*
G36*
X-469071Y1734288D02*
X-480776Y1731959D01*
X-490700Y1725329D01*
X-497330Y1715405D01*
X-499659Y1703700D01*
X-497330Y1691995D01*
X-490700Y1682071D01*
X-480776Y1675441D01*
X-469071Y1673112D01*
X-457366Y1675441D01*
X-447442Y1682071D01*
X-440812Y1691995D01*
X-438483Y1703700D01*
X-440812Y1715405D01*
X-447442Y1725329D01*
X-457366Y1731959D01*
X-469071Y1734288D01*
D02*
G37*
G36*
X-5813039Y1731027D02*
X-5824744Y1728698D01*
X-5834668Y1722068D01*
X-5841298Y1712144D01*
X-5843627Y1700439D01*
X-5841298Y1688733D01*
X-5834668Y1678810D01*
X-5824744Y1672180D01*
X-5813039Y1669851D01*
X-5801334Y1672180D01*
X-5791410Y1678810D01*
X-5784780Y1688733D01*
X-5782451Y1700439D01*
X-5784780Y1712144D01*
X-5791410Y1722068D01*
X-5801334Y1728698D01*
X-5813039Y1731027D01*
D02*
G37*
G36*
X-5924926D02*
X-5936631Y1728698D01*
X-5946555Y1722068D01*
X-5953185Y1712144D01*
X-5955513Y1700439D01*
X-5953185Y1688733D01*
X-5946555Y1678810D01*
X-5936631Y1672180D01*
X-5924926Y1669851D01*
X-5913220Y1672180D01*
X-5903297Y1678810D01*
X-5896666Y1688733D01*
X-5894338Y1700439D01*
X-5896666Y1712144D01*
X-5903297Y1722068D01*
X-5913220Y1728698D01*
X-5924926Y1731027D01*
D02*
G37*
G36*
X-2218995Y1685113D02*
X-2230700Y1682784D01*
X-2238355Y1677670D01*
X-3121754D01*
X-3130611Y1675908D01*
X-3138119Y1670891D01*
X-3176016Y1632994D01*
X-3185045Y1631198D01*
X-3194969Y1624567D01*
X-3201599Y1614644D01*
X-3203928Y1602939D01*
X-3201599Y1591233D01*
X-3194969Y1581310D01*
X-3185045Y1574679D01*
X-3173340Y1572351D01*
X-3161635Y1574679D01*
X-3151711Y1581310D01*
X-3145081Y1591233D01*
X-3143285Y1600262D01*
X-3112167Y1631380D01*
X-2238355D01*
X-2230700Y1626266D01*
X-2218995Y1623937D01*
X-2207290Y1626266D01*
X-2197366Y1632896D01*
X-2190736Y1642820D01*
X-2188407Y1654525D01*
X-2190736Y1666230D01*
X-2197366Y1676154D01*
X-2207290Y1682784D01*
X-2218995Y1685113D01*
D02*
G37*
G36*
X-1647087Y1734288D02*
X-1658792Y1731959D01*
X-1668715Y1725329D01*
X-1675346Y1715405D01*
X-1677674Y1703700D01*
X-1675346Y1691995D01*
X-1668715Y1682071D01*
X-1661224Y1677066D01*
X-1658623Y1674129D01*
X-1657078Y1662151D01*
X-1659810Y1658061D01*
X-1662139Y1646356D01*
X-1659810Y1634651D01*
X-1653180Y1624727D01*
X-1643257Y1618097D01*
X-1631551Y1615768D01*
X-1619846Y1618097D01*
X-1609922Y1624727D01*
X-1603292Y1634651D01*
X-1600964Y1646356D01*
X-1603292Y1658061D01*
X-1609922Y1667985D01*
X-1617414Y1672990D01*
X-1620015Y1675927D01*
X-1621560Y1687905D01*
X-1618827Y1691995D01*
X-1616499Y1703700D01*
X-1618827Y1715405D01*
X-1625458Y1725329D01*
X-1635381Y1731959D01*
X-1647087Y1734288D01*
D02*
G37*
G36*
X-4146690Y2901468D02*
X-4158396Y2899139D01*
X-4168319Y2892509D01*
X-4174949Y2882585D01*
X-4177278Y2870880D01*
X-4174949Y2859175D01*
X-4169835Y2851520D01*
Y2788561D01*
X-4263782Y2694614D01*
X-4268799Y2687105D01*
X-4270561Y2678248D01*
Y1661121D01*
X-4275676Y1653467D01*
X-4278004Y1641761D01*
X-4275676Y1630056D01*
X-4269045Y1620132D01*
X-4259122Y1613502D01*
X-4247416Y1611174D01*
X-4235711Y1613502D01*
X-4225788Y1620132D01*
X-4219157Y1630056D01*
X-4216829Y1641761D01*
X-4219157Y1653467D01*
X-4224272Y1661121D01*
Y2668661D01*
X-4130324Y2762608D01*
X-4125307Y2770117D01*
X-4123545Y2778974D01*
Y2851520D01*
X-4118431Y2859175D01*
X-4116103Y2870880D01*
X-4118431Y2882585D01*
X-4125061Y2892509D01*
X-4134985Y2899139D01*
X-4146690Y2901468D01*
D02*
G37*
G36*
X-1725480Y1638408D02*
X-1737185Y1636079D01*
X-1747109Y1629449D01*
X-1753739Y1619525D01*
X-1756068Y1607820D01*
X-1753739Y1596115D01*
X-1747109Y1586191D01*
X-1737185Y1579561D01*
X-1725480Y1577232D01*
X-1713775Y1579561D01*
X-1703851Y1586191D01*
X-1697221Y1596115D01*
X-1694892Y1607820D01*
X-1697221Y1619525D01*
X-1703851Y1629449D01*
X-1713775Y1636079D01*
X-1725480Y1638408D01*
D02*
G37*
G36*
X-1904120D02*
X-1915825Y1636079D01*
X-1925749Y1629449D01*
X-1932379Y1619525D01*
X-1934708Y1607820D01*
X-1932379Y1596115D01*
X-1925749Y1586191D01*
X-1915825Y1579561D01*
X-1904120Y1577232D01*
X-1892415Y1579561D01*
X-1882491Y1586191D01*
X-1875861Y1596115D01*
X-1873532Y1607820D01*
X-1875861Y1619525D01*
X-1882491Y1629449D01*
X-1892415Y1636079D01*
X-1904120Y1638408D01*
D02*
G37*
G36*
X-2210650Y1583930D02*
X-2222356Y1581602D01*
X-2232279Y1574971D01*
X-2238910Y1565048D01*
X-2241238Y1553342D01*
X-2238910Y1541637D01*
X-2232279Y1531713D01*
X-2222356Y1525083D01*
X-2210650Y1522755D01*
X-2198945Y1525083D01*
X-2189022Y1531713D01*
X-2182391Y1541637D01*
X-2180063Y1553342D01*
X-2182391Y1565048D01*
X-2189022Y1574971D01*
X-2198945Y1581602D01*
X-2210650Y1583930D01*
D02*
G37*
G36*
X-5171156Y1574288D02*
X-5182861Y1571959D01*
X-5192784Y1565329D01*
X-5199415Y1555405D01*
X-5201743Y1543700D01*
X-5199415Y1531995D01*
X-5192784Y1522071D01*
X-5182861Y1515441D01*
X-5171156Y1513112D01*
X-5159450Y1515441D01*
X-5149527Y1522071D01*
X-5142896Y1531995D01*
X-5140568Y1543700D01*
X-5142896Y1555405D01*
X-5149527Y1565329D01*
X-5159450Y1571959D01*
X-5171156Y1574288D01*
D02*
G37*
G36*
X-5375236D02*
X-5386941Y1571959D01*
X-5396864Y1565329D01*
X-5403495Y1555405D01*
X-5405823Y1543700D01*
X-5403495Y1531995D01*
X-5396864Y1522071D01*
X-5386941Y1515441D01*
X-5375236Y1513112D01*
X-5363530Y1515441D01*
X-5353607Y1522071D01*
X-5346976Y1531995D01*
X-5344648Y1543700D01*
X-5346976Y1555405D01*
X-5353607Y1565329D01*
X-5363530Y1571959D01*
X-5375236Y1574288D01*
D02*
G37*
G36*
X-2380322Y1489946D02*
X-2392027Y1487618D01*
X-2401950Y1480987D01*
X-2408581Y1471064D01*
X-2410377Y1462034D01*
X-2458374Y1414037D01*
X-2471094Y1418544D01*
X-2472965Y1427810D01*
X-2469181Y1433474D01*
X-2466852Y1445179D01*
X-2469181Y1456885D01*
X-2475811Y1466808D01*
X-2485735Y1473439D01*
X-2497440Y1475767D01*
X-2509145Y1473439D01*
X-2519069Y1466808D01*
X-2525699Y1456885D01*
X-2528028Y1445179D01*
X-2525699Y1433474D01*
X-2520585Y1425819D01*
Y1351174D01*
X-2578551Y1293207D01*
X-2583569Y1285699D01*
X-2585330Y1276842D01*
Y386819D01*
X-2590445Y379164D01*
X-2592773Y367459D01*
X-2590445Y355753D01*
X-2583814Y345830D01*
X-2573891Y339199D01*
X-2562186Y336871D01*
X-2550480Y339199D01*
X-2540557Y345830D01*
X-2533926Y355753D01*
X-2531598Y367459D01*
X-2533926Y379164D01*
X-2539041Y386819D01*
Y1267255D01*
X-2489525Y1316771D01*
X-2476825Y1311511D01*
Y1138599D01*
X-2475063Y1129741D01*
X-2470046Y1122233D01*
X-2446306Y1098493D01*
Y880039D01*
X-2451421Y872384D01*
X-2453749Y860678D01*
X-2451421Y848973D01*
X-2444790Y839050D01*
X-2434867Y832419D01*
X-2423161Y830091D01*
X-2411456Y832419D01*
X-2401532Y839050D01*
X-2394902Y848973D01*
X-2392574Y860678D01*
X-2394902Y872384D01*
X-2400017Y880039D01*
Y1108080D01*
X-2401778Y1116937D01*
X-2404767Y1121411D01*
X-2401853Y1131390D01*
X-2399327Y1134938D01*
X-2394275Y1135943D01*
X-2384351Y1142574D01*
X-2377721Y1152497D01*
X-2375392Y1164203D01*
X-2377721Y1175908D01*
X-2384351Y1185832D01*
X-2394275Y1192462D01*
X-2405980Y1194790D01*
X-2417685Y1192462D01*
X-2417835Y1192362D01*
X-2430535Y1199151D01*
Y1376413D01*
X-2377645Y1429303D01*
X-2368616Y1431099D01*
X-2358693Y1437729D01*
X-2352062Y1447653D01*
X-2349734Y1459358D01*
X-2352062Y1471064D01*
X-2358693Y1480987D01*
X-2368616Y1487618D01*
X-2380322Y1489946D01*
D02*
G37*
G36*
X-1090080Y1470050D02*
X-1101785Y1467721D01*
X-1111709Y1461091D01*
X-1118339Y1451168D01*
X-1120668Y1439462D01*
X-1118339Y1427757D01*
X-1111709Y1417833D01*
X-1101785Y1411203D01*
X-1090080Y1408874D01*
X-1078375Y1411203D01*
X-1068451Y1417833D01*
X-1061821Y1427757D01*
X-1059492Y1439462D01*
X-1061821Y1451168D01*
X-1068451Y1461091D01*
X-1078375Y1467721D01*
X-1090080Y1470050D01*
D02*
G37*
G36*
X-616327Y2265067D02*
X-628032Y2262739D01*
X-637956Y2256108D01*
X-644586Y2246185D01*
X-646915Y2234479D01*
X-644586Y2222774D01*
X-637956Y2212851D01*
X-628032Y2206220D01*
X-618643Y2204352D01*
X-592241Y2177950D01*
Y1429386D01*
X-597559Y1421425D01*
X-599888Y1409720D01*
X-597559Y1398014D01*
X-590929Y1388091D01*
X-581005Y1381461D01*
X-569300Y1379132D01*
X-557595Y1381461D01*
X-547671Y1388091D01*
X-541041Y1398014D01*
X-538712Y1409720D01*
X-541041Y1421425D01*
X-546360Y1429386D01*
Y2187451D01*
X-546359Y2187453D01*
X-548106Y2196232D01*
X-553079Y2203674D01*
X-553079Y2203675D01*
X-586200Y2236795D01*
X-588068Y2246185D01*
X-594698Y2256108D01*
X-604622Y2262739D01*
X-616327Y2265067D01*
D02*
G37*
G36*
X-2365267Y1403567D02*
X-2376973Y1401239D01*
X-2386896Y1394609D01*
X-2393527Y1384685D01*
X-2395855Y1372980D01*
X-2393527Y1361274D01*
X-2386896Y1351351D01*
X-2376973Y1344720D01*
X-2365267Y1342392D01*
X-2353562Y1344720D01*
X-2343638Y1351351D01*
X-2337008Y1361274D01*
X-2334680Y1372980D01*
X-2337008Y1384685D01*
X-2343638Y1394609D01*
X-2353562Y1401239D01*
X-2365267Y1403567D01*
D02*
G37*
G36*
X-1369309Y1385085D02*
X-1381015Y1382757D01*
X-1390938Y1376126D01*
X-1397568Y1366203D01*
X-1399897Y1354497D01*
X-1397568Y1342792D01*
X-1390938Y1332869D01*
X-1381015Y1326238D01*
X-1369309Y1323910D01*
X-1357604Y1326238D01*
X-1347680Y1332869D01*
X-1341050Y1342792D01*
X-1338721Y1354497D01*
X-1341050Y1366203D01*
X-1347680Y1376126D01*
X-1357604Y1382757D01*
X-1369309Y1385085D01*
D02*
G37*
G36*
X-2373187Y1296522D02*
X-2384892Y1294193D01*
X-2394816Y1287563D01*
X-2401446Y1277639D01*
X-2403775Y1265934D01*
X-2401446Y1254229D01*
X-2394816Y1244305D01*
X-2384892Y1237675D01*
X-2373187Y1235346D01*
X-2361482Y1237675D01*
X-2351558Y1244305D01*
X-2344928Y1254229D01*
X-2342599Y1265934D01*
X-2344928Y1277639D01*
X-2351558Y1287563D01*
X-2361482Y1294193D01*
X-2373187Y1296522D01*
D02*
G37*
G36*
X-1910898Y1277523D02*
X-1922603Y1275195D01*
X-1932526Y1268564D01*
X-1939157Y1258641D01*
X-1941485Y1246936D01*
X-1939157Y1235230D01*
X-1932526Y1225307D01*
X-1922603Y1218676D01*
X-1910898Y1216348D01*
X-1899192Y1218676D01*
X-1889269Y1225307D01*
X-1882638Y1235230D01*
X-1880310Y1246936D01*
X-1882638Y1258641D01*
X-1889269Y1268564D01*
X-1899192Y1275195D01*
X-1910898Y1277523D01*
D02*
G37*
G36*
X-4013394Y1352700D02*
X-4185794D01*
Y1180300D01*
X-4013394D01*
Y1352700D01*
D02*
G37*
G36*
X-6330053Y1221846D02*
X-6341758Y1219518D01*
X-6351682Y1212888D01*
X-6358312Y1202964D01*
X-6360641Y1191259D01*
X-6358312Y1179553D01*
X-6351682Y1169630D01*
X-6341758Y1162999D01*
X-6330053Y1160671D01*
X-6318348Y1162999D01*
X-6308424Y1169630D01*
X-6301794Y1179553D01*
X-6299465Y1191259D01*
X-6301794Y1202964D01*
X-6308424Y1212888D01*
X-6318348Y1219518D01*
X-6330053Y1221846D01*
D02*
G37*
G36*
X-1343719Y1190608D02*
X-1355424Y1188279D01*
X-1365348Y1181649D01*
X-1371978Y1171725D01*
X-1374307Y1160020D01*
X-1371978Y1148315D01*
X-1365348Y1138391D01*
X-1355424Y1131761D01*
X-1343719Y1129432D01*
X-1332014Y1131761D01*
X-1322090Y1138391D01*
X-1315460Y1148315D01*
X-1313131Y1160020D01*
X-1315460Y1171725D01*
X-1322090Y1181649D01*
X-1332014Y1188279D01*
X-1343719Y1190608D01*
D02*
G37*
G36*
X-6393740Y2724728D02*
X-6405445Y2722399D01*
X-6415369Y2715769D01*
X-6421999Y2705845D01*
X-6424328Y2694140D01*
X-6421999Y2682435D01*
X-6416885Y2674780D01*
Y2523098D01*
X-6415123Y2514241D01*
X-6410106Y2506732D01*
X-6401088Y2497715D01*
X-6405269Y2483934D01*
X-6405445Y2483899D01*
X-6415369Y2477269D01*
X-6421999Y2467345D01*
X-6424328Y2455640D01*
X-6421999Y2443935D01*
X-6415369Y2434011D01*
X-6405445Y2427381D01*
X-6396416Y2425585D01*
X-6271545Y2300713D01*
Y1492618D01*
X-6269783Y1483761D01*
X-6264766Y1476252D01*
X-6232237Y1443723D01*
X-6230441Y1434694D01*
X-6223811Y1424771D01*
X-6213887Y1418140D01*
X-6202182Y1415812D01*
X-6190476Y1418140D01*
X-6180553Y1424771D01*
X-6173922Y1434694D01*
X-6171594Y1446399D01*
X-6173922Y1458105D01*
X-6180553Y1468028D01*
X-6190476Y1474659D01*
X-6199506Y1476455D01*
X-6225255Y1502205D01*
Y2297001D01*
X-6212555Y2303268D01*
X-6206509Y2298634D01*
Y1615439D01*
X-6204747Y1606581D01*
X-6199730Y1599073D01*
X-6116073Y1515416D01*
Y1137550D01*
X-6121187Y1129895D01*
X-6123516Y1118190D01*
X-6121187Y1106484D01*
X-6114557Y1096561D01*
X-6104633Y1089930D01*
X-6092928Y1087602D01*
X-6081223Y1089930D01*
X-6071299Y1096561D01*
X-6064669Y1106484D01*
X-6062340Y1118190D01*
X-6064669Y1129895D01*
X-6069783Y1137550D01*
Y1525003D01*
X-6071545Y1533860D01*
X-6076562Y1541369D01*
X-6160219Y1625025D01*
Y2312722D01*
X-6161981Y2321579D01*
X-6166998Y2329088D01*
X-6370595Y2532685D01*
Y2674780D01*
X-6365481Y2682435D01*
X-6363152Y2694140D01*
X-6365481Y2705845D01*
X-6372111Y2715769D01*
X-6382034Y2722399D01*
X-6393740Y2724728D01*
D02*
G37*
G36*
X-1139210Y1130316D02*
X-1150915Y1127987D01*
X-1160839Y1121357D01*
X-1167469Y1111433D01*
X-1169798Y1099728D01*
X-1167469Y1088023D01*
X-1160839Y1078099D01*
X-1150915Y1071469D01*
X-1139210Y1069140D01*
X-1127505Y1071469D01*
X-1117581Y1078099D01*
X-1110951Y1088023D01*
X-1108622Y1099728D01*
X-1110951Y1111433D01*
X-1117581Y1121357D01*
X-1127505Y1127987D01*
X-1139210Y1130316D01*
D02*
G37*
G36*
X-2348537Y1110503D02*
X-2360242Y1108175D01*
X-2370165Y1101544D01*
X-2376796Y1091621D01*
X-2379124Y1079916D01*
X-2376796Y1068210D01*
X-2370165Y1058287D01*
X-2360242Y1051656D01*
X-2348537Y1049328D01*
X-2336831Y1051656D01*
X-2326908Y1058287D01*
X-2320277Y1068210D01*
X-2317949Y1079916D01*
X-2320277Y1091621D01*
X-2326908Y1101544D01*
X-2336831Y1108175D01*
X-2348537Y1110503D01*
D02*
G37*
G36*
X-4666235Y1725735D02*
X-4677941Y1723407D01*
X-4687864Y1716776D01*
X-4694495Y1706853D01*
X-4696823Y1695147D01*
X-4694495Y1683442D01*
X-4687864Y1673519D01*
X-4677941Y1666888D01*
X-4673618Y1666028D01*
X-4673110Y1665521D01*
Y1067505D01*
X-4678429Y1059544D01*
X-4680757Y1047839D01*
X-4678429Y1036134D01*
X-4671799Y1026210D01*
X-4661875Y1019580D01*
X-4650170Y1017251D01*
X-4638464Y1019580D01*
X-4628541Y1026210D01*
X-4621910Y1036134D01*
X-4619582Y1047839D01*
X-4621910Y1059544D01*
X-4627229Y1067505D01*
Y1675023D01*
X-4628976Y1683802D01*
X-4633948Y1691245D01*
X-4636013Y1693309D01*
X-4635648Y1695147D01*
X-4637976Y1706853D01*
X-4644606Y1716776D01*
X-4654530Y1723407D01*
X-4666235Y1725735D01*
D02*
G37*
G36*
X-4099594Y1099444D02*
X-4122097Y1096481D01*
X-4143066Y1087796D01*
X-4161073Y1073979D01*
X-4174890Y1055972D01*
X-4183575Y1035003D01*
X-4186538Y1012500D01*
X-4183575Y989998D01*
X-4174890Y969028D01*
X-4161073Y951022D01*
X-4143066Y937205D01*
X-4122097Y928519D01*
X-4099594Y925556D01*
X-4077092Y928519D01*
X-4056122Y937205D01*
X-4038116Y951022D01*
X-4024299Y969028D01*
X-4015613Y989998D01*
X-4012651Y1012500D01*
X-4015613Y1035003D01*
X-4024299Y1055972D01*
X-4038116Y1073979D01*
X-4056122Y1087796D01*
X-4077092Y1096481D01*
X-4099594Y1099444D01*
D02*
G37*
G36*
X-691800Y2102340D02*
X-703505Y2100012D01*
X-713429Y2093382D01*
X-720059Y2083458D01*
X-722388Y2071753D01*
X-720059Y2060047D01*
X-714741Y2052087D01*
Y1114713D01*
X-712994Y1105934D01*
X-708021Y1098492D01*
X-550194Y940664D01*
X-548326Y931275D01*
X-541696Y921351D01*
X-531772Y914721D01*
X-520067Y912392D01*
X-508361Y914721D01*
X-498438Y921351D01*
X-491808Y931275D01*
X-489479Y942980D01*
X-491808Y954685D01*
X-498438Y964609D01*
X-508361Y971239D01*
X-517751Y973107D01*
X-668859Y1124216D01*
Y2052087D01*
X-663541Y2060047D01*
X-661212Y2071753D01*
X-663541Y2083458D01*
X-670171Y2093382D01*
X-680095Y2100012D01*
X-691800Y2102340D01*
D02*
G37*
G36*
X-1151356Y891266D02*
X-1163061Y888938D01*
X-1172984Y882307D01*
X-1179615Y872384D01*
X-1181943Y860678D01*
X-1179615Y848973D01*
X-1172984Y839050D01*
X-1163061Y832419D01*
X-1151356Y830091D01*
X-1139650Y832419D01*
X-1129727Y839050D01*
X-1123096Y848973D01*
X-1120768Y860678D01*
X-1123096Y872384D01*
X-1129727Y882307D01*
X-1139650Y888938D01*
X-1151356Y891266D01*
D02*
G37*
G36*
X-5987301Y993760D02*
X-6159701D01*
Y821360D01*
X-5987301D01*
Y993760D01*
D02*
G37*
G36*
X-2315040Y835123D02*
X-2326745Y832794D01*
X-2336669Y826164D01*
X-2343299Y816240D01*
X-2345628Y804535D01*
X-2343299Y792830D01*
X-2336669Y782906D01*
X-2326745Y776276D01*
X-2315040Y773947D01*
X-2303334Y776276D01*
X-2293411Y782906D01*
X-2286781Y792830D01*
X-2284452Y804535D01*
X-2286781Y816240D01*
X-2293411Y826164D01*
X-2303334Y832794D01*
X-2315040Y835123D01*
D02*
G37*
G36*
X-2475980Y799488D02*
X-2487685Y797159D01*
X-2497609Y790529D01*
X-2504239Y780606D01*
X-2506568Y768900D01*
X-2504239Y757195D01*
X-2497609Y747271D01*
X-2487685Y740641D01*
X-2475980Y738312D01*
X-2464274Y740641D01*
X-2454351Y747271D01*
X-2447721Y757195D01*
X-2445392Y768900D01*
X-2447721Y780606D01*
X-2454351Y790529D01*
X-2464274Y797159D01*
X-2475980Y799488D01*
D02*
G37*
G36*
X-5223980Y922901D02*
X-5249432Y919550D01*
X-5273150Y909726D01*
X-5293518Y894098D01*
X-5309146Y873730D01*
X-5318970Y850012D01*
X-5322321Y824560D01*
X-5318970Y799107D01*
X-5309146Y775389D01*
X-5293518Y755022D01*
X-5273150Y739394D01*
X-5249432Y729569D01*
X-5223980Y726219D01*
X-5198527Y729569D01*
X-5174809Y739394D01*
X-5154442Y755022D01*
X-5138814Y775389D01*
X-5128989Y799107D01*
X-5125639Y824560D01*
X-5128989Y850012D01*
X-5138814Y873730D01*
X-5154442Y894098D01*
X-5174809Y909726D01*
X-5198527Y919550D01*
X-5223980Y922901D01*
D02*
G37*
G36*
X-2892980Y845626D02*
X-2912167Y843100D01*
X-2930047Y835694D01*
X-2945401Y823912D01*
X-2957182Y808558D01*
X-2964588Y790679D01*
X-2967114Y771491D01*
X-2964588Y752304D01*
X-2957182Y734424D01*
X-2945401Y719071D01*
X-2930047Y707289D01*
X-2912167Y699883D01*
X-2892980Y697357D01*
X-2873793Y699883D01*
X-2855913Y707289D01*
X-2840559Y719071D01*
X-2828778Y734424D01*
X-2821372Y752304D01*
X-2818846Y771491D01*
X-2821372Y790679D01*
X-2828778Y808558D01*
X-2840559Y823912D01*
X-2855913Y835694D01*
X-2873793Y843100D01*
X-2892980Y845626D01*
D02*
G37*
G36*
X-4876817Y1722202D02*
X-4888523Y1719873D01*
X-4898446Y1713243D01*
X-4905077Y1703319D01*
X-4907405Y1691614D01*
X-4907105Y1690107D01*
X-4928366Y1668846D01*
X-4933383Y1661338D01*
X-4935145Y1652481D01*
Y743260D01*
X-4940259Y735605D01*
X-4942588Y723900D01*
X-4940259Y712195D01*
X-4933629Y702271D01*
X-4923705Y695641D01*
X-4912000Y693312D01*
X-4900295Y695641D01*
X-4890371Y702271D01*
X-4883741Y712195D01*
X-4881412Y723900D01*
X-4883741Y735605D01*
X-4888855Y743260D01*
Y1642894D01*
X-4869209Y1662540D01*
X-4865112Y1663355D01*
X-4855188Y1669985D01*
X-4848558Y1679909D01*
X-4846230Y1691614D01*
X-4848558Y1703319D01*
X-4855188Y1713243D01*
X-4865112Y1719873D01*
X-4876817Y1722202D01*
D02*
G37*
G36*
X-4099594Y845444D02*
X-4122097Y842481D01*
X-4143066Y833796D01*
X-4161073Y819979D01*
X-4174890Y801972D01*
X-4183575Y781003D01*
X-4186538Y758500D01*
X-4183575Y735998D01*
X-4174890Y715028D01*
X-4161073Y697022D01*
X-4143066Y683205D01*
X-4122097Y674519D01*
X-4099594Y671556D01*
X-4077092Y674519D01*
X-4056122Y683205D01*
X-4038116Y697022D01*
X-4024299Y715028D01*
X-4015613Y735998D01*
X-4012651Y758500D01*
X-4015613Y781003D01*
X-4024299Y801972D01*
X-4038116Y819979D01*
X-4056122Y833796D01*
X-4077092Y842481D01*
X-4099594Y845444D01*
D02*
G37*
G36*
X-6073501Y740503D02*
X-6096004Y737541D01*
X-6116973Y728855D01*
X-6134979Y715038D01*
X-6148796Y697032D01*
X-6157482Y676062D01*
X-6160445Y653560D01*
X-6157482Y631057D01*
X-6148796Y610088D01*
X-6134979Y592081D01*
X-6116973Y578264D01*
X-6096004Y569579D01*
X-6073501Y566616D01*
X-6050998Y569579D01*
X-6030029Y578264D01*
X-6012023Y592081D01*
X-5998205Y610088D01*
X-5989520Y631057D01*
X-5986557Y653560D01*
X-5989520Y676062D01*
X-5998205Y697032D01*
X-6012023Y715038D01*
X-6030029Y728855D01*
X-6050998Y737541D01*
X-6073501Y740503D01*
D02*
G37*
G36*
X-1139210Y602048D02*
X-1150915Y599720D01*
X-1160839Y593089D01*
X-1167469Y583166D01*
X-1169798Y571460D01*
X-1167469Y559755D01*
X-1160839Y549832D01*
X-1150915Y543201D01*
X-1139210Y540873D01*
X-1127505Y543201D01*
X-1117581Y549832D01*
X-1110951Y559755D01*
X-1108622Y571460D01*
X-1110951Y583166D01*
X-1117581Y593089D01*
X-1127505Y599720D01*
X-1139210Y602048D01*
D02*
G37*
G36*
X-1536461Y554348D02*
X-1548167Y552020D01*
X-1558090Y545389D01*
X-1564721Y535466D01*
X-1567049Y523760D01*
X-1564721Y512055D01*
X-1558090Y502132D01*
X-1548167Y495501D01*
X-1536461Y493173D01*
X-1524756Y495501D01*
X-1514833Y502132D01*
X-1508202Y512055D01*
X-1505874Y523760D01*
X-1508202Y535466D01*
X-1514833Y545389D01*
X-1524756Y552020D01*
X-1536461Y554348D01*
D02*
G37*
G36*
X-3550743D02*
X-3562448Y552020D01*
X-3572372Y545389D01*
X-3579002Y535466D01*
X-3581331Y523760D01*
X-3579002Y512055D01*
X-3572372Y502132D01*
X-3562448Y495501D01*
X-3550743Y493173D01*
X-3539038Y495501D01*
X-3529114Y502132D01*
X-3522484Y512055D01*
X-3520155Y523760D01*
X-3522484Y535466D01*
X-3529114Y545389D01*
X-3539038Y552020D01*
X-3550743Y554348D01*
D02*
G37*
G36*
X-5223980Y672901D02*
X-5249432Y669550D01*
X-5273150Y659726D01*
X-5293518Y644098D01*
X-5309146Y623730D01*
X-5318970Y600012D01*
X-5322321Y574560D01*
X-5318970Y549107D01*
X-5309146Y525389D01*
X-5293518Y505022D01*
X-5273150Y489394D01*
X-5249432Y479569D01*
X-5223980Y476219D01*
X-5198527Y479569D01*
X-5174809Y489394D01*
X-5154442Y505022D01*
X-5138814Y525389D01*
X-5128989Y549107D01*
X-5125639Y574560D01*
X-5128989Y600012D01*
X-5138814Y623730D01*
X-5154442Y644098D01*
X-5174809Y659726D01*
X-5198527Y669550D01*
X-5223980Y672901D01*
D02*
G37*
G36*
X-1698680Y503968D02*
X-1710386Y501639D01*
X-1720309Y495009D01*
X-1726940Y485085D01*
X-1729268Y473380D01*
X-1726940Y461675D01*
X-1720309Y451751D01*
X-1710386Y445121D01*
X-1698680Y442792D01*
X-1686975Y445121D01*
X-1677052Y451751D01*
X-1670421Y461675D01*
X-1668093Y473380D01*
X-1670421Y485085D01*
X-1677052Y495009D01*
X-1686975Y501639D01*
X-1698680Y503968D01*
D02*
G37*
G36*
X-1904120Y1143433D02*
X-1915825Y1141104D01*
X-1925749Y1134474D01*
X-1932379Y1124550D01*
X-1934708Y1112845D01*
X-1932688Y1102690D01*
X-1934076Y1095710D01*
Y230040D01*
X-1939190Y222385D01*
X-1941519Y210680D01*
X-1939190Y198975D01*
X-1932560Y189051D01*
X-1922636Y182421D01*
X-1910931Y180092D01*
X-1899226Y182421D01*
X-1889302Y189051D01*
X-1882672Y198975D01*
X-1880343Y210680D01*
X-1882672Y222385D01*
X-1887786Y230040D01*
Y438432D01*
X-1875086Y445221D01*
X-1874937Y445121D01*
X-1863231Y442792D01*
X-1851526Y445121D01*
X-1841602Y451751D01*
X-1834972Y461675D01*
X-1832644Y473380D01*
X-1834972Y485085D01*
X-1841602Y495009D01*
X-1851526Y501639D01*
X-1863231Y503968D01*
X-1874937Y501639D01*
X-1875086Y501539D01*
X-1887786Y508328D01*
Y1087495D01*
X-1887565Y1087826D01*
X-1882491Y1091216D01*
X-1875861Y1101140D01*
X-1873532Y1112845D01*
X-1875861Y1124550D01*
X-1882491Y1134474D01*
X-1892415Y1141104D01*
X-1904120Y1143433D01*
D02*
G37*
G36*
X-4730541Y1551080D02*
X-4742246Y1548752D01*
X-4752170Y1542121D01*
X-4758800Y1532198D01*
X-4761129Y1520493D01*
X-4758800Y1508787D01*
X-4753686Y1501132D01*
Y744221D01*
X-4751924Y735364D01*
X-4746907Y727855D01*
X-4671643Y652592D01*
X-4679812Y632869D01*
X-4682734Y610680D01*
X-4679812Y588491D01*
X-4671247Y567813D01*
X-4657623Y550057D01*
X-4639867Y536433D01*
X-4619190Y527868D01*
X-4597000Y524947D01*
X-4547000D01*
X-4524810Y527868D01*
X-4504133Y536433D01*
X-4486377Y550057D01*
X-4472753Y567813D01*
X-4470145Y574109D01*
X-4457445Y571583D01*
Y482967D01*
X-4505089Y435323D01*
X-4524810Y443492D01*
X-4547000Y446413D01*
X-4597000D01*
X-4619190Y443492D01*
X-4639867Y434927D01*
X-4657623Y421303D01*
X-4671247Y403547D01*
X-4679812Y382869D01*
X-4682734Y360680D01*
X-4679812Y338491D01*
X-4671247Y317813D01*
X-4657623Y300057D01*
X-4639867Y286433D01*
X-4619190Y277868D01*
X-4597000Y274947D01*
X-4547000D01*
X-4524810Y277868D01*
X-4504133Y286433D01*
X-4486377Y300057D01*
X-4472753Y317813D01*
X-4464188Y338491D01*
X-4461266Y360680D01*
X-4464188Y382869D01*
X-4472357Y402592D01*
X-4417934Y457014D01*
X-4412917Y464523D01*
X-4411155Y473380D01*
Y1327639D01*
X-4412917Y1336496D01*
X-4417934Y1344004D01*
X-4475306Y1401376D01*
X-4477102Y1410405D01*
X-4483732Y1420328D01*
X-4493655Y1426959D01*
X-4505361Y1429287D01*
X-4517066Y1426959D01*
X-4526990Y1420328D01*
X-4533620Y1410405D01*
X-4535949Y1398700D01*
X-4533620Y1386994D01*
X-4526990Y1377071D01*
X-4517066Y1370440D01*
X-4508037Y1368644D01*
X-4457445Y1318052D01*
Y649777D01*
X-4470145Y647251D01*
X-4472753Y653547D01*
X-4486377Y671303D01*
X-4504133Y684927D01*
X-4524810Y693492D01*
X-4547000Y696413D01*
X-4597000D01*
X-4619190Y693492D01*
X-4638911Y685323D01*
X-4707396Y753808D01*
Y1501132D01*
X-4702282Y1508787D01*
X-4699953Y1520493D01*
X-4702282Y1532198D01*
X-4708912Y1542121D01*
X-4718836Y1548752D01*
X-4730541Y1551080D01*
D02*
G37*
G36*
X-4099594Y591444D02*
X-4122097Y588481D01*
X-4143066Y579796D01*
X-4161073Y565979D01*
X-4174890Y547972D01*
X-4183575Y527003D01*
X-4186538Y504500D01*
X-4183575Y481998D01*
X-4174890Y461028D01*
X-4161073Y443022D01*
X-4143066Y429205D01*
X-4122097Y420519D01*
X-4099594Y417556D01*
X-4077092Y420519D01*
X-4056122Y429205D01*
X-4038116Y443022D01*
X-4024299Y461028D01*
X-4015613Y481998D01*
X-4012651Y504500D01*
X-4015613Y527003D01*
X-4024299Y547972D01*
X-4038116Y565979D01*
X-4056122Y579796D01*
X-4077092Y588481D01*
X-4099594Y591444D01*
D02*
G37*
G36*
X-3739006Y467286D02*
X-3750711Y464958D01*
X-3760635Y458327D01*
X-3767265Y448404D01*
X-3769593Y436698D01*
X-3767265Y424993D01*
X-3760635Y415070D01*
X-3750711Y408439D01*
X-3739006Y406111D01*
X-3727300Y408439D01*
X-3717377Y415070D01*
X-3710746Y424993D01*
X-3708418Y436698D01*
X-3710746Y448404D01*
X-3717377Y458327D01*
X-3727300Y464958D01*
X-3739006Y467286D01*
D02*
G37*
G36*
X-928460Y379747D02*
X-940165Y377418D01*
X-950089Y370788D01*
X-956719Y360864D01*
X-959048Y349159D01*
X-956719Y337453D01*
X-950089Y327530D01*
X-940165Y320900D01*
X-928460Y318571D01*
X-916755Y320900D01*
X-906831Y327530D01*
X-900201Y337453D01*
X-897872Y349159D01*
X-900201Y360864D01*
X-906831Y370788D01*
X-916755Y377418D01*
X-928460Y379747D01*
D02*
G37*
G36*
X-1048380Y291716D02*
X-1060085Y289387D01*
X-1070009Y282757D01*
X-1076639Y272833D01*
X-1078968Y261128D01*
X-1076639Y249423D01*
X-1070009Y239499D01*
X-1060085Y232869D01*
X-1048380Y230540D01*
X-1036675Y232869D01*
X-1026751Y239499D01*
X-1020121Y249423D01*
X-1017792Y261128D01*
X-1020121Y272833D01*
X-1026751Y282757D01*
X-1036675Y289387D01*
X-1048380Y291716D01*
D02*
G37*
G36*
X-5126480Y422060D02*
X-5321480D01*
Y227060D01*
X-5126480D01*
Y422060D01*
D02*
G37*
G36*
X-6121400Y328134D02*
X-6140587Y325608D01*
X-6158467Y318202D01*
X-6173821Y306421D01*
X-6185602Y291067D01*
X-6191545Y276720D01*
X-6243342Y224923D01*
X-6254108Y232117D01*
X-6252992Y234813D01*
X-6250466Y254000D01*
X-6252992Y273187D01*
X-6260398Y291067D01*
X-6272179Y306421D01*
X-6287533Y318202D01*
X-6305413Y325608D01*
X-6324600Y328134D01*
X-6343787Y325608D01*
X-6361667Y318202D01*
X-6377021Y306421D01*
X-6388802Y291067D01*
X-6396208Y273187D01*
X-6396857Y268258D01*
X-6609173Y55942D01*
X-6621202Y61874D01*
X-6620729Y65463D01*
X-6623255Y84651D01*
X-6630661Y102530D01*
X-6642443Y117884D01*
X-6657796Y129665D01*
X-6675676Y137071D01*
X-6694863Y139597D01*
X-6714051Y137071D01*
X-6731930Y129665D01*
X-6747284Y117884D01*
X-6759065Y102530D01*
X-6766472Y84651D01*
X-6768998Y65463D01*
X-6766472Y46276D01*
X-6759065Y28396D01*
X-6747284Y13042D01*
X-6731930Y1261D01*
X-6714051Y-6145D01*
X-6694863Y-8671D01*
X-6691274Y-8199D01*
X-6685342Y-20227D01*
X-7113558Y-448443D01*
X-7118487Y-449092D01*
X-7136367Y-456498D01*
X-7151721Y-468279D01*
X-7163502Y-483633D01*
X-7170908Y-501513D01*
X-7173434Y-520700D01*
X-7170908Y-539887D01*
X-7163502Y-557767D01*
X-7151721Y-573121D01*
X-7136367Y-584902D01*
X-7118487Y-592308D01*
X-7099300Y-594834D01*
X-7080113Y-592308D01*
X-7062233Y-584902D01*
X-7046879Y-573121D01*
X-7035098Y-557767D01*
X-7027692Y-539887D01*
X-7027043Y-534958D01*
X-6891560Y-399475D01*
X-6879532Y-405407D01*
X-6881334Y-419100D01*
X-6878808Y-438287D01*
X-6871402Y-456167D01*
X-6859621Y-471521D01*
X-6844267Y-483302D01*
X-6826387Y-490708D01*
X-6807200Y-493234D01*
X-6788013Y-490708D01*
X-6770133Y-483302D01*
X-6754779Y-471521D01*
X-6742998Y-456167D01*
X-6737055Y-441820D01*
X-6114455Y180780D01*
X-6102213Y182392D01*
X-6084333Y189798D01*
X-6068979Y201579D01*
X-6057198Y216933D01*
X-6049792Y234813D01*
X-6047266Y254000D01*
X-6049792Y273187D01*
X-6057198Y291067D01*
X-6068979Y306421D01*
X-6084333Y318202D01*
X-6102213Y325608D01*
X-6121400Y328134D01*
D02*
G37*
G36*
X-297180Y271888D02*
X-308885Y269559D01*
X-318809Y262929D01*
X-325439Y253005D01*
X-327768Y241300D01*
X-325439Y229595D01*
X-318809Y219671D01*
X-308885Y213041D01*
X-297180Y210712D01*
X-285475Y213041D01*
X-275551Y219671D01*
X-268921Y229595D01*
X-266592Y241300D01*
X-268921Y253005D01*
X-275551Y262929D01*
X-285475Y269559D01*
X-297180Y271888D01*
D02*
G37*
G36*
X-4099594Y337444D02*
X-4122097Y334481D01*
X-4143066Y325796D01*
X-4161073Y311979D01*
X-4174890Y293972D01*
X-4183575Y273003D01*
X-4186538Y250500D01*
X-4183575Y227998D01*
X-4174890Y207028D01*
X-4161073Y189022D01*
X-4143066Y175205D01*
X-4122097Y166519D01*
X-4099594Y163556D01*
X-4077092Y166519D01*
X-4056122Y175205D01*
X-4038116Y189022D01*
X-4024299Y207028D01*
X-4015613Y227998D01*
X-4012651Y250500D01*
X-4015613Y273003D01*
X-4024299Y293972D01*
X-4038116Y311979D01*
X-4056122Y325796D01*
X-4077092Y334481D01*
X-4099594Y337444D01*
D02*
G37*
G36*
X-4462000Y195680D02*
X-4682000D01*
Y25680D01*
X-4462000D01*
Y195680D01*
D02*
G37*
G36*
X-3550743Y70917D02*
X-3562448Y68589D01*
X-3572372Y61958D01*
X-3579002Y52035D01*
X-3581331Y40329D01*
X-3579002Y28624D01*
X-3572372Y18700D01*
X-3562448Y12070D01*
X-3550743Y9742D01*
X-3539038Y12070D01*
X-3529114Y18700D01*
X-3522484Y28624D01*
X-3520155Y40329D01*
X-3522484Y52035D01*
X-3529114Y61958D01*
X-3539038Y68589D01*
X-3550743Y70917D01*
D02*
G37*
G36*
X-3737823Y66268D02*
X-3749528Y63939D01*
X-3759452Y57309D01*
X-3766082Y47385D01*
X-3768411Y35680D01*
X-3766082Y23975D01*
X-3759452Y14051D01*
X-3749528Y7421D01*
X-3737823Y5092D01*
X-3726118Y7421D01*
X-3716194Y14051D01*
X-3709564Y23975D01*
X-3707235Y35680D01*
X-3709564Y47385D01*
X-3716194Y57309D01*
X-3726118Y63939D01*
X-3737823Y66268D01*
D02*
G37*
G36*
X-6896100Y137634D02*
X-6915287Y135108D01*
X-6933167Y127702D01*
X-6948521Y115921D01*
X-6960302Y100567D01*
X-6967708Y82687D01*
X-6970234Y63500D01*
X-6967708Y44313D01*
X-6960302Y26433D01*
X-6948521Y11079D01*
X-6933167Y-702D01*
X-6915287Y-8108D01*
X-6896100Y-10634D01*
X-6876913Y-8108D01*
X-6859033Y-702D01*
X-6843679Y11079D01*
X-6831898Y26433D01*
X-6824492Y44313D01*
X-6821966Y63500D01*
X-6824492Y82687D01*
X-6831898Y100567D01*
X-6843679Y115921D01*
X-6859033Y127702D01*
X-6876913Y135108D01*
X-6896100Y137634D01*
D02*
G37*
G36*
X-7099300D02*
X-7118487Y135108D01*
X-7136367Y127702D01*
X-7151721Y115921D01*
X-7163502Y100567D01*
X-7170908Y82687D01*
X-7173434Y63500D01*
X-7170908Y44313D01*
X-7163502Y26433D01*
X-7151721Y11079D01*
X-7136367Y-702D01*
X-7118487Y-8108D01*
X-7099300Y-10634D01*
X-7080113Y-8108D01*
X-7062233Y-702D01*
X-7046879Y11079D01*
X-7035098Y26433D01*
X-7027692Y44313D01*
X-7025166Y63500D01*
X-7027692Y82687D01*
X-7035098Y100567D01*
X-7046879Y115921D01*
X-7062233Y127702D01*
X-7080113Y135108D01*
X-7099300Y137634D01*
D02*
G37*
G36*
X-7302500D02*
X-7321687Y135108D01*
X-7339567Y127702D01*
X-7354921Y115921D01*
X-7366702Y100567D01*
X-7374108Y82687D01*
X-7376634Y63500D01*
X-7374108Y44313D01*
X-7366702Y26433D01*
X-7354921Y11079D01*
X-7339567Y-702D01*
X-7321687Y-8108D01*
X-7302500Y-10634D01*
X-7283313Y-8108D01*
X-7265433Y-702D01*
X-7250079Y11079D01*
X-7238298Y26433D01*
X-7230892Y44313D01*
X-7228366Y63500D01*
X-7230892Y82687D01*
X-7238298Y100567D01*
X-7250079Y115921D01*
X-7265433Y127702D01*
X-7283313Y135108D01*
X-7302500Y137634D01*
D02*
G37*
G36*
X-4099594Y83444D02*
X-4122097Y80481D01*
X-4143066Y71796D01*
X-4161073Y57979D01*
X-4174890Y39972D01*
X-4183575Y19003D01*
X-4186538Y-3500D01*
X-4183575Y-26002D01*
X-4174890Y-46972D01*
X-4161073Y-64978D01*
X-4143066Y-78795D01*
X-4122097Y-87481D01*
X-4099594Y-90444D01*
X-4077092Y-87481D01*
X-4056122Y-78795D01*
X-4038116Y-64978D01*
X-4024299Y-46972D01*
X-4015613Y-26002D01*
X-4012651Y-3500D01*
X-4015613Y19003D01*
X-4024299Y39972D01*
X-4038116Y57979D01*
X-4056122Y71796D01*
X-4077092Y80481D01*
X-4099594Y83444D01*
D02*
G37*
G36*
X-5994400Y218584D02*
X-6010007Y215479D01*
X-6023238Y206638D01*
X-6032079Y193407D01*
X-6035184Y177800D01*
X-6032079Y162193D01*
X-6023238Y148962D01*
X-6010007Y140121D01*
X-5994400Y137016D01*
X-5978793Y140121D01*
X-5965562Y148962D01*
X-5961621Y154859D01*
X-5749902D01*
X-5713994Y118951D01*
X-5714160Y116944D01*
X-5718996Y105993D01*
X-5726705Y104459D01*
X-5736629Y97829D01*
X-5743259Y87905D01*
X-5745588Y76200D01*
X-5743259Y64495D01*
X-5737941Y56534D01*
Y-932834D01*
X-5743259Y-940795D01*
X-5745588Y-952500D01*
X-5743259Y-964205D01*
X-5736629Y-974129D01*
X-5726705Y-980759D01*
X-5715000Y-983088D01*
X-5703295Y-980759D01*
X-5693371Y-974129D01*
X-5686741Y-964205D01*
X-5684412Y-952500D01*
X-5686741Y-940795D01*
X-5692059Y-932834D01*
Y-72463D01*
X-5683821Y-68611D01*
X-5679359Y-68083D01*
X-5616922Y-130521D01*
X-5616921Y-130521D01*
X-5609479Y-135494D01*
X-5600700Y-137241D01*
X-5091059D01*
X-5090731Y-137731D01*
X-5079981Y-144914D01*
X-5067300Y-147437D01*
X-5054619Y-144914D01*
X-5043869Y-137731D01*
X-5036686Y-126981D01*
X-5034163Y-114300D01*
X-5036686Y-101619D01*
X-5043869Y-90869D01*
X-5054619Y-83686D01*
X-5067300Y-81163D01*
X-5079981Y-83686D01*
X-5090731Y-90869D01*
X-5091059Y-91359D01*
X-5591198D01*
X-5641259Y-41298D01*
Y101599D01*
X-5641259Y101600D01*
X-5643006Y110379D01*
X-5647979Y117822D01*
X-5724178Y194021D01*
X-5731621Y198994D01*
X-5740400Y200741D01*
X-5961621D01*
X-5965562Y206638D01*
X-5978793Y215479D01*
X-5994400Y218584D01*
D02*
G37*
G36*
X-3415743Y1171225D02*
X-3427448Y1168897D01*
X-3437372Y1162266D01*
X-3444002Y1152343D01*
X-3446331Y1140637D01*
X-3444002Y1128932D01*
X-3437372Y1119008D01*
X-3427448Y1112378D01*
X-3418419Y1110582D01*
X-3347964Y1040126D01*
Y334319D01*
X-3353078Y326664D01*
X-3355407Y314959D01*
X-3353078Y303253D01*
X-3346448Y293330D01*
X-3336524Y286699D01*
X-3324819Y284371D01*
X-3313114Y286699D01*
X-3303190Y293330D01*
X-3296560Y303253D01*
X-3294231Y314959D01*
X-3296560Y326664D01*
X-3301674Y334319D01*
Y1049713D01*
X-3302957Y1056162D01*
X-3295952Y1062041D01*
X-3292483Y1063649D01*
X-3254025Y1025191D01*
Y-175833D01*
X-3259717Y-181526D01*
X-3277097D01*
X-3284752Y-176411D01*
X-3296457Y-174083D01*
X-3308163Y-176411D01*
X-3318086Y-183042D01*
X-3324716Y-192965D01*
X-3327045Y-204671D01*
X-3324716Y-216376D01*
X-3318086Y-226300D01*
X-3308163Y-232930D01*
X-3296457Y-235258D01*
X-3284752Y-232930D01*
X-3277097Y-227815D01*
X-3250131D01*
X-3241273Y-226054D01*
X-3233765Y-221036D01*
X-3214514Y-201786D01*
X-3209497Y-194277D01*
X-3207735Y-185420D01*
Y1034778D01*
X-3209497Y1043635D01*
X-3214514Y1051143D01*
X-3266402Y1103031D01*
X-3268198Y1112060D01*
X-3274828Y1121984D01*
X-3284752Y1128614D01*
X-3296457Y1130943D01*
X-3308163Y1128614D01*
X-3318086Y1121984D01*
X-3324716Y1112060D01*
X-3326667Y1102254D01*
X-3332750Y1098767D01*
X-3339315Y1096941D01*
X-3385688Y1143313D01*
X-3387484Y1152343D01*
X-3394114Y1162266D01*
X-3404038Y1168897D01*
X-3415743Y1171225D01*
D02*
G37*
G36*
X-2210650Y1130943D02*
X-2222356Y1128614D01*
X-2232279Y1121984D01*
X-2238910Y1112060D01*
X-2241238Y1100355D01*
X-2238910Y1088650D01*
X-2233795Y1080995D01*
Y771491D01*
X-2232033Y762634D01*
X-2228522Y757379D01*
Y-130726D01*
X-2229642Y-131474D01*
X-2236273Y-141398D01*
X-2238601Y-153103D01*
X-2236273Y-164809D01*
X-2229642Y-174732D01*
X-2219719Y-181363D01*
X-2208014Y-183691D01*
X-2196308Y-181363D01*
X-2186385Y-174732D01*
X-2179754Y-164809D01*
X-2177426Y-153103D01*
X-2179754Y-141398D01*
X-2182232Y-137689D01*
Y766218D01*
X-2183994Y775075D01*
X-2187506Y780331D01*
Y1080995D01*
X-2182391Y1088650D01*
X-2180063Y1100355D01*
X-2182391Y1112060D01*
X-2189022Y1121984D01*
X-2198945Y1128614D01*
X-2210650Y1130943D01*
D02*
G37*
G36*
X-6108700Y-236112D02*
X-6120405Y-238441D01*
X-6128060Y-243555D01*
X-6197600D01*
X-6206457Y-245317D01*
X-6213966Y-250334D01*
X-6219682Y-256050D01*
X-6224583Y-255657D01*
X-6234341Y-252749D01*
X-6239471Y-245071D01*
X-6249395Y-238441D01*
X-6261100Y-236112D01*
X-6272805Y-238441D01*
X-6282729Y-245071D01*
X-6289359Y-254995D01*
X-6291688Y-266700D01*
X-6289359Y-278405D01*
X-6288497Y-279696D01*
X-6295286Y-292396D01*
X-6344380D01*
X-6352035Y-287281D01*
X-6363740Y-284953D01*
X-6375445Y-287281D01*
X-6385369Y-293912D01*
X-6391999Y-303835D01*
X-6394328Y-315540D01*
X-6391999Y-327246D01*
X-6385369Y-337169D01*
X-6375445Y-343800D01*
X-6363740Y-346128D01*
X-6352035Y-343800D01*
X-6344380Y-338685D01*
X-6291896D01*
X-6285879Y-351385D01*
X-6289359Y-356595D01*
X-6291688Y-368300D01*
X-6289359Y-380005D01*
X-6282729Y-389929D01*
X-6272805Y-396559D01*
X-6261100Y-398888D01*
X-6249395Y-396559D01*
X-6239471Y-389929D01*
X-6232841Y-380005D01*
X-6230512Y-368300D01*
X-6232841Y-356595D01*
X-6237362Y-349828D01*
X-6237495Y-342050D01*
X-6234392Y-334791D01*
X-6230075Y-331906D01*
X-6188013Y-289845D01*
X-6128060D01*
X-6120405Y-294959D01*
X-6108700Y-297288D01*
X-6096995Y-294959D01*
X-6087071Y-288329D01*
X-6080441Y-278405D01*
X-6078112Y-266700D01*
X-6080441Y-254995D01*
X-6087071Y-245071D01*
X-6096995Y-238441D01*
X-6108700Y-236112D01*
D02*
G37*
G36*
X-1451461Y1424088D02*
X-1463167Y1421759D01*
X-1473090Y1415129D01*
X-1479721Y1405205D01*
X-1482049Y1393500D01*
X-1481749Y1391993D01*
X-1482866Y1390877D01*
X-1487883Y1383368D01*
X-1489645Y1374511D01*
Y-314640D01*
X-1494759Y-322295D01*
X-1497088Y-334000D01*
X-1494759Y-345705D01*
X-1488129Y-355629D01*
X-1478205Y-362259D01*
X-1466500Y-364588D01*
X-1454795Y-362259D01*
X-1444871Y-355629D01*
X-1438241Y-345705D01*
X-1435912Y-334000D01*
X-1438241Y-322295D01*
X-1443355Y-314640D01*
Y1364525D01*
X-1439756Y1365241D01*
X-1429833Y1371871D01*
X-1423202Y1381795D01*
X-1420874Y1393500D01*
X-1423202Y1405205D01*
X-1429833Y1415129D01*
X-1439756Y1421759D01*
X-1451461Y1424088D01*
D02*
G37*
G36*
X-7099300Y-217966D02*
X-7118487Y-220492D01*
X-7136367Y-227898D01*
X-7151721Y-239679D01*
X-7163502Y-255033D01*
X-7170908Y-272913D01*
X-7173434Y-292100D01*
X-7170908Y-311287D01*
X-7163502Y-329167D01*
X-7151721Y-344521D01*
X-7136367Y-356302D01*
X-7118487Y-363708D01*
X-7099300Y-366234D01*
X-7080113Y-363708D01*
X-7062233Y-356302D01*
X-7046879Y-344521D01*
X-7035098Y-329167D01*
X-7027692Y-311287D01*
X-7025166Y-292100D01*
X-7027692Y-272913D01*
X-7035098Y-255033D01*
X-7046879Y-239679D01*
X-7062233Y-227898D01*
X-7080113Y-220492D01*
X-7099300Y-217966D01*
D02*
G37*
G36*
X-7302500D02*
X-7321687Y-220492D01*
X-7339567Y-227898D01*
X-7354921Y-239679D01*
X-7366702Y-255033D01*
X-7374108Y-272913D01*
X-7376634Y-292100D01*
X-7374108Y-311287D01*
X-7366702Y-329167D01*
X-7354921Y-344521D01*
X-7339567Y-356302D01*
X-7321687Y-363708D01*
X-7302500Y-366234D01*
X-7283313Y-363708D01*
X-7265433Y-356302D01*
X-7250079Y-344521D01*
X-7238298Y-329167D01*
X-7230892Y-311287D01*
X-7228366Y-292100D01*
X-7230892Y-272913D01*
X-7238298Y-255033D01*
X-7250079Y-239679D01*
X-7265433Y-227898D01*
X-7283313Y-220492D01*
X-7302500Y-217966D01*
D02*
G37*
G36*
X-6146800Y-426612D02*
X-6158505Y-428941D01*
X-6168429Y-435571D01*
X-6175059Y-445495D01*
X-6177388Y-457200D01*
X-6175059Y-468905D01*
X-6168429Y-478829D01*
X-6158505Y-485459D01*
X-6146800Y-487788D01*
X-6135095Y-485459D01*
X-6125171Y-478829D01*
X-6118541Y-468905D01*
X-6116212Y-457200D01*
X-6118541Y-445495D01*
X-6125171Y-435571D01*
X-6135095Y-428941D01*
X-6146800Y-426612D01*
D02*
G37*
G36*
X-6261100D02*
X-6272805Y-428941D01*
X-6282729Y-435571D01*
X-6289359Y-445495D01*
X-6291688Y-457200D01*
X-6289359Y-468905D01*
X-6282729Y-478829D01*
X-6272805Y-485459D01*
X-6261100Y-487788D01*
X-6249395Y-485459D01*
X-6239471Y-478829D01*
X-6232841Y-468905D01*
X-6230512Y-457200D01*
X-6232841Y-445495D01*
X-6239471Y-435571D01*
X-6249395Y-428941D01*
X-6261100Y-426612D01*
D02*
G37*
G36*
X-6146800Y-515512D02*
X-6158505Y-517841D01*
X-6168429Y-524471D01*
X-6175059Y-534395D01*
X-6177388Y-546100D01*
X-6175059Y-557805D01*
X-6168429Y-567729D01*
X-6158505Y-574359D01*
X-6146800Y-576688D01*
X-6135095Y-574359D01*
X-6125171Y-567729D01*
X-6118541Y-557805D01*
X-6116212Y-546100D01*
X-6118541Y-534395D01*
X-6125171Y-524471D01*
X-6135095Y-517841D01*
X-6146800Y-515512D01*
D02*
G37*
G36*
X-6261100D02*
X-6272805Y-517841D01*
X-6282729Y-524471D01*
X-6289359Y-534395D01*
X-6291688Y-546100D01*
X-6289359Y-557805D01*
X-6282729Y-567729D01*
X-6272805Y-574359D01*
X-6261100Y-576688D01*
X-6249395Y-574359D01*
X-6239471Y-567729D01*
X-6232841Y-557805D01*
X-6230512Y-546100D01*
X-6232841Y-534395D01*
X-6239471Y-524471D01*
X-6249395Y-517841D01*
X-6261100Y-515512D01*
D02*
G37*
G36*
X-6146800Y-604412D02*
X-6158505Y-606741D01*
X-6168429Y-613371D01*
X-6175059Y-623295D01*
X-6177388Y-635000D01*
X-6175059Y-646705D01*
X-6168429Y-656629D01*
X-6158505Y-663259D01*
X-6146800Y-665588D01*
X-6135095Y-663259D01*
X-6125171Y-656629D01*
X-6118541Y-646705D01*
X-6116212Y-635000D01*
X-6118541Y-623295D01*
X-6125171Y-613371D01*
X-6135095Y-606741D01*
X-6146800Y-604412D01*
D02*
G37*
G36*
X-6261100D02*
X-6272805Y-606741D01*
X-6282729Y-613371D01*
X-6289359Y-623295D01*
X-6291688Y-635000D01*
X-6289359Y-646705D01*
X-6282729Y-656629D01*
X-6272805Y-663259D01*
X-6261100Y-665588D01*
X-6249395Y-663259D01*
X-6239471Y-656629D01*
X-6232841Y-646705D01*
X-6230512Y-635000D01*
X-6232841Y-623295D01*
X-6239471Y-613371D01*
X-6249395Y-606741D01*
X-6261100Y-604412D01*
D02*
G37*
G36*
X-5067300Y-655212D02*
X-5079005Y-657541D01*
X-5088929Y-664171D01*
X-5095559Y-674095D01*
X-5097888Y-685800D01*
X-5095559Y-697505D01*
X-5088929Y-707429D01*
X-5079005Y-714059D01*
X-5067300Y-716388D01*
X-5055595Y-714059D01*
X-5045671Y-707429D01*
X-5039041Y-697505D01*
X-5036712Y-685800D01*
X-5039041Y-674095D01*
X-5045671Y-664171D01*
X-5055595Y-657541D01*
X-5067300Y-655212D01*
D02*
G37*
G36*
X-6146800Y-693312D02*
X-6158505Y-695641D01*
X-6168429Y-702271D01*
X-6175059Y-712195D01*
X-6177388Y-723900D01*
X-6175059Y-735605D01*
X-6168429Y-745529D01*
X-6158505Y-752159D01*
X-6146800Y-754488D01*
X-6135095Y-752159D01*
X-6125171Y-745529D01*
X-6118541Y-735605D01*
X-6116212Y-723900D01*
X-6118541Y-712195D01*
X-6125171Y-702271D01*
X-6135095Y-695641D01*
X-6146800Y-693312D01*
D02*
G37*
G36*
X-6261100D02*
X-6272805Y-695641D01*
X-6282729Y-702271D01*
X-6289359Y-712195D01*
X-6291688Y-723900D01*
X-6289359Y-735605D01*
X-6282729Y-745529D01*
X-6272805Y-752159D01*
X-6261100Y-754488D01*
X-6249395Y-752159D01*
X-6239471Y-745529D01*
X-6232841Y-735605D01*
X-6230512Y-723900D01*
X-6232841Y-712195D01*
X-6239471Y-702271D01*
X-6249395Y-695641D01*
X-6261100Y-693312D01*
D02*
G37*
G36*
X-6146800Y-782212D02*
X-6158505Y-784541D01*
X-6168429Y-791171D01*
X-6175059Y-801095D01*
X-6177388Y-812800D01*
X-6175059Y-824505D01*
X-6168429Y-834429D01*
X-6158505Y-841059D01*
X-6146800Y-843388D01*
X-6135095Y-841059D01*
X-6125171Y-834429D01*
X-6118541Y-824505D01*
X-6116212Y-812800D01*
X-6118541Y-801095D01*
X-6125171Y-791171D01*
X-6135095Y-784541D01*
X-6146800Y-782212D01*
D02*
G37*
G36*
X-6261100D02*
X-6272805Y-784541D01*
X-6282729Y-791171D01*
X-6289359Y-801095D01*
X-6291688Y-812800D01*
X-6289359Y-824505D01*
X-6282729Y-834429D01*
X-6272805Y-841059D01*
X-6261100Y-843388D01*
X-6249395Y-841059D01*
X-6239471Y-834429D01*
X-6232841Y-824505D01*
X-6230512Y-812800D01*
X-6232841Y-801095D01*
X-6239471Y-791171D01*
X-6249395Y-784541D01*
X-6261100Y-782212D01*
D02*
G37*
G36*
X-6146800Y-883812D02*
X-6158505Y-886141D01*
X-6168429Y-892771D01*
X-6175059Y-902695D01*
X-6177388Y-914400D01*
X-6175059Y-926105D01*
X-6168429Y-936029D01*
X-6158505Y-942659D01*
X-6146800Y-944988D01*
X-6135095Y-942659D01*
X-6125171Y-936029D01*
X-6118541Y-926105D01*
X-6116212Y-914400D01*
X-6118541Y-902695D01*
X-6125171Y-892771D01*
X-6135095Y-886141D01*
X-6146800Y-883812D01*
D02*
G37*
G36*
X-6261100D02*
X-6272805Y-886141D01*
X-6282729Y-892771D01*
X-6289359Y-902695D01*
X-6291688Y-914400D01*
X-6289359Y-926105D01*
X-6282729Y-936029D01*
X-6272805Y-942659D01*
X-6261100Y-944988D01*
X-6249395Y-942659D01*
X-6239471Y-936029D01*
X-6232841Y-926105D01*
X-6230512Y-914400D01*
X-6232841Y-902695D01*
X-6239471Y-892771D01*
X-6249395Y-886141D01*
X-6261100Y-883812D01*
D02*
G37*
G36*
Y-985412D02*
X-6272805Y-987741D01*
X-6282729Y-994371D01*
X-6289359Y-1004295D01*
X-6291688Y-1016000D01*
X-6289359Y-1027705D01*
X-6282729Y-1037629D01*
X-6272805Y-1044259D01*
X-6261100Y-1046588D01*
X-6249395Y-1044259D01*
X-6239471Y-1037629D01*
X-6232841Y-1027705D01*
X-6230512Y-1016000D01*
X-6232841Y-1004295D01*
X-6239471Y-994371D01*
X-6249395Y-987741D01*
X-6261100Y-985412D01*
D02*
G37*
G36*
X-7331900Y-779512D02*
X-7367186Y-782988D01*
X-7401116Y-793280D01*
X-7432386Y-809995D01*
X-7459795Y-832488D01*
X-7482289Y-859897D01*
X-7499003Y-891167D01*
X-7509295Y-925097D01*
X-7512771Y-960383D01*
X-7509295Y-995669D01*
X-7499003Y-1029599D01*
X-7482289Y-1060870D01*
X-7459795Y-1088278D01*
X-7432386Y-1110772D01*
X-7401116Y-1127486D01*
X-7367186Y-1137779D01*
X-7331900Y-1141254D01*
X-7296614Y-1137779D01*
X-7262684Y-1127486D01*
X-7231414Y-1110772D01*
X-7204005Y-1088278D01*
X-7181511Y-1060870D01*
X-7164797Y-1029599D01*
X-7154505Y-995669D01*
X-7151029Y-960383D01*
X-7154505Y-925097D01*
X-7164797Y-891167D01*
X-7181511Y-859897D01*
X-7204005Y-832488D01*
X-7231414Y-809995D01*
X-7262684Y-793280D01*
X-7296614Y-782988D01*
X-7331900Y-779512D01*
D02*
G37*
G36*
X-437460Y-782052D02*
X-472746Y-785528D01*
X-506676Y-795820D01*
X-537946Y-812535D01*
X-565355Y-835028D01*
X-587848Y-862437D01*
X-604563Y-893707D01*
X-614855Y-927637D01*
X-618331Y-962923D01*
X-614855Y-998209D01*
X-604563Y-1032139D01*
X-587848Y-1063410D01*
X-565355Y-1090818D01*
X-537946Y-1113312D01*
X-506676Y-1130026D01*
X-472746Y-1140319D01*
X-437460Y-1143794D01*
X-402174Y-1140319D01*
X-368244Y-1130026D01*
X-336973Y-1113312D01*
X-309565Y-1090818D01*
X-287071Y-1063410D01*
X-270357Y-1032139D01*
X-260065Y-998209D01*
X-256589Y-962923D01*
X-260065Y-927637D01*
X-270357Y-893707D01*
X-287071Y-862437D01*
X-309565Y-835028D01*
X-336973Y-812535D01*
X-368244Y-795820D01*
X-402174Y-785528D01*
X-437460Y-782052D01*
D02*
G37*
%LPD*%
D49*
X-1246984Y1770536D02*
Y2916001D01*
X-1409700Y1607820D02*
X-1246984Y1770536D01*
X-1169144Y2021955D02*
X-1160644Y2013455D01*
X-1169144Y2021955D02*
Y2646361D01*
X-1381462Y1483300D02*
X-1203144Y1661617D01*
Y2797923D01*
X-1160644Y1780001D02*
Y2013455D01*
X-4666235Y1691089D02*
X-4650170Y1675023D01*
X-4666235Y1691089D02*
Y1695147D01*
X-4650170Y1047839D02*
Y1675023D01*
X-1139210Y2676296D02*
Y2781300D01*
X-1169144Y2646361D02*
X-1139210Y2676296D01*
X-616327Y2234479D02*
X-569300Y2187453D01*
Y1409720D02*
Y2187453D01*
X-1175093Y2825975D02*
Y2884357D01*
X-1203144Y2797923D02*
X-1175093Y2825975D01*
X-1246984Y2916001D02*
X-1193272Y2969712D01*
X-691800Y1114713D02*
X-520067Y942980D01*
X-691800Y1114713D02*
Y2071753D01*
X-5600700Y-114300D02*
X-5067300D01*
X-5664200Y-50800D02*
Y101600D01*
Y-50800D02*
X-5600700Y-114300D01*
X-5740400Y177800D02*
X-5664200Y101600D01*
X-5994400Y177800D02*
X-5740400D01*
X-5715000Y-952500D02*
Y76200D01*
D50*
X-6800850Y-419100D02*
X-6127750Y254000D01*
X-6807200Y-419100D02*
X-6800850D01*
X-6127750Y254000D02*
X-6121400D01*
X-7099300Y-520700D02*
X-6324600Y254000D01*
D51*
X-4048671Y2838303D02*
X-4016094Y2870880D01*
X-4048671Y1728118D02*
Y2838303D01*
X-1843348Y3044302D02*
X-1812489Y3075161D01*
Y3079112D01*
X-1843348Y3009844D02*
Y3044302D01*
X-1851100Y3002092D02*
X-1843348Y3009844D01*
X-4146690Y2778974D02*
Y2870880D01*
X-1851100Y2117233D02*
Y3002092D01*
Y2117233D02*
X-1812489Y2078622D01*
X-1985880Y1435022D02*
X-1855880Y1305022D01*
X-1985880Y2745316D02*
X-1974522Y2756674D01*
X-1985880Y1435022D02*
Y2745316D01*
X-2497440Y1341587D02*
Y1445179D01*
X-4048671Y1728118D02*
X-4005379Y1684826D01*
X-4247416Y2678248D02*
X-4146690Y2778974D01*
X-6393740Y2523098D02*
X-6183364Y2312722D01*
X-6393740Y2523098D02*
Y2694140D01*
X-4247416Y1641761D02*
Y2678248D01*
X-4876817Y1687663D02*
Y1691614D01*
X-4912000Y1652481D02*
X-4876817Y1687663D01*
X-6183364Y1615439D02*
X-6092928Y1525003D01*
X-6183364Y1615439D02*
Y2312722D01*
X-6248400Y1492618D02*
X-6202182Y1446399D01*
X-6248400Y1492618D02*
Y2310300D01*
X-6393740Y2455640D02*
X-6248400Y2310300D01*
X-2423161Y860678D02*
Y1108080D01*
X-2453680Y1138599D02*
X-2423161Y1108080D01*
X-2453680Y1138599D02*
Y1386000D01*
X-2562186Y1276842D02*
X-2497440Y1341587D01*
X-3296457Y1100355D02*
X-3230880Y1034778D01*
X-3415743Y1140637D02*
X-3324819Y1049713D01*
X-3230880Y-185420D02*
Y1034778D01*
X-3250131Y-204671D02*
X-3230880Y-185420D01*
X-3296457Y-204671D02*
X-3250131D01*
X-3324819Y314959D02*
Y1049713D01*
X-4434300Y473380D02*
Y1327639D01*
X-4505361Y1398700D02*
X-4434300Y1327639D01*
X-4547000Y360680D02*
X-4434300Y473380D01*
X-4572000Y360680D02*
X-4547000D01*
X-4597000Y610680D02*
X-4572000D01*
X-4730541Y744221D02*
X-4597000Y610680D01*
X-4730541Y744221D02*
Y1520493D01*
X-4912000Y723900D02*
Y1652481D01*
X-6092928Y1118190D02*
Y1525003D01*
X-1085680Y2542610D02*
Y2546561D01*
X-1121644Y2506646D02*
X-1085680Y2542610D01*
X-1121644Y2034559D02*
Y2506646D01*
X-1451461Y1389549D02*
Y1393500D01*
X-1466500Y1374511D02*
X-1451461Y1389549D01*
X-1466500Y-334000D02*
Y1374511D01*
X-1812489Y1353222D02*
Y2078622D01*
X-2090480Y1358783D02*
Y3120763D01*
X-2140168Y1492208D02*
Y2702462D01*
X-2453680Y1386000D02*
X-2380322Y1459358D01*
X-1906913Y1110052D02*
X-1904120Y1112845D01*
X-1906913Y1099728D02*
Y1110052D01*
X-1910931Y1095710D02*
X-1906913Y1099728D01*
X-1990841Y1281493D02*
X-1945325Y1327009D01*
X-2125240Y1324023D02*
X-2090480Y1358783D01*
X-2125240Y1146786D02*
Y1324023D01*
X-1910931Y210680D02*
Y1095710D01*
X-1990841Y261128D02*
Y1281493D01*
X-2121621Y130348D02*
X-1990841Y261128D01*
X-2205377Y-150467D02*
Y766218D01*
X-2210650Y771491D02*
X-2205377Y766218D01*
X-2210650Y-155740D02*
X-2205377Y-150467D01*
X-2210650Y771491D02*
Y1100355D01*
X-2562186Y367459D02*
Y1276842D01*
X-1974522Y2756674D02*
Y3087209D01*
X-2217722Y3248005D02*
X-2090480Y3120763D01*
X-2246006Y2808300D02*
X-2140168Y2702462D01*
X-6197600Y-266700D02*
X-6108700D01*
X-6246440Y-315540D02*
X-6197600Y-266700D01*
X-6363740Y-315540D02*
X-6246440D01*
X-3121754Y1654525D02*
X-2218995D01*
X-3173340Y1602939D02*
X-3121754Y1654525D01*
D54*
X-3516800Y3568700D02*
D03*
X-2971800D02*
D03*
D55*
X-3486800Y3265700D02*
D03*
X-3001800D02*
D03*
D56*
X-4572000Y610680D02*
D03*
Y360680D02*
D03*
Y860678D02*
D03*
D57*
Y110680D02*
D03*
D58*
X-4099594Y-3500D02*
D03*
Y250500D02*
D03*
Y504500D02*
D03*
Y1012500D02*
D03*
Y758500D02*
D03*
X-6073501Y653560D02*
D03*
D59*
X-4099594Y1266500D02*
D03*
X-6073501Y907560D02*
D03*
D60*
X-5223980Y324560D02*
D03*
D61*
Y574560D02*
D03*
Y824560D02*
D03*
D62*
X-434220Y3441977D02*
D03*
X-437460Y-962923D02*
D03*
X-7331900Y-960383D02*
D03*
X-7342060Y3446517D02*
D03*
D63*
X-4572000Y-315310D02*
D03*
Y-444900D02*
D03*
X-5363903Y1686689D02*
D03*
X-5171156Y1685599D02*
D03*
X-1812489Y3079112D02*
D03*
X-3816704Y2870880D02*
D03*
X-4016094D02*
D03*
X-4328514D02*
D03*
X-4146690D02*
D03*
X-5062278Y3165820D02*
D03*
X-4864556Y3568700D02*
D03*
X-4540046Y3388428D02*
D03*
X-4517540Y3307502D02*
D03*
X-1409700Y1607820D02*
D03*
X-1381462Y1483300D02*
D03*
X-1160644Y1780001D02*
D03*
X-1631551Y1646356D02*
D03*
X-1891997Y1891931D02*
D03*
X-1725480Y1431111D02*
D03*
X-1939123Y2124877D02*
D03*
X-1571180Y1201808D02*
D03*
X-5670550Y479004D02*
D03*
X-5712130D02*
D03*
X-5753100D02*
D03*
X-2730500Y1396000D02*
D03*
X-1003300Y2476500D02*
D03*
X-1910898Y1246936D02*
D03*
X-2400300Y1981200D02*
D03*
Y2108200D02*
D03*
X-1663700Y2286000D02*
D03*
X-1803400D02*
D03*
X-2510116Y2096251D02*
D03*
X-2487240Y2470467D02*
D03*
X-2042780Y1607820D02*
D03*
X-5715000Y76200D02*
D03*
X-5806367Y348272D02*
D03*
X-5715000Y-952500D02*
D03*
X-5067300Y-685800D02*
D03*
X-5805960Y404455D02*
D03*
X-6108700Y-266700D02*
D03*
X-6146800Y-914400D02*
D03*
X-6261100Y-457200D02*
D03*
X-6146800D02*
D03*
X-6261100Y-546100D02*
D03*
Y-368300D02*
D03*
Y-266700D02*
D03*
Y-1016000D02*
D03*
Y-914400D02*
D03*
X-6146800Y-635000D02*
D03*
Y-546100D02*
D03*
Y-723900D02*
D03*
Y-812800D02*
D03*
X-6261100D02*
D03*
Y-635000D02*
D03*
Y-723900D02*
D03*
X-6363740Y-315540D02*
D03*
X-3820514Y2701561D02*
D03*
X-4447540Y2616200D02*
D03*
X-4328514Y2763520D02*
D03*
X-6330053Y1191259D02*
D03*
X-6660631Y1184159D02*
D03*
X-7584133Y2944840D02*
D03*
Y2839840D02*
D03*
Y2688700D02*
D03*
Y2594140D02*
D03*
Y2373800D02*
D03*
X-7580900Y2471300D02*
D03*
X-6333740Y1961140D02*
D03*
X-6663740Y1974299D02*
D03*
X-1343719Y1160020D02*
D03*
X-1369309Y1354497D02*
D03*
X-803460Y2997154D02*
D03*
X-1085680D02*
D03*
X-210880Y2745316D02*
D03*
X-520067D02*
D03*
X-1085680Y2546561D02*
D03*
X-691800Y2071753D02*
D03*
X-469071Y2239491D02*
D03*
X-1005080Y1780001D02*
D03*
X-763036D02*
D03*
X-205740Y1703700D02*
D03*
X-469071D02*
D03*
X-569300Y1409720D02*
D03*
X-520067Y942980D02*
D03*
X-1139210Y1099728D02*
D03*
X-3550743Y523760D02*
D03*
X-1536461D02*
D03*
X-1139210Y571460D02*
D03*
X-1151356Y860678D02*
D03*
X-2315040Y804535D02*
D03*
X-205740Y241300D02*
D03*
X-297180D02*
D03*
X-1048380Y261128D02*
D03*
X-1571180Y-289000D02*
D03*
X-1711180D02*
D03*
X-1887149Y2085824D02*
D03*
X-1756180Y2636561D02*
D03*
X-1760224Y2455640D02*
D03*
X-1756180Y2847340D02*
D03*
X-2570220Y2490300D02*
D03*
X-2484655Y2310300D02*
D03*
X-2562186D02*
D03*
X-2601537Y2276250D02*
D03*
X-2559614Y2096251D02*
D03*
X-4737796Y3574900D02*
D03*
X-5203040Y3592400D02*
D03*
X-5206422Y3686518D02*
D03*
X-5914044Y3612400D02*
D03*
Y3686518D02*
D03*
X-5996941Y3568725D02*
D03*
X-6133038D02*
D03*
X-6013685Y3214514D02*
D03*
X-6133038D02*
D03*
X-5813039Y1700439D02*
D03*
X-5794926Y2053116D02*
D03*
X-5971154D02*
D03*
X-4666235Y1695147D02*
D03*
X-4876817Y1691614D02*
D03*
X-5171156Y1543700D02*
D03*
X-5375236D02*
D03*
X-5924926Y1700439D02*
D03*
X-1698680Y473380D02*
D03*
X-1863231D02*
D03*
X-2475980Y768900D02*
D03*
X-3739006Y436698D02*
D03*
X-3737823Y35680D02*
D03*
X-3550743Y40329D02*
D03*
X-5704258Y421535D02*
D03*
X-5753867D02*
D03*
X-5650966Y348272D02*
D03*
Y404455D02*
D03*
X-3010840Y1855985D02*
D03*
X-2812980D02*
D03*
X-1904306Y1798275D02*
D03*
X-2672440Y1863174D02*
D03*
X-3987593Y1808285D02*
D03*
X-2529564Y2047990D02*
D03*
X-2588744D02*
D03*
X-616327Y2234479D02*
D03*
X-2697440Y2073558D02*
D03*
X-5674360Y2166620D02*
D03*
X-5473040Y2088140D02*
D03*
X-4650170Y1047839D02*
D03*
X-2348537Y1079916D02*
D03*
X-3296457Y1100355D02*
D03*
X-1139210Y2781300D02*
D03*
X-1193272Y2969712D02*
D03*
X-1175093Y2884357D02*
D03*
X-4247416Y1641761D02*
D03*
X-1121644Y2034559D02*
D03*
X-1466500Y1822969D02*
D03*
X-2707240Y2296937D02*
D03*
X-5473040Y3036612D02*
D03*
X-1910931Y210680D02*
D03*
X-5673039Y2984140D02*
D03*
X-5273040Y3087209D02*
D03*
X-5872522Y2936170D02*
D03*
X-4005379Y1684826D02*
D03*
X-2218995Y1654525D02*
D03*
X-1647087Y1703700D02*
D03*
X-6092928Y1118190D02*
D03*
X-6202182Y1446399D02*
D03*
X-2373187Y1265934D02*
D03*
X-2497440Y1445179D02*
D03*
X-2423161Y860678D02*
D03*
X-2345001Y1553726D02*
D03*
X-2380322Y1459358D02*
D03*
X-2246006Y2808300D02*
D03*
X-2140168Y1492208D02*
D03*
X-2210650Y1553342D02*
D03*
X-1725480Y1607820D02*
D03*
X-6393740Y2455640D02*
D03*
Y2694140D02*
D03*
X-6401240Y2847340D02*
D03*
X-2126390Y129530D02*
D03*
X-3296457Y-204671D02*
D03*
X-3324819Y314959D02*
D03*
X-3415743Y1140637D02*
D03*
X-2032540Y1391120D02*
D03*
X-2405980Y1164203D02*
D03*
X-4505361Y1398700D02*
D03*
X-4730541Y1520493D02*
D03*
X-2365267Y1372980D02*
D03*
X-5062278Y1745439D02*
D03*
X-1711180Y1751716D02*
D03*
X-1945325Y1327009D02*
D03*
X-1904120Y1439462D02*
D03*
X-1974522Y3087209D02*
D03*
X-2217722Y3248005D02*
D03*
X-2125240Y1146786D02*
D03*
X-2038541Y1105680D02*
D03*
X-2208014Y-153103D02*
D03*
X-2210650Y1100355D02*
D03*
X-246800Y2136250D02*
D03*
X-1090080Y1439462D02*
D03*
X-4912000Y723900D02*
D03*
X-2562186Y367459D02*
D03*
X-928460Y349159D02*
D03*
X-1466500Y-334000D02*
D03*
X-1451461Y1393500D02*
D03*
X-1904120Y1112845D02*
D03*
X-1812489Y1353222D02*
D03*
X-1855880Y1305022D02*
D03*
X-1904120Y1607820D02*
D03*
X-3173340Y1602939D02*
D03*
D64*
X-6807200Y-419100D02*
D03*
X-7099300Y-520700D02*
D03*
X-6324600Y254000D02*
D03*
X-6694863Y65463D02*
D03*
X-6121400Y254000D02*
D03*
X-6896100Y63500D02*
D03*
X-7099300Y-292100D02*
D03*
X-5359400Y-1155700D02*
D03*
X-7302500Y-292100D02*
D03*
Y63500D02*
D03*
X-7099300D02*
D03*
X-2892980Y771491D02*
D03*
D65*
X-5994400Y177800D02*
D03*
D66*
X-5067300Y-114300D02*
D03*
D67*
X-144131Y-1253483D02*
Y3746517D01*
X-7644131Y-1253483D02*
X-144131D01*
X-7644131Y3746517D02*
X-144131D01*
%TF.MD5,aeb67a48c0fd6e4626e0b30ee5639026*%
M02*
