%TF.GenerationSoftware,Altium Limited,Altium Designer,24.9.1 (31)*%
G04 Layer_Color=8388736*
%FSLAX45Y45*%
%MOMM*%
%TF.SameCoordinates,30E74C37-C7CC-4F87-9207-2BD30A255DAA*%
%TF.FilePolarity,Negative*%
%TF.FileFunction,Soldermask,Top*%
%TF.Part,Single*%
G01*
G75*
%TA.AperFunction,SMDPad,CuDef*%
%ADD15R,1.62964X0.57213*%
G04:AMPARAMS|DCode=16|XSize=1.62964mm|YSize=0.57213mm|CornerRadius=0.28606mm|HoleSize=0mm|Usage=FLASHONLY|Rotation=0.000|XOffset=0mm|YOffset=0mm|HoleType=Round|Shape=RoundedRectangle|*
%AMROUNDEDRECTD16*
21,1,1.62964,0.00000,0,0,0.0*
21,1,1.05751,0.57213,0,0,0.0*
1,1,0.57213,0.52875,0.00000*
1,1,0.57213,-0.52875,0.00000*
1,1,0.57213,-0.52875,0.00000*
1,1,0.57213,0.52875,0.00000*
%
%ADD16ROUNDEDRECTD16*%
%ADD17R,2.71000X3.35000*%
G04:AMPARAMS|DCode=46|XSize=1.25748mm|YSize=0.70248mm|CornerRadius=0.35124mm|HoleSize=0mm|Usage=FLASHONLY|Rotation=90.000|XOffset=0mm|YOffset=0mm|HoleType=Round|Shape=RoundedRectangle|*
%AMROUNDEDRECTD46*
21,1,1.25748,0.00000,0,0,90.0*
21,1,0.55501,0.70248,0,0,90.0*
1,1,0.70247,0.00000,0.27751*
1,1,0.70247,0.00000,-0.27751*
1,1,0.70247,0.00000,-0.27751*
1,1,0.70247,0.00000,0.27751*
%
%ADD46ROUNDEDRECTD46*%
%ADD47R,0.70248X1.25748*%
G04:AMPARAMS|DCode=77|XSize=0.7532mm|YSize=0.7032mm|CornerRadius=0.1641mm|HoleSize=0mm|Usage=FLASHONLY|Rotation=270.000|XOffset=0mm|YOffset=0mm|HoleType=Round|Shape=RoundedRectangle|*
%AMROUNDEDRECTD77*
21,1,0.75320,0.37500,0,0,270.0*
21,1,0.42500,0.70320,0,0,270.0*
1,1,0.32820,-0.18750,-0.21250*
1,1,0.32820,-0.18750,0.21250*
1,1,0.32820,0.18750,0.21250*
1,1,0.32820,0.18750,-0.21250*
%
%ADD77ROUNDEDRECTD77*%
G04:AMPARAMS|DCode=78|XSize=0.9632mm|YSize=0.8636mm|CornerRadius=0.18415mm|HoleSize=0mm|Usage=FLASHONLY|Rotation=180.000|XOffset=0mm|YOffset=0mm|HoleType=Round|Shape=RoundedRectangle|*
%AMROUNDEDRECTD78*
21,1,0.96320,0.49530,0,0,180.0*
21,1,0.59490,0.86360,0,0,180.0*
1,1,0.36830,-0.29745,0.24765*
1,1,0.36830,0.29745,0.24765*
1,1,0.36830,0.29745,-0.24765*
1,1,0.36830,-0.29745,-0.24765*
%
%ADD78ROUNDEDRECTD78*%
%ADD79R,1.10320X0.90320*%
%TA.AperFunction,ConnectorPad*%
%ADD80R,0.60320X1.95320*%
%ADD81R,1.62820X2.70320*%
%TA.AperFunction,SMDPad,CuDef*%
%ADD82C,0.80320*%
%ADD83R,2.80320X1.25320*%
%ADD84R,2.25320X2.40320*%
%ADD85R,2.40320X2.25320*%
%TA.AperFunction,ConnectorPad*%
%ADD86R,2.40320X2.25320*%
%TA.AperFunction,SMDPad,CuDef*%
%ADD87R,1.00320X1.00320*%
G04:AMPARAMS|DCode=88|XSize=0.7532mm|YSize=0.7032mm|CornerRadius=0.1641mm|HoleSize=0mm|Usage=FLASHONLY|Rotation=180.000|XOffset=0mm|YOffset=0mm|HoleType=Round|Shape=RoundedRectangle|*
%AMROUNDEDRECTD88*
21,1,0.75320,0.37500,0,0,180.0*
21,1,0.42500,0.70320,0,0,180.0*
1,1,0.32820,-0.21250,0.18750*
1,1,0.32820,0.21250,0.18750*
1,1,0.32820,0.21250,-0.18750*
1,1,0.32820,-0.21250,-0.18750*
%
%ADD88ROUNDEDRECTD88*%
%TA.AperFunction,ConnectorPad*%
%ADD89R,0.90320X1.10320*%
%TA.AperFunction,SMDPad,CuDef*%
%ADD90R,0.90320X1.10320*%
%ADD91R,1.20320X1.00320*%
%ADD92R,3.00320X1.20320*%
%ADD93R,2.00320X1.40320*%
%ADD94R,1.60000X2.59999*%
%ADD95R,0.66040X2.36220*%
G04:AMPARAMS|DCode=96|XSize=0.3mm|YSize=0.94mm|CornerRadius=0.075mm|HoleSize=0mm|Usage=FLASHONLY|Rotation=45.000|XOffset=0mm|YOffset=0mm|HoleType=Round|Shape=RoundedRectangle|*
%AMROUNDEDRECTD96*
21,1,0.30000,0.79000,0,0,45.0*
21,1,0.15000,0.94000,0,0,45.0*
1,1,0.15000,0.33234,-0.22628*
1,1,0.15000,0.22628,-0.33234*
1,1,0.15000,-0.33234,0.22628*
1,1,0.15000,-0.22628,0.33234*
%
%ADD96ROUNDEDRECTD96*%
G04:AMPARAMS|DCode=97|XSize=0.94mm|YSize=0.3mm|CornerRadius=0.075mm|HoleSize=0mm|Usage=FLASHONLY|Rotation=45.000|XOffset=0mm|YOffset=0mm|HoleType=Round|Shape=RoundedRectangle|*
%AMROUNDEDRECTD97*
21,1,0.94000,0.15000,0,0,45.0*
21,1,0.79000,0.30000,0,0,45.0*
1,1,0.15000,0.33234,0.22628*
1,1,0.15000,-0.22628,-0.33234*
1,1,0.15000,-0.33234,-0.22628*
1,1,0.15000,0.22628,0.33234*
%
%ADD97ROUNDEDRECTD97*%
%ADD98P,4.52548X4X90.0*%
%ADD99R,1.30320X2.00320*%
G04:AMPARAMS|DCode=100|XSize=1.1032mm|YSize=0.9032mm|CornerRadius=0mm|HoleSize=0mm|Usage=FLASHONLY|Rotation=135.000|XOffset=0mm|YOffset=0mm|HoleType=Round|Shape=Rectangle|*
%AMROTATEDRECTD100*
4,1,4,0.70937,-0.07071,0.07071,-0.70937,-0.70937,0.07071,-0.07071,0.70937,0.70937,-0.07071,0.0*
%
%ADD100ROTATEDRECTD100*%

%ADD101R,3.70320X1.20320*%
%TA.AperFunction,ConnectorPad*%
%ADD102R,4.40320X1.55320*%
%ADD103R,3.90320X1.47320*%
%TA.AperFunction,SMDPad,CuDef*%
%ADD104R,1.05320X0.55320*%
%ADD105R,2.60320X3.30320*%
%ADD106R,1.00320X1.00320*%
%ADD107R,0.85320X0.85320*%
%ADD108R,1.15320X1.50320*%
%TA.AperFunction,Conductor*%
%ADD109R,2.20320X1.66320*%
%TA.AperFunction,ComponentPad*%
%ADD110O,1.40320X1.90320*%
%ADD111O,1.20320X1.60320*%
%ADD112O,2.20320X1.70320*%
%ADD113R,2.20320X1.70320*%
%ADD114C,1.72720*%
%ADD115R,1.72720X1.72720*%
%ADD116R,1.95320X1.95320*%
%ADD117C,1.95320*%
%TA.AperFunction,ViaPad*%
%ADD118C,3.60320*%
%ADD119C,0.60320*%
%ADD120C,1.47320*%
%ADD121C,0.80320*%
%ADD122C,0.65320*%
G36*
X-2946526Y3688864D02*
X-2946251Y3688867D01*
X-2942551Y3688668D01*
X-2942144Y3688619D01*
X-2941736Y3688591D01*
X-2938036Y3688090D01*
X-2937753Y3688033D01*
X-2937465Y3687997D01*
X-2934365Y3687397D01*
X-2933788Y3687245D01*
X-2933223Y3687106D01*
X-2929123Y3685806D01*
X-2929054Y3685779D01*
X-2928979Y3685759D01*
X-2928427Y3685534D01*
X-2927882Y3685321D01*
X-2927816Y3685284D01*
X-2927746Y3685256D01*
X-2924046Y3683456D01*
X-2923805Y3683319D01*
X-2923555Y3683201D01*
X-2919955Y3681201D01*
X-2919912Y3681173D01*
X-2919864Y3681149D01*
X-2919348Y3680810D01*
X-2918836Y3680479D01*
X-2918796Y3680445D01*
X-2918752Y3680416D01*
X-2915452Y3677916D01*
X-2915188Y3677688D01*
X-2914913Y3677478D01*
X-2911813Y3674778D01*
X-2911780Y3674745D01*
X-2911742Y3674716D01*
X-2911306Y3674274D01*
X-2910868Y3673840D01*
X-2910839Y3673802D01*
X-2910806Y3673769D01*
X-2908206Y3670769D01*
X-2907989Y3670483D01*
X-2907755Y3670210D01*
X-2905355Y3667009D01*
X-2905069Y3666571D01*
X-2904769Y3666139D01*
X-2902669Y3662639D01*
X-2902490Y3662290D01*
X-2902293Y3661954D01*
X-2900393Y3658153D01*
X-2900322Y3657985D01*
X-2900234Y3657821D01*
X-2900063Y3657368D01*
X-2899877Y3656926D01*
X-2899829Y3656749D01*
X-2899763Y3656576D01*
X-2898663Y3652978D01*
X-2898663Y3652977D01*
X-2898109Y3651163D01*
X-2898047Y3650902D01*
X-2897967Y3650651D01*
X-2897521Y3648864D01*
X-2897513Y3648822D01*
X-2897500Y3648779D01*
X-2897393Y3648158D01*
X-2897284Y3647554D01*
X-2897282Y3647510D01*
X-2897274Y3647466D01*
X-2896874Y3643666D01*
X-2896863Y3643391D01*
X-2896832Y3643121D01*
X-2896632Y3639222D01*
X-2896635Y3638962D01*
X-2896618Y3638700D01*
Y3443882D01*
X-2854301D01*
X-2852972Y3443795D01*
X-2851665Y3443535D01*
X-2850404Y3443107D01*
X-2849210Y3442518D01*
X-2848102Y3441778D01*
X-2847101Y3440900D01*
X-2846223Y3439899D01*
X-2845483Y3438791D01*
X-2844894Y3437597D01*
X-2844466Y3436336D01*
X-2844206Y3435029D01*
X-2844119Y3433700D01*
Y3363700D01*
X-2844206Y3362371D01*
X-2844466Y3361065D01*
X-2844894Y3359804D01*
X-2845483Y3358609D01*
X-2846223Y3357502D01*
X-2847101Y3356501D01*
X-2848102Y3355622D01*
X-2849210Y3354883D01*
X-2850404Y3354293D01*
X-2851665Y3353865D01*
X-2852972Y3353605D01*
X-2854301Y3353518D01*
X-3036800D01*
X-3038129Y3353605D01*
X-3039435Y3353865D01*
X-3040696Y3354293D01*
X-3041891Y3354883D01*
X-3042998Y3355622D01*
X-3044000Y3356501D01*
X-3044878Y3357502D01*
X-3045618Y3358609D01*
X-3046207Y3359804D01*
X-3046635Y3361065D01*
X-3046895Y3362371D01*
X-3046982Y3363700D01*
Y3433701D01*
Y3638700D01*
Y3640900D01*
X-3046967Y3641130D01*
X-3046972Y3641363D01*
X-3046871Y3643563D01*
X-3046865Y3643624D01*
X-3046865Y3643684D01*
X-3046791Y3644287D01*
X-3046724Y3644887D01*
X-3046710Y3644944D01*
X-3046702Y3645006D01*
X-3046302Y3647106D01*
X-3046290Y3647152D01*
X-3046284Y3647196D01*
X-3045884Y3649196D01*
X-3045840Y3649362D01*
X-3045811Y3649532D01*
X-3045411Y3651232D01*
X-3045330Y3651499D01*
X-3045268Y3651774D01*
X-3044768Y3653474D01*
X-3044641Y3653821D01*
X-3044534Y3654175D01*
X-3043334Y3657375D01*
X-3043209Y3657651D01*
X-3043104Y3657936D01*
X-3041504Y3661535D01*
X-3041476Y3661590D01*
X-3041454Y3661648D01*
X-3041165Y3662181D01*
X-3040885Y3662715D01*
X-3040850Y3662765D01*
X-3040820Y3662819D01*
X-3038620Y3666319D01*
X-3038473Y3666522D01*
X-3038342Y3666739D01*
X-3036242Y3669739D01*
X-3036219Y3669767D01*
X-3036202Y3669796D01*
X-3035807Y3670281D01*
X-3035408Y3670778D01*
X-3035384Y3670801D01*
X-3035361Y3670829D01*
X-3032761Y3673629D01*
X-3032624Y3673758D01*
X-3032500Y3673900D01*
X-3029850Y3676550D01*
X-3029817Y3676578D01*
X-3029788Y3676611D01*
X-3029316Y3677018D01*
X-3028848Y3677428D01*
X-3028812Y3677452D01*
X-3028779Y3677481D01*
X-3025529Y3679931D01*
X-3025019Y3680266D01*
X-3024512Y3680606D01*
X-3021412Y3682406D01*
X-3021241Y3682491D01*
X-3021077Y3682592D01*
X-3017877Y3684292D01*
X-3017317Y3684544D01*
X-3016756Y3684803D01*
X-3012856Y3686304D01*
X-3012333Y3686466D01*
X-3011816Y3686641D01*
X-3007866Y3687691D01*
X-3007344Y3687793D01*
X-3006826Y3687910D01*
X-3002676Y3688560D01*
X-3002125Y3688609D01*
X-3001573Y3688671D01*
X-2997273Y3688871D01*
X-2997036Y3688867D01*
X-2996800Y3688882D01*
X-2946800D01*
X-2946526Y3688864D01*
D02*
G37*
G36*
X-3491564Y3688866D02*
X-3491327Y3688871D01*
X-3487027Y3688671D01*
X-3486475Y3688609D01*
X-3485924Y3688559D01*
X-3481775Y3687909D01*
X-3481256Y3687793D01*
X-3480734Y3687690D01*
X-3476784Y3686640D01*
X-3476268Y3686466D01*
X-3475745Y3686303D01*
X-3471844Y3684803D01*
X-3471283Y3684544D01*
X-3470723Y3684292D01*
X-3467523Y3682592D01*
X-3467360Y3682491D01*
X-3467188Y3682405D01*
X-3464088Y3680606D01*
X-3463582Y3680265D01*
X-3463071Y3679930D01*
X-3459821Y3677480D01*
X-3459788Y3677452D01*
X-3459752Y3677428D01*
X-3459284Y3677018D01*
X-3458812Y3676611D01*
X-3458783Y3676578D01*
X-3458751Y3676550D01*
X-3456101Y3673900D01*
X-3455976Y3673758D01*
X-3455839Y3673628D01*
X-3453239Y3670828D01*
X-3453217Y3670801D01*
X-3453192Y3670777D01*
X-3452793Y3670281D01*
X-3452398Y3669795D01*
X-3452381Y3669767D01*
X-3452358Y3669739D01*
X-3450259Y3666738D01*
X-3450127Y3666522D01*
X-3449980Y3666319D01*
X-3447780Y3662819D01*
X-3447751Y3662765D01*
X-3447715Y3662714D01*
X-3447435Y3662181D01*
X-3447147Y3661648D01*
X-3447124Y3661590D01*
X-3447096Y3661535D01*
X-3445496Y3657935D01*
X-3445391Y3657651D01*
X-3445266Y3657375D01*
X-3444067Y3654175D01*
X-3443960Y3653821D01*
X-3443832Y3653474D01*
X-3443332Y3651773D01*
X-3443270Y3651499D01*
X-3443189Y3651232D01*
X-3442789Y3649532D01*
X-3442760Y3649362D01*
X-3442716Y3649196D01*
X-3442316Y3647196D01*
X-3442310Y3647151D01*
X-3442298Y3647105D01*
X-3441898Y3645006D01*
X-3441891Y3644944D01*
X-3441876Y3644886D01*
X-3441809Y3644287D01*
X-3441735Y3643684D01*
X-3441736Y3643624D01*
X-3441729Y3643563D01*
X-3441629Y3641363D01*
X-3441633Y3641130D01*
X-3441618Y3640900D01*
Y3638700D01*
Y3433701D01*
Y3363700D01*
X-3441705Y3362371D01*
X-3441965Y3361065D01*
X-3442393Y3359804D01*
X-3442982Y3358609D01*
X-3443722Y3357502D01*
X-3444600Y3356500D01*
X-3445602Y3355622D01*
X-3446709Y3354882D01*
X-3447904Y3354293D01*
X-3449165Y3353865D01*
X-3450471Y3353605D01*
X-3451800Y3353518D01*
X-3634300D01*
X-3635628Y3353605D01*
X-3636935Y3353865D01*
X-3638196Y3354293D01*
X-3639390Y3354882D01*
X-3640498Y3355622D01*
X-3641499Y3356500D01*
X-3642377Y3357502D01*
X-3643117Y3358609D01*
X-3643706Y3359804D01*
X-3644134Y3361065D01*
X-3644394Y3362371D01*
X-3644481Y3363700D01*
Y3433700D01*
X-3644394Y3435029D01*
X-3644134Y3436335D01*
X-3643706Y3437596D01*
X-3643117Y3438791D01*
X-3642377Y3439898D01*
X-3641499Y3440900D01*
X-3640498Y3441778D01*
X-3639390Y3442518D01*
X-3638196Y3443107D01*
X-3636935Y3443535D01*
X-3635628Y3443795D01*
X-3634300Y3443882D01*
X-3591982D01*
Y3638700D01*
X-3591965Y3638961D01*
X-3591968Y3639221D01*
X-3591769Y3643121D01*
X-3591737Y3643391D01*
X-3591726Y3643666D01*
X-3591326Y3647466D01*
X-3591318Y3647510D01*
X-3591316Y3647554D01*
X-3591207Y3648157D01*
X-3591100Y3648779D01*
X-3591087Y3648822D01*
X-3591079Y3648864D01*
X-3590634Y3650650D01*
X-3590553Y3650902D01*
X-3590492Y3651163D01*
X-3589937Y3652977D01*
X-3589937Y3652977D01*
X-3588837Y3656576D01*
X-3588772Y3656749D01*
X-3588723Y3656926D01*
X-3588537Y3657368D01*
X-3588366Y3657821D01*
X-3588278Y3657984D01*
X-3588207Y3658153D01*
X-3586307Y3661953D01*
X-3586110Y3662290D01*
X-3585931Y3662639D01*
X-3583831Y3666139D01*
X-3583531Y3666571D01*
X-3583246Y3667009D01*
X-3580846Y3670209D01*
X-3580611Y3670483D01*
X-3580394Y3670768D01*
X-3577794Y3673768D01*
X-3577761Y3673802D01*
X-3577732Y3673839D01*
X-3577295Y3674274D01*
X-3576858Y3674716D01*
X-3576821Y3674745D01*
X-3576787Y3674778D01*
X-3573687Y3677478D01*
X-3573412Y3677688D01*
X-3573148Y3677916D01*
X-3569848Y3680416D01*
X-3569804Y3680445D01*
X-3569764Y3680479D01*
X-3569252Y3680809D01*
X-3568736Y3681149D01*
X-3568688Y3681172D01*
X-3568645Y3681200D01*
X-3565045Y3683200D01*
X-3564795Y3683319D01*
X-3564554Y3683456D01*
X-3560854Y3685256D01*
X-3560785Y3685284D01*
X-3560718Y3685321D01*
X-3560173Y3685534D01*
X-3559622Y3685759D01*
X-3559547Y3685779D01*
X-3559477Y3685806D01*
X-3555377Y3687106D01*
X-3554813Y3687245D01*
X-3554235Y3687396D01*
X-3551135Y3687996D01*
X-3550848Y3688033D01*
X-3550564Y3688090D01*
X-3546864Y3688590D01*
X-3546456Y3688618D01*
X-3546050Y3688667D01*
X-3542350Y3688867D01*
X-3542074Y3688864D01*
X-3541800Y3688882D01*
X-3491800D01*
X-3491564Y3688866D01*
D02*
G37*
G36*
X-3918304Y2554380D02*
Y2514380D01*
Y2475640D01*
Y2435640D01*
Y2396900D01*
Y2329910D01*
X-4240884D01*
Y2356900D01*
Y2396900D01*
Y2435640D01*
Y2475640D01*
Y2514380D01*
Y2554380D01*
Y2581370D01*
X-3918304D01*
Y2554380D01*
D02*
G37*
G36*
X-5239831Y35424D02*
X-5238524Y35164D01*
X-5237263Y34736D01*
X-5236069Y34147D01*
X-5234961Y33407D01*
X-5233960Y32529D01*
X-5233082Y31528D01*
X-5232342Y30420D01*
X-5231753Y29226D01*
X-5231325Y27965D01*
X-5231065Y26658D01*
X-5230978Y25329D01*
Y-174670D01*
X-5231065Y-175999D01*
X-5231325Y-177306D01*
X-5231753Y-178567D01*
X-5232342Y-179761D01*
X-5233082Y-180869D01*
X-5233960Y-181870D01*
X-5233986Y-181897D01*
X-5234987Y-182775D01*
X-5236095Y-183514D01*
X-5237289Y-184104D01*
X-5238551Y-184532D01*
X-5239857Y-184792D01*
X-5241186Y-184879D01*
X-5342517D01*
X-5342752Y-184863D01*
X-5342990Y-184868D01*
X-5343417Y-184820D01*
X-5343846Y-184792D01*
X-5344078Y-184745D01*
X-5344313Y-184719D01*
X-5344730Y-184616D01*
X-5345152Y-184532D01*
X-5345376Y-184456D01*
X-5345606Y-184399D01*
X-5346006Y-184242D01*
X-5346413Y-184104D01*
X-5346626Y-183999D01*
X-5346846Y-183913D01*
X-5347223Y-183704D01*
X-5347608Y-183514D01*
X-5347804Y-183383D01*
X-5348011Y-183269D01*
X-5348359Y-183013D01*
X-5348715Y-182775D01*
X-5348892Y-182620D01*
X-5349084Y-182478D01*
X-5349395Y-182178D01*
X-5349717Y-181897D01*
X-5349872Y-181719D01*
X-5350043Y-181555D01*
X-5350312Y-181217D01*
X-5350595Y-180895D01*
X-5350693Y-180748D01*
X-5350725Y-180700D01*
X-5350874Y-180514D01*
X-5351098Y-180142D01*
X-5351334Y-179788D01*
X-5351438Y-179577D01*
X-5351561Y-179373D01*
X-5359085Y-164821D01*
X-5377955Y-138378D01*
X-5401306Y-116149D01*
X-5428437Y-98734D01*
X-5458372Y-86763D01*
X-5490031Y-80667D01*
X-5522270Y-80665D01*
X-5553929Y-86758D01*
X-5583865Y-98726D01*
X-5610999Y-116137D01*
X-5634352Y-138365D01*
X-5653224Y-164804D01*
X-5660750Y-179356D01*
X-5660912Y-179626D01*
X-5661053Y-179901D01*
X-5661253Y-180191D01*
X-5661437Y-180496D01*
X-5661633Y-180741D01*
X-5661810Y-180997D01*
X-5662047Y-181260D01*
X-5662269Y-181538D01*
X-5662493Y-181754D01*
X-5662702Y-181985D01*
X-5662971Y-182214D01*
X-5663228Y-182461D01*
X-5663482Y-182648D01*
X-5663717Y-182848D01*
X-5664011Y-183038D01*
X-5664300Y-183252D01*
X-5664576Y-183404D01*
X-5664835Y-183572D01*
X-5665154Y-183723D01*
X-5665466Y-183895D01*
X-5665757Y-184009D01*
X-5666038Y-184143D01*
X-5666374Y-184251D01*
X-5666706Y-184381D01*
X-5667011Y-184457D01*
X-5667306Y-184552D01*
X-5667651Y-184615D01*
X-5667999Y-184701D01*
X-5668312Y-184736D01*
X-5668616Y-184792D01*
X-5668967Y-184810D01*
X-5669322Y-184850D01*
X-5669637Y-184844D01*
X-5669946Y-184860D01*
X-5670037Y-184852D01*
X-5771159D01*
X-5772488Y-184765D01*
X-5773795Y-184505D01*
X-5775056Y-184077D01*
X-5776250Y-183488D01*
X-5777358Y-182748D01*
X-5778359Y-181870D01*
X-5779237Y-180869D01*
X-5779977Y-179761D01*
X-5780566Y-178567D01*
X-5780994Y-177306D01*
X-5781254Y-175999D01*
X-5781341Y-174670D01*
Y25329D01*
X-5781254Y26658D01*
X-5780994Y27965D01*
X-5780566Y29226D01*
X-5779977Y30420D01*
X-5779237Y31528D01*
X-5778359Y32529D01*
X-5777358Y33407D01*
X-5776250Y34147D01*
X-5775056Y34736D01*
X-5773795Y35164D01*
X-5772488Y35424D01*
X-5771159Y35511D01*
X-5241159D01*
X-5239831Y35424D01*
D02*
G37*
G36*
X-5669564Y-314478D02*
X-5669330Y-314474D01*
X-5668908Y-314521D01*
X-5668481Y-314549D01*
X-5668473Y-314550D01*
X-5668237Y-314597D01*
X-5668006Y-314622D01*
X-5667596Y-314724D01*
X-5667167Y-314809D01*
X-5666940Y-314887D01*
X-5666713Y-314942D01*
X-5666320Y-315097D01*
X-5665906Y-315237D01*
X-5665690Y-315344D01*
X-5665474Y-315429D01*
X-5665103Y-315633D01*
X-5664711Y-315827D01*
X-5664512Y-315960D01*
X-5664308Y-316073D01*
X-5663966Y-316324D01*
X-5663604Y-316567D01*
X-5663424Y-316724D01*
X-5663236Y-316863D01*
X-5662929Y-317158D01*
X-5662602Y-317445D01*
X-5662444Y-317625D01*
X-5662276Y-317787D01*
X-5662012Y-318118D01*
X-5661879Y-318270D01*
X-5661724Y-318446D01*
X-5661592Y-318645D01*
X-5661445Y-318828D01*
X-5661225Y-319193D01*
X-5661054Y-319449D01*
X-5660984Y-319553D01*
X-5660879Y-319768D01*
X-5660758Y-319968D01*
X-5653234Y-334520D01*
X-5634364Y-360963D01*
X-5611013Y-383193D01*
X-5583882Y-400607D01*
X-5553947Y-412578D01*
X-5522288Y-418675D01*
X-5490049Y-418676D01*
X-5458390Y-412583D01*
X-5428454Y-400615D01*
X-5401320Y-383204D01*
X-5377967Y-360977D01*
X-5359095Y-334538D01*
X-5351569Y-319985D01*
X-5351485Y-319845D01*
X-5351418Y-319704D01*
X-5351149Y-319288D01*
X-5350882Y-318845D01*
X-5350780Y-318717D01*
X-5350694Y-318585D01*
X-5350369Y-318203D01*
X-5350051Y-317804D01*
X-5349935Y-317693D01*
X-5349832Y-317571D01*
X-5349457Y-317232D01*
X-5349091Y-316880D01*
X-5348961Y-316784D01*
X-5348844Y-316678D01*
X-5348429Y-316392D01*
X-5348019Y-316090D01*
X-5347879Y-316012D01*
X-5347747Y-315922D01*
X-5347298Y-315692D01*
X-5346853Y-315446D01*
X-5346704Y-315387D01*
X-5346562Y-315315D01*
X-5346089Y-315147D01*
X-5345613Y-314960D01*
X-5345455Y-314921D01*
X-5345307Y-314868D01*
X-5344819Y-314763D01*
X-5344321Y-314640D01*
X-5344159Y-314622D01*
X-5344005Y-314589D01*
X-5343505Y-314549D01*
X-5342997Y-314491D01*
X-5342835Y-314494D01*
X-5342677Y-314482D01*
X-5342525Y-314489D01*
X-5342517Y-314489D01*
X-5241159D01*
X-5239831Y-314576D01*
X-5238524Y-314836D01*
X-5237263Y-315264D01*
X-5236069Y-315853D01*
X-5234961Y-316593D01*
X-5233960Y-317471D01*
X-5233082Y-318472D01*
X-5232342Y-319580D01*
X-5231753Y-320774D01*
X-5231325Y-322035D01*
X-5231065Y-323342D01*
X-5230978Y-324671D01*
Y-524671D01*
X-5231065Y-525999D01*
X-5231325Y-527306D01*
X-5231753Y-528567D01*
X-5232342Y-529761D01*
X-5233082Y-530869D01*
X-5233960Y-531870D01*
X-5234961Y-532748D01*
X-5236069Y-533488D01*
X-5237263Y-534077D01*
X-5238524Y-534505D01*
X-5239831Y-534765D01*
X-5241159Y-534852D01*
X-5771159D01*
X-5772488Y-534765D01*
X-5773795Y-534505D01*
X-5775056Y-534077D01*
X-5776250Y-533488D01*
X-5777358Y-532748D01*
X-5778359Y-531870D01*
X-5779237Y-530869D01*
X-5779977Y-529761D01*
X-5780566Y-528567D01*
X-5780994Y-527306D01*
X-5781254Y-525999D01*
X-5781341Y-524671D01*
Y-324671D01*
X-5781254Y-323342D01*
X-5780994Y-322035D01*
X-5780566Y-320774D01*
X-5779977Y-319580D01*
X-5779237Y-318472D01*
X-5778359Y-317471D01*
X-5778333Y-317445D01*
X-5777331Y-316567D01*
X-5776224Y-315827D01*
X-5775030Y-315237D01*
X-5773768Y-314809D01*
X-5772462Y-314550D01*
X-5771133Y-314462D01*
X-5669802D01*
X-5669564Y-314478D01*
D02*
G37*
%LPC*%
G36*
X-3980854Y2554380D02*
X-4020854D01*
Y2514380D01*
X-3980854D01*
Y2554380D01*
D02*
G37*
G36*
X-4059594D02*
X-4099594D01*
Y2514380D01*
X-4059594D01*
Y2554380D01*
D02*
G37*
G36*
X-4138334D02*
X-4178334D01*
Y2514380D01*
X-4138334D01*
Y2554380D01*
D02*
G37*
G36*
X-3980854Y2475640D02*
X-4020854D01*
Y2435640D01*
X-3980854D01*
Y2475640D01*
D02*
G37*
G36*
X-4059594D02*
X-4099594D01*
Y2435640D01*
X-4059594D01*
Y2475640D01*
D02*
G37*
G36*
X-4138334D02*
X-4178334D01*
Y2435640D01*
X-4138334D01*
Y2475640D01*
D02*
G37*
G36*
X-3980854Y2396900D02*
X-4020854D01*
Y2356900D01*
X-3980854D01*
Y2396900D01*
D02*
G37*
G36*
X-4059594D02*
X-4099594D01*
Y2356900D01*
X-4059594D01*
Y2396900D01*
D02*
G37*
G36*
X-4138334D02*
X-4178334D01*
Y2356900D01*
X-4138334D01*
Y2396900D01*
D02*
G37*
%LPD*%
D15*
X-6461240Y-489000D02*
D03*
D16*
Y-616000D02*
D03*
Y-743000D02*
D03*
Y-870000D02*
D03*
X-5942990D02*
D03*
Y-743000D02*
D03*
Y-616000D02*
D03*
Y-489000D02*
D03*
D17*
X-6202115Y-679500D02*
D03*
D46*
X-835660Y-28003D02*
D03*
D47*
Y-358077D02*
D03*
D77*
X-4528100Y-438150D02*
D03*
X-4438100D02*
D03*
X-4528100Y-311150D02*
D03*
X-4438100D02*
D03*
X-5747300Y-787400D02*
D03*
X-5657300D02*
D03*
X-6102900Y-342900D02*
D03*
X-6012900D02*
D03*
X-2497440Y982980D02*
D03*
X-2587440D02*
D03*
X-922021Y147319D02*
D03*
X-832021D02*
D03*
D78*
X-5444927Y1547779D02*
D03*
Y1687779D02*
D03*
D79*
X-2324100Y2114700D02*
D03*
Y1974700D02*
D03*
X-3667823Y25329D02*
D03*
Y-114671D02*
D03*
X-3669006Y421698D02*
D03*
Y281698D02*
D03*
X-4447540Y2521100D02*
D03*
Y2381100D02*
D03*
X-1641180Y-489000D02*
D03*
Y-349000D02*
D03*
X-5273040Y1545439D02*
D03*
Y1685439D02*
D03*
X-1534446Y771460D02*
D03*
Y631460D02*
D03*
X-2405980Y708900D02*
D03*
Y568900D02*
D03*
D80*
X-3244300Y3286200D02*
D03*
X-3179300D02*
D03*
X-3114300D02*
D03*
X-3309300D02*
D03*
X-3374300D02*
D03*
D81*
X-3148050Y3593700D02*
D03*
X-3340550D02*
D03*
D82*
X-2854302Y2755900D02*
D03*
X-3974594Y3307502D02*
D03*
X-4162144Y3297500D02*
D03*
X-2707240Y2808300D02*
D03*
X-5918200Y279400D02*
D03*
X-6985000Y-927100D02*
D03*
D83*
X-6498740Y872060D02*
D03*
Y577060D02*
D03*
D84*
X-5998740Y-35440D02*
D03*
X-6448740D02*
D03*
D85*
X-6852728Y-581731D02*
D03*
Y-131731D02*
D03*
D86*
X-7301300Y-581731D02*
D03*
Y-131731D02*
D03*
D87*
X-5067300Y-394900D02*
D03*
Y-544900D02*
D03*
D88*
Y-273600D02*
D03*
Y-183600D02*
D03*
X-6578600Y2463800D02*
D03*
Y2373800D02*
D03*
Y2706200D02*
D03*
Y2616200D02*
D03*
Y2937340D02*
D03*
Y2847340D02*
D03*
X-3831504Y45329D02*
D03*
Y-44670D02*
D03*
Y359959D02*
D03*
Y269959D02*
D03*
D89*
X-5708500Y-1041400D02*
D03*
X-5848500D02*
D03*
X-5987900D02*
D03*
X-6127900D02*
D03*
X-6496200D02*
D03*
X-6356200D02*
D03*
D90*
X-5606900Y-647700D02*
D03*
X-5746900D02*
D03*
X-6445100Y-317500D02*
D03*
X-6585100D02*
D03*
X-5444927Y3644900D02*
D03*
X-5304927D02*
D03*
X-5678020D02*
D03*
X-5818020D02*
D03*
X-1938180Y2276250D02*
D03*
X-2078180D02*
D03*
X-1938180Y2438490D02*
D03*
X-2078180D02*
D03*
X-2557440Y1977990D02*
D03*
X-2697440D02*
D03*
X-1381462Y1259217D02*
D03*
X-1521462D02*
D03*
X-1669900Y2197100D02*
D03*
X-1809900D02*
D03*
D91*
X-5727141Y198272D02*
D03*
Y348272D02*
D03*
D92*
X-7324181Y2484832D02*
D03*
X-6884181D02*
D03*
Y2634832D02*
D03*
X-7324181D02*
D03*
X-6884181Y2784832D02*
D03*
X-7324181D02*
D03*
D93*
X-2182540Y563900D02*
D03*
X-1782540D02*
D03*
Y803900D02*
D03*
X-2182540D02*
D03*
D94*
X-4673041Y3398520D02*
D03*
X-4873041D02*
D03*
X-5073040D02*
D03*
X-5273040D02*
D03*
X-5473040D02*
D03*
X-5673039D02*
D03*
X-5873039D02*
D03*
X-6073038D02*
D03*
Y1898523D02*
D03*
X-5873039D02*
D03*
X-5673039D02*
D03*
X-5473040D02*
D03*
X-5273040D02*
D03*
X-5073040D02*
D03*
X-4873041D02*
D03*
X-4673041D02*
D03*
D95*
X-3889094Y2743140D02*
D03*
X-4016094D02*
D03*
X-4143094D02*
D03*
X-4270094D02*
D03*
Y2168140D02*
D03*
X-4143094D02*
D03*
X-4016094D02*
D03*
X-3889094D02*
D03*
D96*
X-1845077Y1181081D02*
D03*
X-1816792Y1209365D02*
D03*
X-1788508Y1237650D02*
D03*
X-1760224Y1265934D02*
D03*
X-1731939Y1294218D02*
D03*
X-1703655Y1322503D02*
D03*
X-1675371Y1350787D02*
D03*
X-1647087Y1379071D02*
D03*
X-1618802Y1407355D02*
D03*
X-1590518Y1435639D02*
D03*
X-1562234Y1463924D02*
D03*
X-1533950Y1492208D02*
D03*
X-1505665Y1520493D02*
D03*
X-1477381Y1548777D02*
D03*
X-1963163Y2034559D02*
D03*
X-1991447Y2006275D02*
D03*
X-2019732Y1977990D02*
D03*
X-2048016Y1949706D02*
D03*
X-2076300Y1921422D02*
D03*
X-2104585Y1893137D02*
D03*
X-2132869Y1864853D02*
D03*
X-2161153Y1836569D02*
D03*
X-2189437Y1808285D02*
D03*
X-2217722Y1780001D02*
D03*
X-2246006Y1751716D02*
D03*
X-2274290Y1723432D02*
D03*
X-2302575Y1695147D02*
D03*
X-2330859Y1666863D02*
D03*
D97*
Y1548777D02*
D03*
X-2302575Y1520493D02*
D03*
X-2274290Y1492208D02*
D03*
X-2246006Y1463924D02*
D03*
X-2217722Y1435639D02*
D03*
X-2189437Y1407355D02*
D03*
X-2161153Y1379071D02*
D03*
X-2132869Y1350787D02*
D03*
X-2104585Y1322503D02*
D03*
X-2076300Y1294218D02*
D03*
X-2048016Y1265934D02*
D03*
X-2019732Y1237650D02*
D03*
X-1991447Y1209365D02*
D03*
X-1963163Y1181081D02*
D03*
X-1477381Y1666863D02*
D03*
X-1505665Y1695147D02*
D03*
X-1533950Y1723432D02*
D03*
X-1562234Y1751716D02*
D03*
X-1590518Y1780001D02*
D03*
X-1618802Y1808285D02*
D03*
X-1647087Y1836569D02*
D03*
X-1675371Y1864853D02*
D03*
X-1703655Y1893137D02*
D03*
X-1731939Y1921422D02*
D03*
X-1760224Y1949706D02*
D03*
X-1788508Y1977990D02*
D03*
X-1816792Y2006275D02*
D03*
X-1845077Y2034559D02*
D03*
D98*
X-1904120Y1607820D02*
D03*
D99*
X-246800Y104260D02*
D03*
Y-515740D02*
D03*
X-616800Y104260D02*
D03*
Y-515740D02*
D03*
X-1460080Y-495420D02*
D03*
Y124580D02*
D03*
X-1090080Y-495420D02*
D03*
Y124580D02*
D03*
D100*
X-2552543Y1442998D02*
D03*
X-2651537Y1344003D02*
D03*
D101*
X-923380Y1607820D02*
D03*
Y1353820D02*
D03*
Y1099820D02*
D03*
Y845820D02*
D03*
Y591820D02*
D03*
X-373380Y1607820D02*
D03*
Y1353820D02*
D03*
Y1099820D02*
D03*
Y845820D02*
D03*
Y591820D02*
D03*
X-378460Y1892300D02*
D03*
Y2146300D02*
D03*
Y2400300D02*
D03*
Y2654300D02*
D03*
Y2908300D02*
D03*
X-928460Y1892300D02*
D03*
Y2146300D02*
D03*
Y2400300D02*
D03*
Y2654300D02*
D03*
Y2908300D02*
D03*
D102*
X-6503740Y1854500D02*
D03*
Y1294500D02*
D03*
D103*
X-6513740Y1574500D02*
D03*
D104*
X-3105840Y1783700D02*
D03*
Y1703700D02*
D03*
Y1623700D02*
D03*
Y1543700D02*
D03*
X-2715840D02*
D03*
Y1623700D02*
D03*
Y1703700D02*
D03*
Y1783700D02*
D03*
D105*
X-2910840Y1663700D02*
D03*
D106*
X-2737980Y982980D02*
D03*
X-2887980D02*
D03*
D107*
X-3465743Y-204671D02*
D03*
Y45329D02*
D03*
Y274959D02*
D03*
Y524959D02*
D03*
D108*
X-2083947Y2847340D02*
D03*
X-1898947D02*
D03*
X-2083947Y2636561D02*
D03*
X-1898947D02*
D03*
X-2744037Y2186250D02*
D03*
X-2559038D02*
D03*
X-2707240Y2400300D02*
D03*
X-2522240D02*
D03*
D109*
X-3534303Y3265702D02*
D03*
X-2954302D02*
D03*
D110*
X-3516800Y3568700D02*
D03*
X-2971800D02*
D03*
D111*
X-3486800Y3265700D02*
D03*
X-3001800D02*
D03*
D112*
X-4572000Y610680D02*
D03*
Y360680D02*
D03*
Y860678D02*
D03*
D113*
Y110680D02*
D03*
D114*
X-4099594Y-3500D02*
D03*
Y250500D02*
D03*
Y504500D02*
D03*
Y1012500D02*
D03*
Y758500D02*
D03*
X-6073501Y653560D02*
D03*
D115*
X-4099594Y1266500D02*
D03*
X-6073501Y907560D02*
D03*
D116*
X-5223980Y324560D02*
D03*
D117*
Y574560D02*
D03*
Y824560D02*
D03*
D118*
X-434220Y3441977D02*
D03*
X-437460Y-962923D02*
D03*
X-7331900Y-960383D02*
D03*
X-7342060Y3446517D02*
D03*
D119*
X-4572000Y-315310D02*
D03*
Y-444900D02*
D03*
X-5363903Y1686689D02*
D03*
X-5171156Y1685599D02*
D03*
X-1812489Y3079112D02*
D03*
X-3816704Y2870880D02*
D03*
X-4016094D02*
D03*
X-4328514D02*
D03*
X-4146690D02*
D03*
X-5062278Y3165820D02*
D03*
X-4864556Y3568700D02*
D03*
X-4540046Y3388428D02*
D03*
X-4517540Y3307502D02*
D03*
X-1409700Y1607820D02*
D03*
X-1381462Y1483300D02*
D03*
X-1160644Y1780001D02*
D03*
X-1631551Y1646356D02*
D03*
X-1891997Y1891931D02*
D03*
X-1725480Y1431111D02*
D03*
X-1939123Y2124877D02*
D03*
X-1571180Y1201808D02*
D03*
X-5670550Y479004D02*
D03*
X-5712130D02*
D03*
X-5753100D02*
D03*
X-2730500Y1396000D02*
D03*
X-1003300Y2476500D02*
D03*
X-1910898Y1246936D02*
D03*
X-2400300Y1981200D02*
D03*
Y2108200D02*
D03*
X-1663700Y2286000D02*
D03*
X-1803400D02*
D03*
X-2510116Y2096251D02*
D03*
X-2487240Y2470467D02*
D03*
X-2042780Y1607820D02*
D03*
X-5715000Y76200D02*
D03*
X-5806367Y348272D02*
D03*
X-5715000Y-952500D02*
D03*
X-5067300Y-685800D02*
D03*
X-5805960Y404455D02*
D03*
X-6108700Y-266700D02*
D03*
X-6146800Y-914400D02*
D03*
X-6261100Y-457200D02*
D03*
X-6146800D02*
D03*
X-6261100Y-546100D02*
D03*
Y-368300D02*
D03*
Y-266700D02*
D03*
Y-1016000D02*
D03*
Y-914400D02*
D03*
X-6146800Y-635000D02*
D03*
Y-546100D02*
D03*
Y-723900D02*
D03*
Y-812800D02*
D03*
X-6261100D02*
D03*
Y-635000D02*
D03*
Y-723900D02*
D03*
X-6363740Y-315540D02*
D03*
X-3820514Y2701561D02*
D03*
X-4447540Y2616200D02*
D03*
X-4328514Y2763520D02*
D03*
X-6330053Y1191259D02*
D03*
X-6660631Y1184159D02*
D03*
X-7584133Y2944840D02*
D03*
Y2839840D02*
D03*
Y2688700D02*
D03*
Y2594140D02*
D03*
Y2373800D02*
D03*
X-7580900Y2471300D02*
D03*
X-6333740Y1961140D02*
D03*
X-6663740Y1974299D02*
D03*
X-1343719Y1160020D02*
D03*
X-1369309Y1354497D02*
D03*
X-803460Y2997154D02*
D03*
X-1085680D02*
D03*
X-210880Y2745316D02*
D03*
X-520067D02*
D03*
X-1085680Y2546561D02*
D03*
X-691800Y2071753D02*
D03*
X-469071Y2239491D02*
D03*
X-1005080Y1780001D02*
D03*
X-763036D02*
D03*
X-205740Y1703700D02*
D03*
X-469071D02*
D03*
X-569300Y1409720D02*
D03*
X-520067Y942980D02*
D03*
X-1139210Y1099728D02*
D03*
X-3550743Y523760D02*
D03*
X-1536461D02*
D03*
X-1139210Y571460D02*
D03*
X-1151356Y860678D02*
D03*
X-2315040Y804535D02*
D03*
X-205740Y241300D02*
D03*
X-297180D02*
D03*
X-1048380Y261128D02*
D03*
X-1571180Y-289000D02*
D03*
X-1711180D02*
D03*
X-1887149Y2085824D02*
D03*
X-1756180Y2636561D02*
D03*
X-1760224Y2455640D02*
D03*
X-1756180Y2847340D02*
D03*
X-2570220Y2490300D02*
D03*
X-2484655Y2310300D02*
D03*
X-2562186D02*
D03*
X-2601537Y2276250D02*
D03*
X-2559614Y2096251D02*
D03*
X-4737796Y3574900D02*
D03*
X-5203040Y3592400D02*
D03*
X-5206422Y3686518D02*
D03*
X-5914044Y3612400D02*
D03*
Y3686518D02*
D03*
X-5996941Y3568725D02*
D03*
X-6133038D02*
D03*
X-6013685Y3214514D02*
D03*
X-6133038D02*
D03*
X-5813039Y1700439D02*
D03*
X-5794926Y2053116D02*
D03*
X-5971154D02*
D03*
X-4666235Y1695147D02*
D03*
X-4876817Y1691614D02*
D03*
X-5171156Y1543700D02*
D03*
X-5375236D02*
D03*
X-5924926Y1700439D02*
D03*
X-1698680Y473380D02*
D03*
X-1863231D02*
D03*
X-2475980Y768900D02*
D03*
X-3739006Y436698D02*
D03*
X-3737823Y35680D02*
D03*
X-3550743Y40329D02*
D03*
X-5704258Y421535D02*
D03*
X-5753867D02*
D03*
X-5650966Y348272D02*
D03*
Y404455D02*
D03*
X-3010840Y1855985D02*
D03*
X-2812980D02*
D03*
X-1904306Y1798275D02*
D03*
X-2672440Y1863174D02*
D03*
X-3987593Y1808285D02*
D03*
X-2529564Y2047990D02*
D03*
X-2588744D02*
D03*
X-616327Y2234479D02*
D03*
X-2697440Y2073558D02*
D03*
X-5674360Y2166620D02*
D03*
X-5473040Y2088140D02*
D03*
X-4650170Y1047839D02*
D03*
X-2348537Y1079916D02*
D03*
X-3296457Y1100355D02*
D03*
X-1139210Y2781300D02*
D03*
X-1193272Y2969712D02*
D03*
X-1175093Y2884357D02*
D03*
X-4247416Y1641761D02*
D03*
X-1121644Y2034559D02*
D03*
X-1466500Y1822969D02*
D03*
X-2707240Y2296937D02*
D03*
X-5473040Y3036612D02*
D03*
X-1910931Y210680D02*
D03*
X-5673039Y2984140D02*
D03*
X-5273040Y3087209D02*
D03*
X-5872522Y2936170D02*
D03*
X-4005379Y1684826D02*
D03*
X-2218995Y1654525D02*
D03*
X-1647087Y1703700D02*
D03*
X-6092928Y1118190D02*
D03*
X-6202182Y1446399D02*
D03*
X-2373187Y1265934D02*
D03*
X-2497440Y1445179D02*
D03*
X-2423161Y860678D02*
D03*
X-2345001Y1553726D02*
D03*
X-2380322Y1459358D02*
D03*
X-2246006Y2808300D02*
D03*
X-2140168Y1492208D02*
D03*
X-2210650Y1553342D02*
D03*
X-1725480Y1607820D02*
D03*
X-6393740Y2455640D02*
D03*
Y2694140D02*
D03*
X-6401240Y2847340D02*
D03*
X-2126390Y129530D02*
D03*
X-3296457Y-204671D02*
D03*
X-3324819Y314959D02*
D03*
X-3415743Y1140637D02*
D03*
X-2032540Y1391120D02*
D03*
X-2405980Y1164203D02*
D03*
X-4505361Y1398700D02*
D03*
X-4730541Y1520493D02*
D03*
X-2365267Y1372980D02*
D03*
X-5062278Y1745439D02*
D03*
X-1711180Y1751716D02*
D03*
X-1945325Y1327009D02*
D03*
X-1904120Y1439462D02*
D03*
X-1974522Y3087209D02*
D03*
X-2217722Y3248005D02*
D03*
X-2125240Y1146786D02*
D03*
X-2038541Y1105680D02*
D03*
X-2208014Y-153103D02*
D03*
X-2210650Y1100355D02*
D03*
X-246800Y2136250D02*
D03*
X-1090080Y1439462D02*
D03*
X-4912000Y723900D02*
D03*
X-2562186Y367459D02*
D03*
X-928460Y349159D02*
D03*
X-1466500Y-334000D02*
D03*
X-1451461Y1393500D02*
D03*
X-1904120Y1112845D02*
D03*
X-1812489Y1353222D02*
D03*
X-1855880Y1305022D02*
D03*
X-1904120Y1607820D02*
D03*
X-3173340Y1602939D02*
D03*
D120*
X-6807200Y-419100D02*
D03*
X-7099300Y-520700D02*
D03*
X-6324600Y254000D02*
D03*
X-6694863Y65463D02*
D03*
X-6121400Y254000D02*
D03*
X-6896100Y63500D02*
D03*
X-7099300Y-292100D02*
D03*
X-5359400Y-1155700D02*
D03*
X-7302500Y-292100D02*
D03*
Y63500D02*
D03*
X-7099300D02*
D03*
X-2892980Y771491D02*
D03*
D121*
X-5994400Y177800D02*
D03*
D122*
X-5067300Y-114300D02*
D03*
%TF.MD5,53b756fbb2bd2b221811b5b837408e8b*%
M02*
