%TF.GenerationSoftware,Altium Limited,Altium Designer,24.9.1 (31)*%
G04 Layer_Physical_Order=2*
G04 Layer_Color=36540*
%FSLAX45Y45*%
%MOMM*%
%TF.SameCoordinates,30E74C37-C7CC-4F87-9207-2BD30A255DAA*%
%TF.FilePolarity,Positive*%
%TF.FileFunction,Copper,L2,Inr,Signal*%
%TF.Part,Single*%
G01*
G75*
%TA.AperFunction,ComponentPad*%
%ADD54O,1.20000X1.70000*%
%ADD55O,1.00000X1.40000*%
%ADD56O,2.00000X1.50000*%
%ADD57R,2.00000X1.50000*%
%ADD58C,1.52400*%
%ADD59R,1.52400X1.52400*%
%ADD60R,1.75000X1.75000*%
%ADD61C,1.75000*%
%TA.AperFunction,ViaPad*%
%ADD62C,3.40000*%
%ADD63C,0.40000*%
%ADD64C,1.27000*%
%ADD65C,0.60000*%
%ADD66C,0.45000*%
G36*
X-184913Y-1212701D02*
X-7603349D01*
Y998051D01*
X-6733740D01*
X-6718133Y1001155D01*
X-6704901Y1009996D01*
X-6696061Y1023227D01*
X-6692956Y1038834D01*
Y2088140D01*
X-6696061Y2103747D01*
X-6704901Y2116978D01*
X-6718133Y2125819D01*
X-6733740Y2128924D01*
X-7603349D01*
Y3705735D01*
X-5951396D01*
X-5943336Y3693035D01*
X-5944632Y3686518D01*
X-5942303Y3674813D01*
X-5935673Y3664890D01*
X-5925749Y3658259D01*
X-5914044Y3655931D01*
X-5902339Y3658259D01*
X-5892415Y3664890D01*
X-5885785Y3674813D01*
X-5883456Y3686518D01*
X-5884753Y3693035D01*
X-5876692Y3705735D01*
X-5243774D01*
X-5235713Y3693035D01*
X-5237010Y3686518D01*
X-5234681Y3674813D01*
X-5228051Y3664890D01*
X-5218127Y3658259D01*
X-5206422Y3655931D01*
X-5194717Y3658259D01*
X-5184793Y3664890D01*
X-5178163Y3674813D01*
X-5175834Y3686518D01*
X-5177130Y3693035D01*
X-5169070Y3705735D01*
X-184913D01*
Y-1212701D01*
D02*
G37*
%LPC*%
G36*
X-5914044Y3642988D02*
X-5925749Y3640659D01*
X-5935673Y3634029D01*
X-5942303Y3624105D01*
X-5944632Y3612400D01*
X-5942303Y3600695D01*
X-5935673Y3590771D01*
X-5925749Y3584141D01*
X-5914044Y3581812D01*
X-5902339Y3584141D01*
X-5892415Y3590771D01*
X-5885785Y3600695D01*
X-5883456Y3612400D01*
X-5885785Y3624105D01*
X-5892415Y3634029D01*
X-5902339Y3640659D01*
X-5914044Y3642988D01*
D02*
G37*
G36*
X-5203040Y3622988D02*
X-5214745Y3620659D01*
X-5224669Y3614029D01*
X-5231299Y3604105D01*
X-5233628Y3592400D01*
X-5231299Y3580695D01*
X-5224669Y3570771D01*
X-5214745Y3564141D01*
X-5203040Y3561812D01*
X-5191335Y3564141D01*
X-5181411Y3570771D01*
X-5174781Y3580695D01*
X-5172452Y3592400D01*
X-5174781Y3604105D01*
X-5181411Y3614029D01*
X-5191335Y3620659D01*
X-5203040Y3622988D01*
D02*
G37*
G36*
X-4864556Y3599288D02*
X-4876261Y3596959D01*
X-4886185Y3590329D01*
X-4892815Y3580405D01*
X-4895144Y3568700D01*
X-4892815Y3556995D01*
X-4886185Y3547071D01*
X-4876261Y3540441D01*
X-4864556Y3538112D01*
X-4852851Y3540441D01*
X-4842927Y3547071D01*
X-4836297Y3556995D01*
X-4833968Y3568700D01*
X-4836297Y3580405D01*
X-4842927Y3590329D01*
X-4852851Y3596959D01*
X-4864556Y3599288D01*
D02*
G37*
G36*
X-2217722Y3278593D02*
X-2229427Y3276264D01*
X-2239351Y3269634D01*
X-2245981Y3259711D01*
X-2248309Y3248005D01*
X-2245981Y3236300D01*
X-2239351Y3226376D01*
X-2229427Y3219746D01*
X-2217722Y3217417D01*
X-2206016Y3219746D01*
X-2196093Y3226376D01*
X-2189462Y3236300D01*
X-2187134Y3248005D01*
X-2189462Y3259711D01*
X-2196093Y3269634D01*
X-2206016Y3276264D01*
X-2217722Y3278593D01*
D02*
G37*
G36*
X-5062278Y3196408D02*
X-5073983Y3194080D01*
X-5083907Y3187449D01*
X-5090537Y3177526D01*
X-5092866Y3165820D01*
X-5090537Y3154115D01*
X-5083907Y3144192D01*
X-5073983Y3137561D01*
X-5062278Y3135233D01*
X-5050573Y3137561D01*
X-5040649Y3144192D01*
X-5034019Y3154115D01*
X-5031690Y3165820D01*
X-5034019Y3177526D01*
X-5040649Y3187449D01*
X-5050573Y3194080D01*
X-5062278Y3196408D01*
D02*
G37*
G36*
X-1974522Y3117797D02*
X-1986227Y3115468D01*
X-1996151Y3108838D01*
X-2002781Y3098914D01*
X-2005110Y3087209D01*
X-2002781Y3075504D01*
X-1996151Y3065580D01*
X-1986227Y3058950D01*
X-1974522Y3056621D01*
X-1962816Y3058950D01*
X-1952893Y3065580D01*
X-1946263Y3075504D01*
X-1943934Y3087209D01*
X-1946263Y3098914D01*
X-1952893Y3108838D01*
X-1962816Y3115468D01*
X-1974522Y3117797D01*
D02*
G37*
G36*
X-5273040D02*
X-5284745Y3115468D01*
X-5294669Y3108838D01*
X-5301299Y3098914D01*
X-5303628Y3087209D01*
X-5301299Y3075504D01*
X-5294669Y3065580D01*
X-5284745Y3058950D01*
X-5273040Y3056621D01*
X-5261335Y3058950D01*
X-5251411Y3065580D01*
X-5244781Y3075504D01*
X-5242452Y3087209D01*
X-5244781Y3098914D01*
X-5251411Y3108838D01*
X-5261335Y3115468D01*
X-5273040Y3117797D01*
D02*
G37*
G36*
X-1812489Y3109699D02*
X-1824194Y3107371D01*
X-1834118Y3100741D01*
X-1840748Y3090817D01*
X-1843077Y3079112D01*
X-1840748Y3067406D01*
X-1834118Y3057483D01*
X-1824194Y3050852D01*
X-1812489Y3048524D01*
X-1800784Y3050852D01*
X-1790860Y3057483D01*
X-1784230Y3067406D01*
X-1781901Y3079112D01*
X-1784230Y3090817D01*
X-1790860Y3100741D01*
X-1800784Y3107371D01*
X-1812489Y3109699D01*
D02*
G37*
G36*
X-5473040Y3067199D02*
X-5484745Y3064871D01*
X-5494668Y3058241D01*
X-5501299Y3048317D01*
X-5503627Y3036612D01*
X-5501299Y3024906D01*
X-5494668Y3014983D01*
X-5484745Y3008352D01*
X-5473040Y3006024D01*
X-5461334Y3008352D01*
X-5451411Y3014983D01*
X-5444780Y3024906D01*
X-5442452Y3036612D01*
X-5444780Y3048317D01*
X-5451411Y3058241D01*
X-5461334Y3064871D01*
X-5473040Y3067199D01*
D02*
G37*
G36*
X-803460Y3027741D02*
X-815165Y3025413D01*
X-825089Y3018782D01*
X-831719Y3008859D01*
X-834048Y2997154D01*
X-831719Y2985448D01*
X-825089Y2975525D01*
X-815165Y2968894D01*
X-803460Y2966566D01*
X-791755Y2968894D01*
X-781831Y2975525D01*
X-775201Y2985448D01*
X-772872Y2997154D01*
X-775201Y3008859D01*
X-781831Y3018782D01*
X-791755Y3025413D01*
X-803460Y3027741D01*
D02*
G37*
G36*
X-1085680D02*
X-1097385Y3025413D01*
X-1107309Y3018782D01*
X-1113939Y3008859D01*
X-1116268Y2997154D01*
X-1113939Y2985448D01*
X-1107309Y2975525D01*
X-1097385Y2968894D01*
X-1085680Y2966566D01*
X-1073975Y2968894D01*
X-1064051Y2975525D01*
X-1057421Y2985448D01*
X-1055092Y2997154D01*
X-1057421Y3008859D01*
X-1064051Y3018782D01*
X-1073975Y3025413D01*
X-1085680Y3027741D01*
D02*
G37*
G36*
X-5673039Y3014728D02*
X-5684745Y3012399D01*
X-5694668Y3005769D01*
X-5701298Y2995845D01*
X-5703627Y2984140D01*
X-5701298Y2972435D01*
X-5694668Y2962511D01*
X-5684745Y2955881D01*
X-5673039Y2953552D01*
X-5661334Y2955881D01*
X-5651410Y2962511D01*
X-5644780Y2972435D01*
X-5642452Y2984140D01*
X-5644780Y2995845D01*
X-5651410Y3005769D01*
X-5661334Y3012399D01*
X-5673039Y3014728D01*
D02*
G37*
G36*
X-1193272Y3000300D02*
X-1204978Y2997971D01*
X-1214901Y2991341D01*
X-1221532Y2981417D01*
X-1223860Y2969712D01*
X-1221532Y2958007D01*
X-1214901Y2948083D01*
X-1204978Y2941453D01*
X-1193272Y2939124D01*
X-1181567Y2941453D01*
X-1171644Y2948083D01*
X-1165013Y2958007D01*
X-1162685Y2969712D01*
X-1165013Y2981417D01*
X-1171644Y2991341D01*
X-1181567Y2997971D01*
X-1193272Y3000300D01*
D02*
G37*
G36*
X-5872522Y2966758D02*
X-5884227Y2964429D01*
X-5894151Y2957799D01*
X-5900781Y2947875D01*
X-5903109Y2936170D01*
X-5900781Y2924465D01*
X-5894151Y2914541D01*
X-5884227Y2907911D01*
X-5872522Y2905582D01*
X-5860816Y2907911D01*
X-5850893Y2914541D01*
X-5844262Y2924465D01*
X-5841934Y2936170D01*
X-5844262Y2947875D01*
X-5850893Y2957799D01*
X-5860816Y2964429D01*
X-5872522Y2966758D01*
D02*
G37*
G36*
X-1175093Y2914945D02*
X-1186798Y2912617D01*
X-1196722Y2905986D01*
X-1203352Y2896063D01*
X-1205680Y2884357D01*
X-1203352Y2872652D01*
X-1196722Y2862729D01*
X-1186798Y2856098D01*
X-1175093Y2853770D01*
X-1163387Y2856098D01*
X-1153464Y2862729D01*
X-1146833Y2872652D01*
X-1144505Y2884357D01*
X-1146833Y2896063D01*
X-1153464Y2905986D01*
X-1163387Y2912617D01*
X-1175093Y2914945D01*
D02*
G37*
G36*
X-4016094Y2901468D02*
X-4027800Y2899139D01*
X-4037723Y2892509D01*
X-4044354Y2882585D01*
X-4046682Y2870880D01*
X-4044354Y2859175D01*
X-4037723Y2849251D01*
X-4027800Y2842621D01*
X-4016094Y2840292D01*
X-4004389Y2842621D01*
X-3994465Y2849251D01*
X-3987835Y2859175D01*
X-3985507Y2870880D01*
X-3987835Y2882585D01*
X-3994465Y2892509D01*
X-4004389Y2899139D01*
X-4016094Y2901468D01*
D02*
G37*
G36*
X-4146690D02*
X-4158396Y2899139D01*
X-4168319Y2892509D01*
X-4174949Y2882585D01*
X-4177278Y2870880D01*
X-4174949Y2859175D01*
X-4168319Y2849251D01*
X-4158396Y2842621D01*
X-4146690Y2840292D01*
X-4134985Y2842621D01*
X-4125061Y2849251D01*
X-4118431Y2859175D01*
X-4116103Y2870880D01*
X-4118431Y2882585D01*
X-4125061Y2892509D01*
X-4134985Y2899139D01*
X-4146690Y2901468D01*
D02*
G37*
G36*
X-4328514D02*
X-4340220Y2899139D01*
X-4350143Y2892509D01*
X-4356774Y2882585D01*
X-4359102Y2870880D01*
X-4356774Y2859175D01*
X-4350143Y2849251D01*
X-4340220Y2842621D01*
X-4328514Y2840292D01*
X-4316809Y2842621D01*
X-4306885Y2849251D01*
X-4300255Y2859175D01*
X-4297927Y2870880D01*
X-4300255Y2882585D01*
X-4306885Y2892509D01*
X-4316809Y2899139D01*
X-4328514Y2901468D01*
D02*
G37*
G36*
X-6401240Y2877928D02*
X-6412945Y2875599D01*
X-6422869Y2868969D01*
X-6429499Y2859045D01*
X-6431828Y2847340D01*
X-6429499Y2835635D01*
X-6422869Y2825711D01*
X-6412945Y2819081D01*
X-6401240Y2816752D01*
X-6389535Y2819081D01*
X-6379611Y2825711D01*
X-6372981Y2835635D01*
X-6370652Y2847340D01*
X-6372981Y2859045D01*
X-6379611Y2868969D01*
X-6389535Y2875599D01*
X-6401240Y2877928D01*
D02*
G37*
G36*
X-2246006Y2838888D02*
X-2257711Y2836559D01*
X-2267635Y2829929D01*
X-2274265Y2820005D01*
X-2276594Y2808300D01*
X-2274265Y2796595D01*
X-2267635Y2786671D01*
X-2257711Y2780041D01*
X-2246006Y2777712D01*
X-2234301Y2780041D01*
X-2224377Y2786671D01*
X-2217747Y2796595D01*
X-2215418Y2808300D01*
X-2217747Y2820005D01*
X-2224377Y2829929D01*
X-2234301Y2836559D01*
X-2246006Y2838888D01*
D02*
G37*
G36*
X-1139210Y2811888D02*
X-1150915Y2809559D01*
X-1160839Y2802929D01*
X-1167469Y2793005D01*
X-1169798Y2781300D01*
X-1167469Y2769595D01*
X-1160839Y2759671D01*
X-1150915Y2753041D01*
X-1139210Y2750712D01*
X-1127505Y2753041D01*
X-1117581Y2759671D01*
X-1110951Y2769595D01*
X-1108622Y2781300D01*
X-1110951Y2793005D01*
X-1117581Y2802929D01*
X-1127505Y2809559D01*
X-1139210Y2811888D01*
D02*
G37*
G36*
X-4328514Y2794108D02*
X-4340220Y2791779D01*
X-4350143Y2785149D01*
X-4356774Y2775225D01*
X-4359102Y2763520D01*
X-4356774Y2751815D01*
X-4350143Y2741891D01*
X-4340220Y2735261D01*
X-4328514Y2732932D01*
X-4316809Y2735261D01*
X-4306885Y2741891D01*
X-4300255Y2751815D01*
X-4297927Y2763520D01*
X-4300255Y2775225D01*
X-4306885Y2785149D01*
X-4316809Y2791779D01*
X-4328514Y2794108D01*
D02*
G37*
G36*
X-6393740Y2724728D02*
X-6405445Y2722399D01*
X-6415369Y2715769D01*
X-6421999Y2705845D01*
X-6424328Y2694140D01*
X-6421999Y2682435D01*
X-6415369Y2672511D01*
X-6405445Y2665881D01*
X-6393740Y2663552D01*
X-6382034Y2665881D01*
X-6372111Y2672511D01*
X-6365481Y2682435D01*
X-6363152Y2694140D01*
X-6365481Y2705845D01*
X-6372111Y2715769D01*
X-6382034Y2722399D01*
X-6393740Y2724728D01*
D02*
G37*
G36*
X-1085680Y2577149D02*
X-1097385Y2574820D01*
X-1107309Y2568190D01*
X-1113939Y2558266D01*
X-1116268Y2546561D01*
X-1113939Y2534856D01*
X-1107309Y2524932D01*
X-1097385Y2518302D01*
X-1085680Y2515973D01*
X-1073975Y2518302D01*
X-1064051Y2524932D01*
X-1057421Y2534856D01*
X-1055092Y2546561D01*
X-1057421Y2558266D01*
X-1064051Y2568190D01*
X-1073975Y2574820D01*
X-1085680Y2577149D01*
D02*
G37*
G36*
X-1003300Y2507088D02*
X-1015005Y2504759D01*
X-1024929Y2498129D01*
X-1031559Y2488205D01*
X-1033888Y2476500D01*
X-1031559Y2464795D01*
X-1024929Y2454871D01*
X-1015005Y2448241D01*
X-1003300Y2445912D01*
X-991595Y2448241D01*
X-981671Y2454871D01*
X-975041Y2464795D01*
X-972712Y2476500D01*
X-975041Y2488205D01*
X-981671Y2498129D01*
X-991595Y2504759D01*
X-1003300Y2507088D01*
D02*
G37*
G36*
X-6393740Y2486228D02*
X-6405445Y2483899D01*
X-6415369Y2477269D01*
X-6421999Y2467345D01*
X-6424328Y2455640D01*
X-6421999Y2443935D01*
X-6415369Y2434011D01*
X-6405445Y2427381D01*
X-6393740Y2425052D01*
X-6382034Y2427381D01*
X-6372111Y2434011D01*
X-6365481Y2443935D01*
X-6363152Y2455640D01*
X-6365481Y2467345D01*
X-6372111Y2477269D01*
X-6382034Y2483899D01*
X-6393740Y2486228D01*
D02*
G37*
G36*
X-2707240Y2327525D02*
X-2718945Y2325197D01*
X-2728869Y2318566D01*
X-2735499Y2308643D01*
X-2737828Y2296937D01*
X-2735499Y2285232D01*
X-2728869Y2275308D01*
X-2718945Y2268678D01*
X-2707240Y2266350D01*
X-2695535Y2268678D01*
X-2685611Y2275308D01*
X-2678981Y2285232D01*
X-2676652Y2296937D01*
X-2678981Y2308643D01*
X-2685611Y2318566D01*
X-2695535Y2325197D01*
X-2707240Y2327525D01*
D02*
G37*
G36*
X-1803400Y2316588D02*
X-1815105Y2314259D01*
X-1825029Y2307629D01*
X-1831659Y2297705D01*
X-1833988Y2286000D01*
X-1831659Y2274295D01*
X-1825029Y2264371D01*
X-1815105Y2257741D01*
X-1803400Y2255412D01*
X-1791695Y2257741D01*
X-1781771Y2264371D01*
X-1775141Y2274295D01*
X-1772812Y2286000D01*
X-1775141Y2297705D01*
X-1781771Y2307629D01*
X-1791695Y2314259D01*
X-1803400Y2316588D01*
D02*
G37*
G36*
X-616327Y2265067D02*
X-628032Y2262739D01*
X-637956Y2256108D01*
X-644586Y2246185D01*
X-646915Y2234479D01*
X-644586Y2222774D01*
X-637956Y2212851D01*
X-628032Y2206220D01*
X-616327Y2203892D01*
X-604622Y2206220D01*
X-594698Y2212851D01*
X-588068Y2222774D01*
X-585739Y2234479D01*
X-588068Y2246185D01*
X-594698Y2256108D01*
X-604622Y2262739D01*
X-616327Y2265067D01*
D02*
G37*
G36*
X-5674360Y2197208D02*
X-5686065Y2194879D01*
X-5695989Y2188249D01*
X-5702619Y2178325D01*
X-5704948Y2166620D01*
X-5702619Y2154915D01*
X-5695989Y2144991D01*
X-5686065Y2138361D01*
X-5674360Y2136032D01*
X-5662655Y2138361D01*
X-5652731Y2144991D01*
X-5646101Y2154915D01*
X-5643772Y2166620D01*
X-5646101Y2178325D01*
X-5652731Y2188249D01*
X-5662655Y2194879D01*
X-5674360Y2197208D01*
D02*
G37*
G36*
X-5473040Y2118728D02*
X-5484745Y2116399D01*
X-5494668Y2109769D01*
X-5501299Y2099845D01*
X-5503627Y2088140D01*
X-5501299Y2076435D01*
X-5494668Y2066511D01*
X-5484745Y2059881D01*
X-5473040Y2057552D01*
X-5461334Y2059881D01*
X-5451411Y2066511D01*
X-5444780Y2076435D01*
X-5442452Y2088140D01*
X-5444780Y2099845D01*
X-5451411Y2109769D01*
X-5461334Y2116399D01*
X-5473040Y2118728D01*
D02*
G37*
G36*
X-1939123Y2155464D02*
X-1950829Y2153136D01*
X-1960752Y2146505D01*
X-1967383Y2136582D01*
X-1969711Y2124877D01*
X-1967383Y2113171D01*
X-1960752Y2103248D01*
X-1950829Y2096617D01*
X-1939123Y2094289D01*
X-1928585Y2096385D01*
X-1923538Y2093363D01*
X-1917281Y2088116D01*
X-1917737Y2085824D01*
X-1915408Y2074119D01*
X-1908778Y2064196D01*
X-1898854Y2057565D01*
X-1887149Y2055237D01*
X-1875444Y2057565D01*
X-1865520Y2064196D01*
X-1858890Y2074119D01*
X-1856561Y2085824D01*
X-1858890Y2097530D01*
X-1865520Y2107453D01*
X-1875444Y2114084D01*
X-1887149Y2116412D01*
X-1897688Y2114316D01*
X-1902735Y2117338D01*
X-1908992Y2122585D01*
X-1908536Y2124877D01*
X-1910864Y2136582D01*
X-1917495Y2146505D01*
X-1927418Y2153136D01*
X-1939123Y2155464D01*
D02*
G37*
G36*
X-2697440Y2104146D02*
X-2709145Y2101817D01*
X-2719069Y2095187D01*
X-2725699Y2085264D01*
X-2728028Y2073558D01*
X-2725699Y2061853D01*
X-2719069Y2051929D01*
X-2709145Y2045299D01*
X-2697440Y2042971D01*
X-2685735Y2045299D01*
X-2675811Y2051929D01*
X-2669181Y2061853D01*
X-2666852Y2073558D01*
X-2669181Y2085264D01*
X-2675811Y2095187D01*
X-2685735Y2101817D01*
X-2697440Y2104146D01*
D02*
G37*
G36*
X-691800Y2102340D02*
X-703505Y2100012D01*
X-713429Y2093382D01*
X-720059Y2083458D01*
X-722388Y2071753D01*
X-720059Y2060047D01*
X-713429Y2050124D01*
X-703505Y2043493D01*
X-691800Y2041165D01*
X-680095Y2043493D01*
X-670171Y2050124D01*
X-663541Y2060047D01*
X-661212Y2071753D01*
X-663541Y2083458D01*
X-670171Y2093382D01*
X-680095Y2100012D01*
X-691800Y2102340D01*
D02*
G37*
G36*
X-1121644Y2065146D02*
X-1133350Y2062818D01*
X-1143273Y2056188D01*
X-1149904Y2046264D01*
X-1152232Y2034559D01*
X-1149904Y2022853D01*
X-1143273Y2012930D01*
X-1133350Y2006300D01*
X-1121644Y2003971D01*
X-1109939Y2006300D01*
X-1100016Y2012930D01*
X-1093385Y2022853D01*
X-1091057Y2034559D01*
X-1093385Y2046264D01*
X-1100016Y2056188D01*
X-1109939Y2062818D01*
X-1121644Y2065146D01*
D02*
G37*
G36*
X-2400300Y2011788D02*
X-2412005Y2009459D01*
X-2421929Y2002829D01*
X-2428559Y1992905D01*
X-2430888Y1981200D01*
X-2428559Y1969495D01*
X-2421929Y1959571D01*
X-2412005Y1952941D01*
X-2400300Y1950612D01*
X-2388595Y1952941D01*
X-2378671Y1959571D01*
X-2372041Y1969495D01*
X-2369712Y1981200D01*
X-2372041Y1992905D01*
X-2378671Y2002829D01*
X-2388595Y2009459D01*
X-2400300Y2011788D01*
D02*
G37*
G36*
X-1891997Y1922518D02*
X-1903702Y1920190D01*
X-1913626Y1913560D01*
X-1920256Y1903636D01*
X-1922585Y1891931D01*
X-1920256Y1880225D01*
X-1913626Y1870302D01*
X-1903702Y1863671D01*
X-1891997Y1861343D01*
X-1880292Y1863671D01*
X-1870368Y1870302D01*
X-1863738Y1880225D01*
X-1861409Y1891931D01*
X-1863738Y1903636D01*
X-1870368Y1913560D01*
X-1880292Y1920190D01*
X-1891997Y1922518D01*
D02*
G37*
G36*
X-2672440Y1893762D02*
X-2684146Y1891434D01*
X-2694069Y1884803D01*
X-2700699Y1874880D01*
X-2703028Y1863174D01*
X-2700699Y1851469D01*
X-2694069Y1841545D01*
X-2684146Y1834915D01*
X-2672440Y1832587D01*
X-2660735Y1834915D01*
X-2650811Y1841545D01*
X-2644181Y1851469D01*
X-2641852Y1863174D01*
X-2644181Y1874880D01*
X-2650811Y1884803D01*
X-2660735Y1891434D01*
X-2672440Y1893762D01*
D02*
G37*
G36*
X-1466500Y1853557D02*
X-1478205Y1851229D01*
X-1488129Y1844598D01*
X-1494759Y1834675D01*
X-1497088Y1822969D01*
X-1494759Y1811264D01*
X-1488129Y1801341D01*
X-1478205Y1794710D01*
X-1466500Y1792382D01*
X-1454795Y1794710D01*
X-1444871Y1801341D01*
X-1438241Y1811264D01*
X-1435912Y1822969D01*
X-1438241Y1834675D01*
X-1444871Y1844598D01*
X-1454795Y1851229D01*
X-1466500Y1853557D01*
D02*
G37*
G36*
X-3987593Y1838873D02*
X-3999298Y1836544D01*
X-4009222Y1829914D01*
X-4015852Y1819990D01*
X-4018180Y1808285D01*
X-4015852Y1796580D01*
X-4009222Y1786656D01*
X-3999298Y1780026D01*
X-3987593Y1777697D01*
X-3975887Y1780026D01*
X-3965964Y1786656D01*
X-3959333Y1796580D01*
X-3957005Y1808285D01*
X-3959333Y1819990D01*
X-3965964Y1829914D01*
X-3975887Y1836544D01*
X-3987593Y1838873D01*
D02*
G37*
G36*
X-1160644Y1810588D02*
X-1172350Y1808260D01*
X-1182273Y1801629D01*
X-1188904Y1791706D01*
X-1191232Y1780001D01*
X-1188904Y1768295D01*
X-1182273Y1758372D01*
X-1172350Y1751741D01*
X-1160644Y1749413D01*
X-1148939Y1751741D01*
X-1139016Y1758372D01*
X-1132385Y1768295D01*
X-1130057Y1780001D01*
X-1132385Y1791706D01*
X-1139016Y1801629D01*
X-1148939Y1808260D01*
X-1160644Y1810588D01*
D02*
G37*
G36*
X-1711180Y1782304D02*
X-1722886Y1779976D01*
X-1732809Y1773345D01*
X-1739439Y1763422D01*
X-1741768Y1751716D01*
X-1739439Y1740011D01*
X-1732809Y1730087D01*
X-1722886Y1723457D01*
X-1711180Y1721129D01*
X-1699475Y1723457D01*
X-1689551Y1730087D01*
X-1682921Y1740011D01*
X-1680593Y1751716D01*
X-1682921Y1763422D01*
X-1689551Y1773345D01*
X-1699475Y1779976D01*
X-1711180Y1782304D01*
D02*
G37*
G36*
X-5062278Y1776026D02*
X-5073983Y1773698D01*
X-5083907Y1767068D01*
X-5090537Y1757144D01*
X-5092866Y1745439D01*
X-5090537Y1733733D01*
X-5083907Y1723810D01*
X-5073983Y1717179D01*
X-5062278Y1714851D01*
X-5050573Y1717179D01*
X-5040649Y1723810D01*
X-5034019Y1733733D01*
X-5031690Y1745439D01*
X-5034019Y1757144D01*
X-5040649Y1767068D01*
X-5050573Y1773698D01*
X-5062278Y1776026D01*
D02*
G37*
G36*
X-4666235Y1725735D02*
X-4677941Y1723407D01*
X-4687864Y1716776D01*
X-4694495Y1706853D01*
X-4696823Y1695147D01*
X-4694495Y1683442D01*
X-4687864Y1673519D01*
X-4677941Y1666888D01*
X-4666235Y1664560D01*
X-4654530Y1666888D01*
X-4644606Y1673519D01*
X-4637976Y1683442D01*
X-4635648Y1695147D01*
X-4637976Y1706853D01*
X-4644606Y1716776D01*
X-4654530Y1723407D01*
X-4666235Y1725735D01*
D02*
G37*
G36*
X-4876817Y1722202D02*
X-4888523Y1719873D01*
X-4898446Y1713243D01*
X-4905077Y1703319D01*
X-4907405Y1691614D01*
X-4905077Y1679909D01*
X-4898446Y1669985D01*
X-4888523Y1663355D01*
X-4876817Y1661026D01*
X-4865112Y1663355D01*
X-4855188Y1669985D01*
X-4848558Y1679909D01*
X-4846230Y1691614D01*
X-4848558Y1703319D01*
X-4855188Y1713243D01*
X-4865112Y1719873D01*
X-4876817Y1722202D01*
D02*
G37*
G36*
X-5363903Y1717277D02*
X-5375609Y1714948D01*
X-5385532Y1708318D01*
X-5392163Y1698394D01*
X-5394491Y1686689D01*
X-5392163Y1674984D01*
X-5385532Y1665060D01*
X-5375609Y1658430D01*
X-5363903Y1656101D01*
X-5352198Y1658430D01*
X-5342275Y1665060D01*
X-5335644Y1674984D01*
X-5333316Y1686689D01*
X-5335644Y1698394D01*
X-5342275Y1708318D01*
X-5352198Y1714948D01*
X-5363903Y1717277D01*
D02*
G37*
G36*
X-5171156Y1716187D02*
X-5182861Y1713858D01*
X-5192784Y1707228D01*
X-5199415Y1697304D01*
X-5201743Y1685599D01*
X-5199415Y1673894D01*
X-5192784Y1663970D01*
X-5182861Y1657340D01*
X-5171156Y1655011D01*
X-5159450Y1657340D01*
X-5149527Y1663970D01*
X-5142896Y1673894D01*
X-5140568Y1685599D01*
X-5142896Y1697304D01*
X-5149527Y1707228D01*
X-5159450Y1713858D01*
X-5171156Y1716187D01*
D02*
G37*
G36*
X-4005379Y1715414D02*
X-4017084Y1713085D01*
X-4027007Y1706455D01*
X-4033638Y1696531D01*
X-4035966Y1684826D01*
X-4033638Y1673121D01*
X-4027007Y1663197D01*
X-4017084Y1656567D01*
X-4005379Y1654238D01*
X-3993673Y1656567D01*
X-3983750Y1663197D01*
X-3977119Y1673121D01*
X-3974791Y1684826D01*
X-3977119Y1696531D01*
X-3983750Y1706455D01*
X-3993673Y1713085D01*
X-4005379Y1715414D01*
D02*
G37*
G36*
X-2218995Y1685113D02*
X-2230700Y1682784D01*
X-2240624Y1676154D01*
X-2247254Y1666230D01*
X-2249583Y1654525D01*
X-2247254Y1642820D01*
X-2240624Y1632896D01*
X-2230700Y1626266D01*
X-2218995Y1623937D01*
X-2207290Y1626266D01*
X-2197366Y1632896D01*
X-2190736Y1642820D01*
X-2188407Y1654525D01*
X-2190736Y1666230D01*
X-2197366Y1676154D01*
X-2207290Y1682784D01*
X-2218995Y1685113D01*
D02*
G37*
G36*
X-1647087Y1734288D02*
X-1658792Y1731959D01*
X-1668715Y1725329D01*
X-1675346Y1715405D01*
X-1677674Y1703700D01*
X-1675346Y1691995D01*
X-1668715Y1682071D01*
X-1661224Y1677066D01*
X-1658623Y1674129D01*
X-1657078Y1662151D01*
X-1659810Y1658061D01*
X-1662139Y1646356D01*
X-1659810Y1634651D01*
X-1653180Y1624727D01*
X-1643257Y1618097D01*
X-1631551Y1615768D01*
X-1619846Y1618097D01*
X-1609922Y1624727D01*
X-1603292Y1634651D01*
X-1600964Y1646356D01*
X-1603292Y1658061D01*
X-1609922Y1667985D01*
X-1617414Y1672990D01*
X-1620015Y1675927D01*
X-1621560Y1687905D01*
X-1618827Y1691995D01*
X-1616499Y1703700D01*
X-1618827Y1715405D01*
X-1625458Y1725329D01*
X-1635381Y1731959D01*
X-1647087Y1734288D01*
D02*
G37*
G36*
X-4247416Y1672349D02*
X-4259122Y1670021D01*
X-4269045Y1663390D01*
X-4275676Y1653467D01*
X-4278004Y1641761D01*
X-4275676Y1630056D01*
X-4269045Y1620132D01*
X-4259122Y1613502D01*
X-4247416Y1611174D01*
X-4235711Y1613502D01*
X-4225788Y1620132D01*
X-4219157Y1630056D01*
X-4216829Y1641761D01*
X-4219157Y1653467D01*
X-4225788Y1663390D01*
X-4235711Y1670021D01*
X-4247416Y1672349D01*
D02*
G37*
G36*
X-1409700Y1638408D02*
X-1421405Y1636079D01*
X-1431329Y1629449D01*
X-1437959Y1619525D01*
X-1440288Y1607820D01*
X-1437959Y1596115D01*
X-1431329Y1586191D01*
X-1421405Y1579561D01*
X-1409700Y1577232D01*
X-1397995Y1579561D01*
X-1388071Y1586191D01*
X-1381441Y1596115D01*
X-1379112Y1607820D01*
X-1381441Y1619525D01*
X-1388071Y1629449D01*
X-1397995Y1636079D01*
X-1409700Y1638408D01*
D02*
G37*
G36*
X-3173340Y1633526D02*
X-3185045Y1631198D01*
X-3194969Y1624567D01*
X-3201599Y1614644D01*
X-3203928Y1602939D01*
X-3201599Y1591233D01*
X-3194969Y1581310D01*
X-3185045Y1574679D01*
X-3173340Y1572351D01*
X-3161635Y1574679D01*
X-3151711Y1581310D01*
X-3145081Y1591233D01*
X-3142752Y1602939D01*
X-3145081Y1614644D01*
X-3151711Y1624567D01*
X-3161635Y1631198D01*
X-3173340Y1633526D01*
D02*
G37*
G36*
X-2345001Y1584314D02*
X-2356706Y1581985D01*
X-2366630Y1575355D01*
X-2373260Y1565431D01*
X-2375589Y1553726D01*
X-2373260Y1542021D01*
X-2366630Y1532097D01*
X-2356706Y1525467D01*
X-2345001Y1523138D01*
X-2333296Y1525467D01*
X-2323372Y1532097D01*
X-2316742Y1542021D01*
X-2314413Y1553726D01*
X-2316742Y1565431D01*
X-2323372Y1575355D01*
X-2333296Y1581985D01*
X-2345001Y1584314D01*
D02*
G37*
G36*
X-2210650Y1583930D02*
X-2222356Y1581602D01*
X-2232279Y1574971D01*
X-2238910Y1565048D01*
X-2241238Y1553342D01*
X-2238910Y1541637D01*
X-2232279Y1531713D01*
X-2222356Y1525083D01*
X-2210650Y1522755D01*
X-2198945Y1525083D01*
X-2189022Y1531713D01*
X-2182391Y1541637D01*
X-2180063Y1553342D01*
X-2182391Y1565048D01*
X-2189022Y1574971D01*
X-2198945Y1581602D01*
X-2210650Y1583930D01*
D02*
G37*
G36*
X-4730541Y1551080D02*
X-4742246Y1548752D01*
X-4752170Y1542121D01*
X-4758800Y1532198D01*
X-4761129Y1520493D01*
X-4758800Y1508787D01*
X-4752170Y1498864D01*
X-4742246Y1492233D01*
X-4730541Y1489905D01*
X-4718836Y1492233D01*
X-4708912Y1498864D01*
X-4702282Y1508787D01*
X-4699953Y1520493D01*
X-4702282Y1532198D01*
X-4708912Y1542121D01*
X-4718836Y1548752D01*
X-4730541Y1551080D01*
D02*
G37*
G36*
X-2140168Y1522796D02*
X-2151874Y1520467D01*
X-2161797Y1513837D01*
X-2168428Y1503913D01*
X-2170756Y1492208D01*
X-2168428Y1480503D01*
X-2161797Y1470579D01*
X-2151874Y1463949D01*
X-2140168Y1461620D01*
X-2128463Y1463949D01*
X-2118540Y1470579D01*
X-2111909Y1480503D01*
X-2109581Y1492208D01*
X-2111909Y1503913D01*
X-2118540Y1513837D01*
X-2128463Y1520467D01*
X-2140168Y1522796D01*
D02*
G37*
G36*
X-1381462Y1513888D02*
X-1393167Y1511559D01*
X-1403090Y1504929D01*
X-1409721Y1495005D01*
X-1412049Y1483300D01*
X-1409721Y1471595D01*
X-1403090Y1461671D01*
X-1393167Y1455041D01*
X-1381462Y1452712D01*
X-1369756Y1455041D01*
X-1359833Y1461671D01*
X-1353202Y1471595D01*
X-1350874Y1483300D01*
X-1353202Y1495005D01*
X-1359833Y1504929D01*
X-1369756Y1511559D01*
X-1381462Y1513888D01*
D02*
G37*
G36*
X-2380322Y1489946D02*
X-2392027Y1487618D01*
X-2401950Y1480987D01*
X-2408581Y1471064D01*
X-2410909Y1459358D01*
X-2408581Y1447653D01*
X-2401950Y1437729D01*
X-2392027Y1431099D01*
X-2380322Y1428771D01*
X-2368616Y1431099D01*
X-2358693Y1437729D01*
X-2352062Y1447653D01*
X-2349734Y1459358D01*
X-2352062Y1471064D01*
X-2358693Y1480987D01*
X-2368616Y1487618D01*
X-2380322Y1489946D01*
D02*
G37*
G36*
X-6202182Y1476987D02*
X-6213887Y1474659D01*
X-6223811Y1468028D01*
X-6230441Y1458105D01*
X-6232769Y1446399D01*
X-6230441Y1434694D01*
X-6223811Y1424771D01*
X-6213887Y1418140D01*
X-6202182Y1415812D01*
X-6190476Y1418140D01*
X-6180553Y1424771D01*
X-6173922Y1434694D01*
X-6171594Y1446399D01*
X-6173922Y1458105D01*
X-6180553Y1468028D01*
X-6190476Y1474659D01*
X-6202182Y1476987D01*
D02*
G37*
G36*
X-2497440Y1475767D02*
X-2509145Y1473439D01*
X-2519069Y1466808D01*
X-2525699Y1456885D01*
X-2528028Y1445179D01*
X-2525699Y1433474D01*
X-2519069Y1423551D01*
X-2509145Y1416920D01*
X-2497440Y1414592D01*
X-2485735Y1416920D01*
X-2475811Y1423551D01*
X-2469181Y1433474D01*
X-2466852Y1445179D01*
X-2469181Y1456885D01*
X-2475811Y1466808D01*
X-2485735Y1473439D01*
X-2497440Y1475767D01*
D02*
G37*
G36*
X-1090080Y1470050D02*
X-1101785Y1467721D01*
X-1111709Y1461091D01*
X-1118339Y1451168D01*
X-1120668Y1439462D01*
X-1118339Y1427757D01*
X-1111709Y1417833D01*
X-1101785Y1411203D01*
X-1090080Y1408874D01*
X-1078375Y1411203D01*
X-1068451Y1417833D01*
X-1061821Y1427757D01*
X-1059492Y1439462D01*
X-1061821Y1451168D01*
X-1068451Y1461091D01*
X-1078375Y1467721D01*
X-1090080Y1470050D01*
D02*
G37*
G36*
X-1725480Y1461699D02*
X-1737185Y1459371D01*
X-1747109Y1452740D01*
X-1753739Y1442817D01*
X-1756068Y1431111D01*
X-1753739Y1419406D01*
X-1747109Y1409483D01*
X-1737185Y1402852D01*
X-1725480Y1400524D01*
X-1713775Y1402852D01*
X-1703851Y1409483D01*
X-1697221Y1419406D01*
X-1694892Y1431111D01*
X-1697221Y1442817D01*
X-1703851Y1452740D01*
X-1713775Y1459371D01*
X-1725480Y1461699D01*
D02*
G37*
G36*
X-569300Y1440308D02*
X-581005Y1437979D01*
X-590929Y1431349D01*
X-597559Y1421425D01*
X-599888Y1409720D01*
X-597559Y1398014D01*
X-590929Y1388091D01*
X-581005Y1381461D01*
X-569300Y1379132D01*
X-557595Y1381461D01*
X-547671Y1388091D01*
X-541041Y1398014D01*
X-538712Y1409720D01*
X-541041Y1421425D01*
X-547671Y1431349D01*
X-557595Y1437979D01*
X-569300Y1440308D01*
D02*
G37*
G36*
X-4505361Y1429287D02*
X-4517066Y1426959D01*
X-4526990Y1420328D01*
X-4533620Y1410405D01*
X-4535949Y1398700D01*
X-4533620Y1386994D01*
X-4526990Y1377071D01*
X-4517066Y1370440D01*
X-4505361Y1368112D01*
X-4493655Y1370440D01*
X-4483732Y1377071D01*
X-4477102Y1386994D01*
X-4474773Y1398700D01*
X-4477102Y1410405D01*
X-4483732Y1420328D01*
X-4493655Y1426959D01*
X-4505361Y1429287D01*
D02*
G37*
G36*
X-2730500Y1426588D02*
X-2742205Y1424259D01*
X-2752129Y1417629D01*
X-2758759Y1407705D01*
X-2761088Y1396000D01*
X-2758759Y1384295D01*
X-2752129Y1374371D01*
X-2742205Y1367741D01*
X-2730500Y1365412D01*
X-2718795Y1367741D01*
X-2708871Y1374371D01*
X-2702241Y1384295D01*
X-2699912Y1396000D01*
X-2702241Y1407705D01*
X-2708871Y1417629D01*
X-2718795Y1424259D01*
X-2730500Y1426588D01*
D02*
G37*
G36*
X-1451461Y1424088D02*
X-1463167Y1421759D01*
X-1473090Y1415129D01*
X-1479721Y1405205D01*
X-1482049Y1393500D01*
X-1479721Y1381795D01*
X-1473090Y1371871D01*
X-1463167Y1365241D01*
X-1451461Y1362912D01*
X-1439756Y1365241D01*
X-1429833Y1371871D01*
X-1423202Y1381795D01*
X-1420874Y1393500D01*
X-1423202Y1405205D01*
X-1429833Y1415129D01*
X-1439756Y1421759D01*
X-1451461Y1424088D01*
D02*
G37*
G36*
X-2032540Y1421708D02*
X-2044245Y1419379D01*
X-2054169Y1412749D01*
X-2060799Y1402825D01*
X-2063127Y1391120D01*
X-2060799Y1379415D01*
X-2054169Y1369491D01*
X-2044245Y1362861D01*
X-2032540Y1360532D01*
X-2020834Y1362861D01*
X-2010911Y1369491D01*
X-2004280Y1379415D01*
X-2001952Y1391120D01*
X-2004280Y1402825D01*
X-2010911Y1412749D01*
X-2020834Y1419379D01*
X-2032540Y1421708D01*
D02*
G37*
G36*
X-2365267Y1403567D02*
X-2376973Y1401239D01*
X-2386896Y1394609D01*
X-2393527Y1384685D01*
X-2395855Y1372980D01*
X-2393527Y1361274D01*
X-2386896Y1351351D01*
X-2376973Y1344720D01*
X-2365267Y1342392D01*
X-2353562Y1344720D01*
X-2343638Y1351351D01*
X-2337008Y1361274D01*
X-2334680Y1372980D01*
X-2337008Y1384685D01*
X-2343638Y1394609D01*
X-2353562Y1401239D01*
X-2365267Y1403567D01*
D02*
G37*
G36*
X-1812489Y1383810D02*
X-1824194Y1381481D01*
X-1834118Y1374851D01*
X-1840748Y1364927D01*
X-1843077Y1353222D01*
X-1841571Y1345653D01*
X-1848620Y1336467D01*
X-1851358Y1334710D01*
X-1855880Y1335609D01*
X-1867585Y1333281D01*
X-1877509Y1326651D01*
X-1884139Y1316727D01*
X-1886468Y1305022D01*
X-1884139Y1293316D01*
X-1877509Y1283393D01*
X-1867585Y1276762D01*
X-1855880Y1274434D01*
X-1844175Y1276762D01*
X-1834251Y1283393D01*
X-1827621Y1293316D01*
X-1825292Y1305022D01*
X-1826798Y1312590D01*
X-1819749Y1321777D01*
X-1817011Y1323534D01*
X-1812489Y1322634D01*
X-1800784Y1324963D01*
X-1790860Y1331593D01*
X-1784230Y1341516D01*
X-1781901Y1353222D01*
X-1784230Y1364927D01*
X-1790860Y1374851D01*
X-1800784Y1381481D01*
X-1812489Y1383810D01*
D02*
G37*
G36*
X-1945325Y1357596D02*
X-1957030Y1355268D01*
X-1966954Y1348638D01*
X-1973584Y1338714D01*
X-1975913Y1327009D01*
X-1973584Y1315303D01*
X-1966954Y1305380D01*
X-1957030Y1298749D01*
X-1945325Y1296421D01*
X-1933620Y1298749D01*
X-1923696Y1305380D01*
X-1917066Y1315303D01*
X-1914737Y1327009D01*
X-1917066Y1338714D01*
X-1923696Y1348638D01*
X-1933620Y1355268D01*
X-1945325Y1357596D01*
D02*
G37*
G36*
X-2373187Y1296522D02*
X-2384892Y1294193D01*
X-2394816Y1287563D01*
X-2401446Y1277639D01*
X-2403775Y1265934D01*
X-2401446Y1254229D01*
X-2394816Y1244305D01*
X-2384892Y1237675D01*
X-2373187Y1235346D01*
X-2361482Y1237675D01*
X-2351558Y1244305D01*
X-2344928Y1254229D01*
X-2342599Y1265934D01*
X-2344928Y1277639D01*
X-2351558Y1287563D01*
X-2361482Y1294193D01*
X-2373187Y1296522D01*
D02*
G37*
G36*
X-1910898Y1277523D02*
X-1922603Y1275195D01*
X-1932526Y1268564D01*
X-1939157Y1258641D01*
X-1941485Y1246936D01*
X-1939157Y1235230D01*
X-1932526Y1225307D01*
X-1922603Y1218676D01*
X-1910898Y1216348D01*
X-1899192Y1218676D01*
X-1889269Y1225307D01*
X-1882638Y1235230D01*
X-1880310Y1246936D01*
X-1882638Y1258641D01*
X-1889269Y1268564D01*
X-1899192Y1275195D01*
X-1910898Y1277523D01*
D02*
G37*
G36*
X-4013394Y1352700D02*
X-4185794D01*
Y1180300D01*
X-4013394D01*
Y1352700D01*
D02*
G37*
G36*
X-1571180Y1232395D02*
X-1582886Y1230067D01*
X-1592809Y1223436D01*
X-1599440Y1213513D01*
X-1601768Y1201808D01*
X-1599440Y1190102D01*
X-1592809Y1180179D01*
X-1582886Y1173548D01*
X-1571180Y1171220D01*
X-1559475Y1173548D01*
X-1549551Y1180179D01*
X-1542921Y1190102D01*
X-1540593Y1201808D01*
X-1542921Y1213513D01*
X-1549551Y1223436D01*
X-1559475Y1230067D01*
X-1571180Y1232395D01*
D02*
G37*
G36*
X-2405980Y1194790D02*
X-2417685Y1192462D01*
X-2427609Y1185832D01*
X-2434239Y1175908D01*
X-2436568Y1164203D01*
X-2434239Y1152497D01*
X-2427609Y1142574D01*
X-2417685Y1135943D01*
X-2405980Y1133615D01*
X-2394275Y1135943D01*
X-2384351Y1142574D01*
X-2377721Y1152497D01*
X-2375392Y1164203D01*
X-2377721Y1175908D01*
X-2384351Y1185832D01*
X-2394275Y1192462D01*
X-2405980Y1194790D01*
D02*
G37*
G36*
X-2125240Y1177374D02*
X-2136945Y1175046D01*
X-2146868Y1168415D01*
X-2153499Y1158492D01*
X-2155827Y1146786D01*
X-2153499Y1135081D01*
X-2146868Y1125158D01*
X-2136945Y1118527D01*
X-2125240Y1116199D01*
X-2113534Y1118527D01*
X-2103611Y1125158D01*
X-2096980Y1135081D01*
X-2094652Y1146786D01*
X-2096980Y1158492D01*
X-2103611Y1168415D01*
X-2113534Y1175046D01*
X-2125240Y1177374D01*
D02*
G37*
G36*
X-3415743Y1171225D02*
X-3427448Y1168897D01*
X-3437372Y1162266D01*
X-3444002Y1152343D01*
X-3446331Y1140637D01*
X-3444002Y1128932D01*
X-3437372Y1119008D01*
X-3427448Y1112378D01*
X-3415743Y1110050D01*
X-3404038Y1112378D01*
X-3394114Y1119008D01*
X-3387484Y1128932D01*
X-3385155Y1140637D01*
X-3387484Y1152343D01*
X-3394114Y1162266D01*
X-3404038Y1168897D01*
X-3415743Y1171225D01*
D02*
G37*
G36*
X-6092928Y1148777D02*
X-6104633Y1146449D01*
X-6114557Y1139818D01*
X-6121187Y1129895D01*
X-6123516Y1118190D01*
X-6121187Y1106484D01*
X-6114557Y1096561D01*
X-6104633Y1089930D01*
X-6092928Y1087602D01*
X-6081223Y1089930D01*
X-6071299Y1096561D01*
X-6064669Y1106484D01*
X-6062340Y1118190D01*
X-6064669Y1129895D01*
X-6071299Y1139818D01*
X-6081223Y1146449D01*
X-6092928Y1148777D01*
D02*
G37*
G36*
X-1904120Y1143433D02*
X-1915825Y1141104D01*
X-1925749Y1134474D01*
X-1932379Y1124550D01*
X-1934708Y1112845D01*
X-1932379Y1101140D01*
X-1925749Y1091216D01*
X-1915825Y1084586D01*
X-1904120Y1082257D01*
X-1892415Y1084586D01*
X-1882491Y1091216D01*
X-1875861Y1101140D01*
X-1873532Y1112845D01*
X-1875861Y1124550D01*
X-1882491Y1134474D01*
X-1892415Y1141104D01*
X-1904120Y1143433D01*
D02*
G37*
G36*
X-2038541Y1136268D02*
X-2050246Y1133939D01*
X-2060170Y1127309D01*
X-2066800Y1117385D01*
X-2069128Y1105680D01*
X-2066800Y1093975D01*
X-2060170Y1084051D01*
X-2050246Y1077421D01*
X-2038541Y1075092D01*
X-2026835Y1077421D01*
X-2016912Y1084051D01*
X-2010281Y1093975D01*
X-2007953Y1105680D01*
X-2010281Y1117385D01*
X-2016912Y1127309D01*
X-2026835Y1133939D01*
X-2038541Y1136268D01*
D02*
G37*
G36*
X-2210650Y1130943D02*
X-2222356Y1128614D01*
X-2232279Y1121984D01*
X-2238910Y1112060D01*
X-2241238Y1100355D01*
X-2238910Y1088650D01*
X-2232279Y1078726D01*
X-2222356Y1072096D01*
X-2210650Y1069767D01*
X-2198945Y1072096D01*
X-2189022Y1078726D01*
X-2182391Y1088650D01*
X-2180063Y1100355D01*
X-2182391Y1112060D01*
X-2189022Y1121984D01*
X-2198945Y1128614D01*
X-2210650Y1130943D01*
D02*
G37*
G36*
X-3296457D02*
X-3308163Y1128614D01*
X-3318086Y1121984D01*
X-3324716Y1112060D01*
X-3327045Y1100355D01*
X-3324716Y1088650D01*
X-3318086Y1078726D01*
X-3308163Y1072096D01*
X-3296457Y1069767D01*
X-3284752Y1072096D01*
X-3274828Y1078726D01*
X-3268198Y1088650D01*
X-3265870Y1100355D01*
X-3268198Y1112060D01*
X-3274828Y1121984D01*
X-3284752Y1128614D01*
X-3296457Y1130943D01*
D02*
G37*
G36*
X-1139210Y1130316D02*
X-1150915Y1127987D01*
X-1160839Y1121357D01*
X-1167469Y1111433D01*
X-1169798Y1099728D01*
X-1167469Y1088023D01*
X-1160839Y1078099D01*
X-1150915Y1071469D01*
X-1139210Y1069140D01*
X-1127505Y1071469D01*
X-1117581Y1078099D01*
X-1110951Y1088023D01*
X-1108622Y1099728D01*
X-1110951Y1111433D01*
X-1117581Y1121357D01*
X-1127505Y1127987D01*
X-1139210Y1130316D01*
D02*
G37*
G36*
X-2348537Y1110503D02*
X-2360242Y1108175D01*
X-2370165Y1101544D01*
X-2376796Y1091621D01*
X-2379124Y1079916D01*
X-2376796Y1068210D01*
X-2370165Y1058287D01*
X-2360242Y1051656D01*
X-2348537Y1049328D01*
X-2336831Y1051656D01*
X-2326908Y1058287D01*
X-2320277Y1068210D01*
X-2317949Y1079916D01*
X-2320277Y1091621D01*
X-2326908Y1101544D01*
X-2336831Y1108175D01*
X-2348537Y1110503D01*
D02*
G37*
G36*
X-4650170Y1078427D02*
X-4661875Y1076098D01*
X-4671799Y1069468D01*
X-4678429Y1059544D01*
X-4680757Y1047839D01*
X-4678429Y1036134D01*
X-4671799Y1026210D01*
X-4661875Y1019580D01*
X-4650170Y1017251D01*
X-4638464Y1019580D01*
X-4628541Y1026210D01*
X-4621910Y1036134D01*
X-4619582Y1047839D01*
X-4621910Y1059544D01*
X-4628541Y1069468D01*
X-4638464Y1076098D01*
X-4650170Y1078427D01*
D02*
G37*
G36*
X-4099594Y1099444D02*
X-4122097Y1096481D01*
X-4143066Y1087796D01*
X-4161073Y1073979D01*
X-4174890Y1055972D01*
X-4183575Y1035003D01*
X-4186538Y1012500D01*
X-4183575Y989998D01*
X-4174890Y969028D01*
X-4161073Y951022D01*
X-4143066Y937205D01*
X-4122097Y928519D01*
X-4099594Y925556D01*
X-4077092Y928519D01*
X-4056122Y937205D01*
X-4038116Y951022D01*
X-4024299Y969028D01*
X-4015613Y989998D01*
X-4012651Y1012500D01*
X-4015613Y1035003D01*
X-4024299Y1055972D01*
X-4038116Y1073979D01*
X-4056122Y1087796D01*
X-4077092Y1096481D01*
X-4099594Y1099444D01*
D02*
G37*
G36*
X-520067Y973568D02*
X-531772Y971239D01*
X-541696Y964609D01*
X-548326Y954685D01*
X-550654Y942980D01*
X-548326Y931275D01*
X-541696Y921351D01*
X-531772Y914721D01*
X-520067Y912392D01*
X-508361Y914721D01*
X-498438Y921351D01*
X-491808Y931275D01*
X-489479Y942980D01*
X-491808Y954685D01*
X-498438Y964609D01*
X-508361Y971239D01*
X-520067Y973568D01*
D02*
G37*
G36*
X-1151356Y891266D02*
X-1163061Y888938D01*
X-1172984Y882307D01*
X-1179615Y872384D01*
X-1181943Y860678D01*
X-1179615Y848973D01*
X-1172984Y839050D01*
X-1163061Y832419D01*
X-1151356Y830091D01*
X-1139650Y832419D01*
X-1129727Y839050D01*
X-1123096Y848973D01*
X-1120768Y860678D01*
X-1123096Y872384D01*
X-1129727Y882307D01*
X-1139650Y888938D01*
X-1151356Y891266D01*
D02*
G37*
G36*
X-2423161D02*
X-2434867Y888938D01*
X-2444790Y882307D01*
X-2451421Y872384D01*
X-2453749Y860678D01*
X-2451421Y848973D01*
X-2444790Y839050D01*
X-2434867Y832419D01*
X-2423161Y830091D01*
X-2411456Y832419D01*
X-2401532Y839050D01*
X-2394902Y848973D01*
X-2392574Y860678D01*
X-2394902Y872384D01*
X-2401532Y882307D01*
X-2411456Y888938D01*
X-2423161Y891266D01*
D02*
G37*
G36*
X-5987301Y993760D02*
X-6159701D01*
Y821360D01*
X-5987301D01*
Y993760D01*
D02*
G37*
G36*
X-4547000Y946412D02*
X-4597000D01*
X-4619190Y943491D01*
X-4639867Y934926D01*
X-4657623Y921301D01*
X-4671247Y903545D01*
X-4679812Y882868D01*
X-4682734Y860678D01*
X-4679812Y838489D01*
X-4671247Y817812D01*
X-4657623Y800056D01*
X-4639867Y786431D01*
X-4619190Y777866D01*
X-4597000Y774945D01*
X-4547000D01*
X-4524810Y777866D01*
X-4504133Y786431D01*
X-4486377Y800056D01*
X-4472753Y817812D01*
X-4464188Y838489D01*
X-4461266Y860678D01*
X-4464188Y882868D01*
X-4472753Y903545D01*
X-4486377Y921301D01*
X-4504133Y934926D01*
X-4524810Y943491D01*
X-4547000Y946412D01*
D02*
G37*
G36*
X-4912000Y754488D02*
X-4923705Y752159D01*
X-4933629Y745529D01*
X-4940259Y735605D01*
X-4942588Y723900D01*
X-4940259Y712195D01*
X-4933629Y702271D01*
X-4923705Y695641D01*
X-4912000Y693312D01*
X-4900295Y695641D01*
X-4890371Y702271D01*
X-4883741Y712195D01*
X-4881412Y723900D01*
X-4883741Y735605D01*
X-4890371Y745529D01*
X-4900295Y752159D01*
X-4912000Y754488D01*
D02*
G37*
G36*
X-1139210Y602048D02*
X-1150915Y599720D01*
X-1160839Y593089D01*
X-1167469Y583166D01*
X-1169798Y571460D01*
X-1167469Y559755D01*
X-1160839Y549832D01*
X-1150915Y543201D01*
X-1139210Y540873D01*
X-1127505Y543201D01*
X-1117581Y549832D01*
X-1110951Y559755D01*
X-1108622Y571460D01*
X-1110951Y583166D01*
X-1117581Y593089D01*
X-1127505Y599720D01*
X-1139210Y602048D01*
D02*
G37*
G36*
X-4547000Y696413D02*
X-4597000D01*
X-4619190Y693492D01*
X-4639867Y684927D01*
X-4657623Y671303D01*
X-4671247Y653547D01*
X-4679812Y632869D01*
X-4682734Y610680D01*
X-4679812Y588491D01*
X-4671247Y567813D01*
X-4657623Y550057D01*
X-4639867Y536433D01*
X-4619190Y527868D01*
X-4597000Y524947D01*
X-4547000D01*
X-4524810Y527868D01*
X-4504133Y536433D01*
X-4486377Y550057D01*
X-4472753Y567813D01*
X-4464188Y588491D01*
X-4461266Y610680D01*
X-4464188Y632869D01*
X-4472753Y653547D01*
X-4486377Y671303D01*
X-4504133Y684927D01*
X-4524810Y693492D01*
X-4547000Y696413D01*
D02*
G37*
G36*
X-5670550Y509592D02*
X-5682256Y507264D01*
X-5691340Y501194D01*
X-5700425Y507264D01*
X-5712130Y509592D01*
X-5723835Y507264D01*
X-5732615Y501398D01*
X-5741394Y507264D01*
X-5753100Y509592D01*
X-5764805Y507264D01*
X-5774729Y500633D01*
X-5781359Y490710D01*
X-5783687Y479004D01*
X-5781359Y467299D01*
X-5774729Y457376D01*
X-5775496Y443163D01*
X-5779594Y437030D01*
X-5782127Y433240D01*
X-5792016Y432811D01*
X-5795145Y432891D01*
X-5805960Y435042D01*
X-5817665Y432714D01*
X-5827589Y426083D01*
X-5834219Y416160D01*
X-5836548Y404455D01*
X-5834219Y392749D01*
X-5828800Y384638D01*
X-5827589Y378549D01*
Y370173D01*
X-5827996Y369901D01*
X-5834626Y359977D01*
X-5836955Y348272D01*
X-5834626Y336567D01*
X-5827996Y326643D01*
X-5818072Y320013D01*
X-5806367Y317684D01*
X-5794662Y320013D01*
X-5784738Y326643D01*
X-5778108Y336567D01*
X-5775779Y348272D01*
X-5778108Y359977D01*
X-5783527Y368089D01*
X-5784738Y374177D01*
Y382554D01*
X-5784331Y382826D01*
X-5780233Y388959D01*
X-5777700Y392749D01*
X-5767811Y393178D01*
X-5764682Y393098D01*
X-5753867Y390947D01*
X-5742162Y393275D01*
X-5732238Y399906D01*
X-5725887D01*
X-5715964Y393275D01*
X-5704258Y390947D01*
X-5692553Y393275D01*
X-5692311Y393437D01*
X-5679225Y392749D01*
X-5673680Y384450D01*
X-5672426Y379180D01*
Y373546D01*
X-5673680Y368277D01*
X-5679225Y359977D01*
X-5681554Y348272D01*
X-5679225Y336567D01*
X-5672595Y326643D01*
X-5662671Y320013D01*
X-5650966Y317684D01*
X-5639261Y320013D01*
X-5629337Y326643D01*
X-5622707Y336567D01*
X-5620378Y348272D01*
X-5622707Y359977D01*
X-5628252Y368277D01*
X-5629505Y373546D01*
Y379180D01*
X-5628252Y384450D01*
X-5622707Y392749D01*
X-5620378Y404455D01*
X-5622707Y416160D01*
X-5629337Y426083D01*
X-5639261Y432714D01*
X-5650966Y435042D01*
X-5662671Y432714D01*
X-5667021Y437647D01*
X-5660805Y450355D01*
X-5658845Y450745D01*
X-5648921Y457376D01*
X-5642291Y467299D01*
X-5639963Y479004D01*
X-5642291Y490710D01*
X-5648921Y500633D01*
X-5658845Y507264D01*
X-5670550Y509592D01*
D02*
G37*
G36*
X-5223980Y672901D02*
X-5249432Y669550D01*
X-5273150Y659726D01*
X-5293518Y644098D01*
X-5309146Y623730D01*
X-5318970Y600012D01*
X-5322321Y574560D01*
X-5318970Y549107D01*
X-5309146Y525389D01*
X-5293518Y505022D01*
X-5273150Y489394D01*
X-5249432Y479569D01*
X-5223980Y476219D01*
X-5198527Y479569D01*
X-5174809Y489394D01*
X-5154442Y505022D01*
X-5138814Y525389D01*
X-5128989Y549107D01*
X-5125639Y574560D01*
X-5128989Y600012D01*
X-5138814Y623730D01*
X-5154442Y644098D01*
X-5174809Y659726D01*
X-5198527Y669550D01*
X-5223980Y672901D01*
D02*
G37*
G36*
X-4099594Y591444D02*
X-4122097Y588481D01*
X-4143066Y579796D01*
X-4161073Y565979D01*
X-4174890Y547972D01*
X-4183575Y527003D01*
X-4186538Y504500D01*
X-4183575Y481998D01*
X-4174890Y461028D01*
X-4161073Y443022D01*
X-4143066Y429205D01*
X-4122097Y420519D01*
X-4099594Y417556D01*
X-4077092Y420519D01*
X-4056122Y429205D01*
X-4038116Y443022D01*
X-4024299Y461028D01*
X-4015613Y481998D01*
X-4012651Y504500D01*
X-4015613Y527003D01*
X-4024299Y547972D01*
X-4038116Y565979D01*
X-4056122Y579796D01*
X-4077092Y588481D01*
X-4099594Y591444D01*
D02*
G37*
G36*
X-2562186Y398046D02*
X-2573891Y395718D01*
X-2583814Y389088D01*
X-2590445Y379164D01*
X-2592773Y367459D01*
X-2590445Y355753D01*
X-2583814Y345830D01*
X-2573891Y339199D01*
X-2562186Y336871D01*
X-2550480Y339199D01*
X-2540557Y345830D01*
X-2533926Y355753D01*
X-2531598Y367459D01*
X-2533926Y379164D01*
X-2540557Y389088D01*
X-2550480Y395718D01*
X-2562186Y398046D01*
D02*
G37*
G36*
X-928460Y379747D02*
X-940165Y377418D01*
X-950089Y370788D01*
X-956719Y360864D01*
X-959048Y349159D01*
X-956719Y337453D01*
X-950089Y327530D01*
X-940165Y320900D01*
X-928460Y318571D01*
X-916755Y320900D01*
X-906831Y327530D01*
X-900201Y337453D01*
X-897872Y349159D01*
X-900201Y360864D01*
X-906831Y370788D01*
X-916755Y377418D01*
X-928460Y379747D01*
D02*
G37*
G36*
X-3324819Y345546D02*
X-3336524Y343218D01*
X-3346448Y336588D01*
X-3353078Y326664D01*
X-3355407Y314959D01*
X-3353078Y303253D01*
X-3346448Y293330D01*
X-3336524Y286699D01*
X-3324819Y284371D01*
X-3313114Y286699D01*
X-3303190Y293330D01*
X-3296560Y303253D01*
X-3294231Y314959D01*
X-3296560Y326664D01*
X-3303190Y336588D01*
X-3313114Y343218D01*
X-3324819Y345546D01*
D02*
G37*
G36*
X-4547000Y446413D02*
X-4597000D01*
X-4619190Y443492D01*
X-4639867Y434927D01*
X-4657623Y421303D01*
X-4671247Y403547D01*
X-4679812Y382869D01*
X-4682734Y360680D01*
X-4679812Y338491D01*
X-4671247Y317813D01*
X-4657623Y300057D01*
X-4639867Y286433D01*
X-4619190Y277868D01*
X-4597000Y274947D01*
X-4547000D01*
X-4524810Y277868D01*
X-4504133Y286433D01*
X-4486377Y300057D01*
X-4472753Y317813D01*
X-4464188Y338491D01*
X-4461266Y360680D01*
X-4464188Y382869D01*
X-4472753Y403547D01*
X-4486377Y421303D01*
X-4504133Y434927D01*
X-4524810Y443492D01*
X-4547000Y446413D01*
D02*
G37*
G36*
X-5126480Y422060D02*
X-5321480D01*
Y227060D01*
X-5126480D01*
Y422060D01*
D02*
G37*
G36*
X-1910931Y241268D02*
X-1922636Y238939D01*
X-1932560Y232309D01*
X-1939190Y222385D01*
X-1941519Y210680D01*
X-1939190Y198975D01*
X-1932560Y189051D01*
X-1922636Y182421D01*
X-1910931Y180092D01*
X-1899226Y182421D01*
X-1889302Y189051D01*
X-1882672Y198975D01*
X-1880343Y210680D01*
X-1882672Y222385D01*
X-1889302Y232309D01*
X-1899226Y238939D01*
X-1910931Y241268D01*
D02*
G37*
G36*
X-6121400Y328134D02*
X-6140587Y325608D01*
X-6158467Y318202D01*
X-6173821Y306421D01*
X-6185602Y291067D01*
X-6193008Y273187D01*
X-6195534Y254000D01*
X-6193008Y234813D01*
X-6185602Y216933D01*
X-6173821Y201579D01*
X-6158467Y189798D01*
X-6140587Y182392D01*
X-6121400Y179866D01*
X-6102213Y182392D01*
X-6084333Y189798D01*
X-6068979Y201579D01*
X-6057198Y216933D01*
X-6049792Y234813D01*
X-6047266Y254000D01*
X-6049792Y273187D01*
X-6057198Y291067D01*
X-6068979Y306421D01*
X-6084333Y318202D01*
X-6102213Y325608D01*
X-6121400Y328134D01*
D02*
G37*
G36*
X-6324600D02*
X-6343787Y325608D01*
X-6361667Y318202D01*
X-6377021Y306421D01*
X-6388802Y291067D01*
X-6396208Y273187D01*
X-6398734Y254000D01*
X-6396208Y234813D01*
X-6388802Y216933D01*
X-6377021Y201579D01*
X-6361667Y189798D01*
X-6343787Y182392D01*
X-6324600Y179866D01*
X-6305413Y182392D01*
X-6287533Y189798D01*
X-6272179Y201579D01*
X-6260398Y216933D01*
X-6252992Y234813D01*
X-6250466Y254000D01*
X-6252992Y273187D01*
X-6260398Y291067D01*
X-6272179Y306421D01*
X-6287533Y318202D01*
X-6305413Y325608D01*
X-6324600Y328134D01*
D02*
G37*
G36*
X-4099594Y337444D02*
X-4122097Y334481D01*
X-4143066Y325796D01*
X-4161073Y311979D01*
X-4174890Y293972D01*
X-4183575Y273003D01*
X-4186538Y250500D01*
X-4183575Y227998D01*
X-4174890Y207028D01*
X-4161073Y189022D01*
X-4143066Y175205D01*
X-4122097Y166519D01*
X-4099594Y163556D01*
X-4077092Y166519D01*
X-4056122Y175205D01*
X-4038116Y189022D01*
X-4024299Y207028D01*
X-4015613Y227998D01*
X-4012651Y250500D01*
X-4015613Y273003D01*
X-4024299Y293972D01*
X-4038116Y311979D01*
X-4056122Y325796D01*
X-4077092Y334481D01*
X-4099594Y337444D01*
D02*
G37*
G36*
X-5994400Y218584D02*
X-6010007Y215479D01*
X-6023238Y206638D01*
X-6032079Y193407D01*
X-6035184Y177800D01*
X-6032079Y162193D01*
X-6023238Y148962D01*
X-6010007Y140121D01*
X-5994400Y137016D01*
X-5978793Y140121D01*
X-5965562Y148962D01*
X-5956721Y162193D01*
X-5953616Y177800D01*
X-5956721Y193407D01*
X-5965562Y206638D01*
X-5978793Y215479D01*
X-5994400Y218584D01*
D02*
G37*
G36*
X-2126390Y160118D02*
X-2138095Y157789D01*
X-2148019Y151159D01*
X-2154649Y141235D01*
X-2156977Y129530D01*
X-2154649Y117825D01*
X-2148019Y107901D01*
X-2138095Y101271D01*
X-2126390Y98942D01*
X-2114684Y101271D01*
X-2104761Y107901D01*
X-2098130Y117825D01*
X-2095802Y129530D01*
X-2098130Y141235D01*
X-2104761Y151159D01*
X-2114684Y157789D01*
X-2126390Y160118D01*
D02*
G37*
G36*
X-5715000Y106788D02*
X-5726705Y104459D01*
X-5736629Y97829D01*
X-5743259Y87905D01*
X-5745588Y76200D01*
X-5743259Y64495D01*
X-5736629Y54571D01*
X-5726705Y47941D01*
X-5715000Y45612D01*
X-5703295Y47941D01*
X-5693371Y54571D01*
X-5686741Y64495D01*
X-5684412Y76200D01*
X-5686741Y87905D01*
X-5693371Y97829D01*
X-5703295Y104459D01*
X-5715000Y106788D01*
D02*
G37*
G36*
X-4099594Y83444D02*
X-4122097Y80481D01*
X-4143066Y71796D01*
X-4161073Y57979D01*
X-4174890Y39972D01*
X-4183575Y19003D01*
X-4186538Y-3500D01*
X-4183575Y-26002D01*
X-4174890Y-46972D01*
X-4161073Y-64978D01*
X-4143066Y-78795D01*
X-4122097Y-87481D01*
X-4099594Y-90444D01*
X-4077092Y-87481D01*
X-4056122Y-78795D01*
X-4038116Y-64978D01*
X-4024299Y-46972D01*
X-4015613Y-26002D01*
X-4012651Y-3500D01*
X-4015613Y19003D01*
X-4024299Y39972D01*
X-4038116Y57979D01*
X-4056122Y71796D01*
X-4077092Y80481D01*
X-4099594Y83444D01*
D02*
G37*
G36*
X-5067300Y-81163D02*
X-5079981Y-83686D01*
X-5090731Y-90869D01*
X-5097914Y-101619D01*
X-5100437Y-114300D01*
X-5097914Y-126981D01*
X-5090731Y-137731D01*
X-5079981Y-144914D01*
X-5067300Y-147437D01*
X-5054619Y-144914D01*
X-5043869Y-137731D01*
X-5036686Y-126981D01*
X-5034163Y-114300D01*
X-5036686Y-101619D01*
X-5043869Y-90869D01*
X-5054619Y-83686D01*
X-5067300Y-81163D01*
D02*
G37*
G36*
X-2208014Y-122516D02*
X-2219719Y-124844D01*
X-2229642Y-131474D01*
X-2236273Y-141398D01*
X-2238601Y-153103D01*
X-2236273Y-164809D01*
X-2229642Y-174732D01*
X-2219719Y-181363D01*
X-2208014Y-183691D01*
X-2196308Y-181363D01*
X-2186385Y-174732D01*
X-2179754Y-164809D01*
X-2177426Y-153103D01*
X-2179754Y-141398D01*
X-2186385Y-131474D01*
X-2196308Y-124844D01*
X-2208014Y-122516D01*
D02*
G37*
G36*
X-3296457Y-174083D02*
X-3308163Y-176411D01*
X-3318086Y-183042D01*
X-3324716Y-192965D01*
X-3327045Y-204671D01*
X-3324716Y-216376D01*
X-3318086Y-226300D01*
X-3308163Y-232930D01*
X-3296457Y-235258D01*
X-3284752Y-232930D01*
X-3274828Y-226300D01*
X-3268198Y-216376D01*
X-3265870Y-204671D01*
X-3268198Y-192965D01*
X-3274828Y-183042D01*
X-3284752Y-176411D01*
X-3296457Y-174083D01*
D02*
G37*
G36*
X-6108700Y-236112D02*
X-6120405Y-238441D01*
X-6130329Y-245071D01*
X-6136959Y-254995D01*
X-6139288Y-266700D01*
X-6136959Y-278405D01*
X-6130329Y-288329D01*
X-6120405Y-294959D01*
X-6108700Y-297288D01*
X-6096995Y-294959D01*
X-6087071Y-288329D01*
X-6080441Y-278405D01*
X-6078112Y-266700D01*
X-6080441Y-254995D01*
X-6087071Y-245071D01*
X-6096995Y-238441D01*
X-6108700Y-236112D01*
D02*
G37*
G36*
X-1571180Y-258412D02*
X-1582886Y-260741D01*
X-1592809Y-267371D01*
X-1599440Y-277295D01*
X-1601768Y-289000D01*
X-1599440Y-300705D01*
X-1592809Y-310629D01*
X-1582886Y-317259D01*
X-1571180Y-319588D01*
X-1559475Y-317259D01*
X-1549551Y-310629D01*
X-1542921Y-300705D01*
X-1540593Y-289000D01*
X-1542921Y-277295D01*
X-1549551Y-267371D01*
X-1559475Y-260741D01*
X-1571180Y-258412D01*
D02*
G37*
G36*
X-1711180D02*
X-1722886Y-260741D01*
X-1732809Y-267371D01*
X-1739439Y-277295D01*
X-1741768Y-289000D01*
X-1739439Y-300705D01*
X-1732809Y-310629D01*
X-1722886Y-317259D01*
X-1711180Y-319588D01*
X-1699475Y-317259D01*
X-1689551Y-310629D01*
X-1682921Y-300705D01*
X-1680593Y-289000D01*
X-1682921Y-277295D01*
X-1689551Y-267371D01*
X-1699475Y-260741D01*
X-1711180Y-258412D01*
D02*
G37*
G36*
X-4572000Y-284722D02*
X-4583705Y-287050D01*
X-4593629Y-293681D01*
X-4600259Y-303604D01*
X-4602588Y-315310D01*
X-4600259Y-327015D01*
X-4593629Y-336939D01*
X-4583705Y-343569D01*
X-4572000Y-345897D01*
X-4560295Y-343569D01*
X-4550371Y-336939D01*
X-4543741Y-327015D01*
X-4541412Y-315310D01*
X-4543741Y-303604D01*
X-4550371Y-293681D01*
X-4560295Y-287050D01*
X-4572000Y-284722D01*
D02*
G37*
G36*
X-6363740Y-284953D02*
X-6375445Y-287281D01*
X-6385369Y-293912D01*
X-6391999Y-303835D01*
X-6394328Y-315540D01*
X-6391999Y-327246D01*
X-6385369Y-337169D01*
X-6375445Y-343800D01*
X-6363740Y-346128D01*
X-6352035Y-343800D01*
X-6342111Y-337169D01*
X-6335481Y-327246D01*
X-6333152Y-315540D01*
X-6335481Y-303835D01*
X-6342111Y-293912D01*
X-6352035Y-287281D01*
X-6363740Y-284953D01*
D02*
G37*
G36*
X-1466500Y-303412D02*
X-1478205Y-305741D01*
X-1488129Y-312371D01*
X-1494759Y-322295D01*
X-1497088Y-334000D01*
X-1494759Y-345705D01*
X-1488129Y-355629D01*
X-1478205Y-362259D01*
X-1466500Y-364588D01*
X-1454795Y-362259D01*
X-1444871Y-355629D01*
X-1438241Y-345705D01*
X-1435912Y-334000D01*
X-1438241Y-322295D01*
X-1444871Y-312371D01*
X-1454795Y-305741D01*
X-1466500Y-303412D01*
D02*
G37*
G36*
X-4572000Y-414312D02*
X-4583705Y-416641D01*
X-4593629Y-423271D01*
X-4600259Y-433194D01*
X-4602588Y-444900D01*
X-4600259Y-456605D01*
X-4593629Y-466529D01*
X-4583705Y-473159D01*
X-4572000Y-475487D01*
X-4560295Y-473159D01*
X-4550371Y-466529D01*
X-4543741Y-456605D01*
X-4541412Y-444900D01*
X-4543741Y-433194D01*
X-4550371Y-423271D01*
X-4560295Y-416641D01*
X-4572000Y-414312D01*
D02*
G37*
G36*
X-6807200Y-344966D02*
X-6826387Y-347492D01*
X-6844267Y-354898D01*
X-6859621Y-366679D01*
X-6871402Y-382033D01*
X-6878808Y-399913D01*
X-6881334Y-419100D01*
X-6878808Y-438287D01*
X-6871402Y-456167D01*
X-6859621Y-471521D01*
X-6844267Y-483302D01*
X-6826387Y-490708D01*
X-6807200Y-493234D01*
X-6788013Y-490708D01*
X-6770133Y-483302D01*
X-6754779Y-471521D01*
X-6742998Y-456167D01*
X-6735592Y-438287D01*
X-6733066Y-419100D01*
X-6735592Y-399913D01*
X-6742998Y-382033D01*
X-6754779Y-366679D01*
X-6770133Y-354898D01*
X-6788013Y-347492D01*
X-6807200Y-344966D01*
D02*
G37*
G36*
X-7099300Y-446566D02*
X-7118487Y-449092D01*
X-7136367Y-456498D01*
X-7151721Y-468279D01*
X-7163502Y-483633D01*
X-7170908Y-501513D01*
X-7173434Y-520700D01*
X-7170908Y-539887D01*
X-7163502Y-557767D01*
X-7151721Y-573121D01*
X-7136367Y-584902D01*
X-7118487Y-592308D01*
X-7099300Y-594834D01*
X-7080113Y-592308D01*
X-7062233Y-584902D01*
X-7046879Y-573121D01*
X-7035098Y-557767D01*
X-7027692Y-539887D01*
X-7025166Y-520700D01*
X-7027692Y-501513D01*
X-7035098Y-483633D01*
X-7046879Y-468279D01*
X-7062233Y-456498D01*
X-7080113Y-449092D01*
X-7099300Y-446566D01*
D02*
G37*
G36*
X-5715000Y-921912D02*
X-5726705Y-924241D01*
X-5736629Y-930871D01*
X-5743259Y-940795D01*
X-5745588Y-952500D01*
X-5743259Y-964205D01*
X-5736629Y-974129D01*
X-5726705Y-980759D01*
X-5715000Y-983088D01*
X-5703295Y-980759D01*
X-5693371Y-974129D01*
X-5686741Y-964205D01*
X-5684412Y-952500D01*
X-5686741Y-940795D01*
X-5693371Y-930871D01*
X-5703295Y-924241D01*
X-5715000Y-921912D01*
D02*
G37*
%LPD*%
D54*
X-3516800Y3568700D02*
D03*
X-2971800D02*
D03*
D55*
X-3486800Y3265700D02*
D03*
X-3001800D02*
D03*
D56*
X-4572000Y610680D02*
D03*
Y360680D02*
D03*
Y860678D02*
D03*
D57*
Y110680D02*
D03*
D58*
X-4099594Y-3500D02*
D03*
Y250500D02*
D03*
Y504500D02*
D03*
Y1012500D02*
D03*
Y758500D02*
D03*
X-6073501Y653560D02*
D03*
D59*
X-4099594Y1266500D02*
D03*
X-6073501Y907560D02*
D03*
D60*
X-5223980Y324560D02*
D03*
D61*
Y574560D02*
D03*
Y824560D02*
D03*
D62*
X-434220Y3441977D02*
D03*
X-437460Y-962923D02*
D03*
X-7331900Y-960383D02*
D03*
X-7342060Y3446517D02*
D03*
D63*
X-4572000Y-315310D02*
D03*
Y-444900D02*
D03*
X-5363903Y1686689D02*
D03*
X-5171156Y1685599D02*
D03*
X-1812489Y3079112D02*
D03*
X-3816704Y2870880D02*
D03*
X-4016094D02*
D03*
X-4328514D02*
D03*
X-4146690D02*
D03*
X-5062278Y3165820D02*
D03*
X-4864556Y3568700D02*
D03*
X-4540046Y3388428D02*
D03*
X-4517540Y3307502D02*
D03*
X-1409700Y1607820D02*
D03*
X-1381462Y1483300D02*
D03*
X-1160644Y1780001D02*
D03*
X-1631551Y1646356D02*
D03*
X-1891997Y1891931D02*
D03*
X-1725480Y1431111D02*
D03*
X-1939123Y2124877D02*
D03*
X-1571180Y1201808D02*
D03*
X-5670550Y479004D02*
D03*
X-5712130D02*
D03*
X-5753100D02*
D03*
X-2730500Y1396000D02*
D03*
X-1003300Y2476500D02*
D03*
X-1910898Y1246936D02*
D03*
X-2400300Y1981200D02*
D03*
Y2108200D02*
D03*
X-1663700Y2286000D02*
D03*
X-1803400D02*
D03*
X-2510116Y2096251D02*
D03*
X-2487240Y2470467D02*
D03*
X-2042780Y1607820D02*
D03*
X-5715000Y76200D02*
D03*
X-5806367Y348272D02*
D03*
X-5715000Y-952500D02*
D03*
X-5067300Y-685800D02*
D03*
X-5805960Y404455D02*
D03*
X-6108700Y-266700D02*
D03*
X-6146800Y-914400D02*
D03*
X-6261100Y-457200D02*
D03*
X-6146800D02*
D03*
X-6261100Y-546100D02*
D03*
Y-368300D02*
D03*
Y-266700D02*
D03*
Y-1016000D02*
D03*
Y-914400D02*
D03*
X-6146800Y-635000D02*
D03*
Y-546100D02*
D03*
Y-723900D02*
D03*
Y-812800D02*
D03*
X-6261100D02*
D03*
Y-635000D02*
D03*
Y-723900D02*
D03*
X-6363740Y-315540D02*
D03*
X-3820514Y2701561D02*
D03*
X-4447540Y2616200D02*
D03*
X-4328514Y2763520D02*
D03*
X-6330053Y1191259D02*
D03*
X-6660631Y1184159D02*
D03*
X-7584133Y2944840D02*
D03*
Y2839840D02*
D03*
Y2688700D02*
D03*
Y2594140D02*
D03*
Y2373800D02*
D03*
X-7580900Y2471300D02*
D03*
X-6333740Y1961140D02*
D03*
X-6663740Y1974299D02*
D03*
X-1343719Y1160020D02*
D03*
X-1369309Y1354497D02*
D03*
X-803460Y2997154D02*
D03*
X-1085680D02*
D03*
X-210880Y2745316D02*
D03*
X-520067D02*
D03*
X-1085680Y2546561D02*
D03*
X-691800Y2071753D02*
D03*
X-469071Y2239491D02*
D03*
X-1005080Y1780001D02*
D03*
X-763036D02*
D03*
X-205740Y1703700D02*
D03*
X-469071D02*
D03*
X-569300Y1409720D02*
D03*
X-520067Y942980D02*
D03*
X-1139210Y1099728D02*
D03*
X-3550743Y523760D02*
D03*
X-1536461D02*
D03*
X-1139210Y571460D02*
D03*
X-1151356Y860678D02*
D03*
X-2315040Y804535D02*
D03*
X-205740Y241300D02*
D03*
X-297180D02*
D03*
X-1048380Y261128D02*
D03*
X-1571180Y-289000D02*
D03*
X-1711180D02*
D03*
X-1887149Y2085824D02*
D03*
X-1756180Y2636561D02*
D03*
X-1760224Y2455640D02*
D03*
X-1756180Y2847340D02*
D03*
X-2570220Y2490300D02*
D03*
X-2484655Y2310300D02*
D03*
X-2562186D02*
D03*
X-2601537Y2276250D02*
D03*
X-2559614Y2096251D02*
D03*
X-4737796Y3574900D02*
D03*
X-5203040Y3592400D02*
D03*
X-5206422Y3686518D02*
D03*
X-5914044Y3612400D02*
D03*
Y3686518D02*
D03*
X-5996941Y3568725D02*
D03*
X-6133038D02*
D03*
X-6013685Y3214514D02*
D03*
X-6133038D02*
D03*
X-5813039Y1700439D02*
D03*
X-5794926Y2053116D02*
D03*
X-5971154D02*
D03*
X-4666235Y1695147D02*
D03*
X-4876817Y1691614D02*
D03*
X-5171156Y1543700D02*
D03*
X-5375236D02*
D03*
X-5924926Y1700439D02*
D03*
X-1698680Y473380D02*
D03*
X-1863231D02*
D03*
X-2475980Y768900D02*
D03*
X-3739006Y436698D02*
D03*
X-3737823Y35680D02*
D03*
X-3550743Y40329D02*
D03*
X-5704258Y421535D02*
D03*
X-5753867D02*
D03*
X-5650966Y348272D02*
D03*
Y404455D02*
D03*
X-3010840Y1855985D02*
D03*
X-2812980D02*
D03*
X-1904306Y1798275D02*
D03*
X-2672440Y1863174D02*
D03*
X-3987593Y1808285D02*
D03*
X-2529564Y2047990D02*
D03*
X-2588744D02*
D03*
X-616327Y2234479D02*
D03*
X-2697440Y2073558D02*
D03*
X-5674360Y2166620D02*
D03*
X-5473040Y2088140D02*
D03*
X-4650170Y1047839D02*
D03*
X-2348537Y1079916D02*
D03*
X-3296457Y1100355D02*
D03*
X-1139210Y2781300D02*
D03*
X-1193272Y2969712D02*
D03*
X-1175093Y2884357D02*
D03*
X-4247416Y1641761D02*
D03*
X-1121644Y2034559D02*
D03*
X-1466500Y1822969D02*
D03*
X-2707240Y2296937D02*
D03*
X-5473040Y3036612D02*
D03*
X-1910931Y210680D02*
D03*
X-5673039Y2984140D02*
D03*
X-5273040Y3087209D02*
D03*
X-5872522Y2936170D02*
D03*
X-4005379Y1684826D02*
D03*
X-2218995Y1654525D02*
D03*
X-1647087Y1703700D02*
D03*
X-6092928Y1118190D02*
D03*
X-6202182Y1446399D02*
D03*
X-2373187Y1265934D02*
D03*
X-2497440Y1445179D02*
D03*
X-2423161Y860678D02*
D03*
X-2345001Y1553726D02*
D03*
X-2380322Y1459358D02*
D03*
X-2246006Y2808300D02*
D03*
X-2140168Y1492208D02*
D03*
X-2210650Y1553342D02*
D03*
X-1725480Y1607820D02*
D03*
X-6393740Y2455640D02*
D03*
Y2694140D02*
D03*
X-6401240Y2847340D02*
D03*
X-2126390Y129530D02*
D03*
X-3296457Y-204671D02*
D03*
X-3324819Y314959D02*
D03*
X-3415743Y1140637D02*
D03*
X-2032540Y1391120D02*
D03*
X-2405980Y1164203D02*
D03*
X-4505361Y1398700D02*
D03*
X-4730541Y1520493D02*
D03*
X-2365267Y1372980D02*
D03*
X-5062278Y1745439D02*
D03*
X-1711180Y1751716D02*
D03*
X-1945325Y1327009D02*
D03*
X-1904120Y1439462D02*
D03*
X-1974522Y3087209D02*
D03*
X-2217722Y3248005D02*
D03*
X-2125240Y1146786D02*
D03*
X-2038541Y1105680D02*
D03*
X-2208014Y-153103D02*
D03*
X-2210650Y1100355D02*
D03*
X-246800Y2136250D02*
D03*
X-1090080Y1439462D02*
D03*
X-4912000Y723900D02*
D03*
X-2562186Y367459D02*
D03*
X-928460Y349159D02*
D03*
X-1466500Y-334000D02*
D03*
X-1451461Y1393500D02*
D03*
X-1904120Y1112845D02*
D03*
X-1812489Y1353222D02*
D03*
X-1855880Y1305022D02*
D03*
X-1904120Y1607820D02*
D03*
X-3173340Y1602939D02*
D03*
D64*
X-6807200Y-419100D02*
D03*
X-7099300Y-520700D02*
D03*
X-6324600Y254000D02*
D03*
X-6694863Y65463D02*
D03*
X-6121400Y254000D02*
D03*
X-6896100Y63500D02*
D03*
X-7099300Y-292100D02*
D03*
X-5359400Y-1155700D02*
D03*
X-7302500Y-292100D02*
D03*
Y63500D02*
D03*
X-7099300D02*
D03*
X-2892980Y771491D02*
D03*
D65*
X-5994400Y177800D02*
D03*
D66*
X-5067300Y-114300D02*
D03*
%TF.MD5,2c8a1090b9a545ed792909eee0083055*%
M02*
